STARTFONT 2.3
FONT -FontForge-Open Sans-Book-R-Normal-Sans--20-200-72-72-P-115-ISO10646-1
SIZE 20 72 72  4
FONTBOUNDINGBOX 35 26 -11 -5
COMMENT "Generated by fontforge, http://fontforge.sourceforge.net"
COMMENT "Digitized data copyright (c) 2010-2011, Google Corporation."
STARTPROPERTIES 41
FOUNDRY "FontForge"
FAMILY_NAME "Open Sans"
WEIGHT_NAME "Book"
SLANT "R"
SETWIDTH_NAME "Normal"
ADD_STYLE_NAME "Sans"
PIXEL_SIZE 20
POINT_SIZE 200
RESOLUTION_X 72
RESOLUTION_Y 72
SPACING "P"
AVERAGE_WIDTH 115
CHARSET_REGISTRY "ISO10646"
CHARSET_ENCODING "1"
FONTNAME_REGISTRY ""
CHARSET_COLLECTIONS "ISO8859-2 ISO8859-5 ISO8859-7 ISO8859-9 ISO8859-4 ISO10646-1"
BITS_PER_PIXEL 4
FONT_NAME "OpenSans-Regular"
FACE_NAME "Open Sans Regular"
COPYRIGHT "Digitized data copyright (c) 2010-2011, Google Corporation."
FONT_VERSION "1.10"
FONT_ASCENT 16
FONT_DESCENT 4
UNDERLINE_POSITION -2
UNDERLINE_THICKNESS 1
X_HEIGHT 10
CAP_HEIGHT 13
RAW_ASCENT 799
RAW_DESCENT 200
NORM_SPACE 5
RELATIVE_WEIGHT 40
RELATIVE_SETWIDTH 50
SUPERSCRIPT_X 0
SUPERSCRIPT_Y 9
SUPERSCRIPT_SIZE 12
SUBSCRIPT_X 0
SUBSCRIPT_Y 2
SUBSCRIPT_SIZE 12
FIGURE_WIDTH 11
AVG_LOWERCASE_WIDTH 113
AVG_UPPERCASE_WIDTH 134
ENDPROPERTIES
CHARS 938
STARTCHAR space
ENCODING 32
SWIDTH 259 0
DWIDTH 5 0
BBX 1 1 0 0
BITMAP
00
ENDCHAR
STARTCHAR exclam
ENCODING 33
SWIDTH 267 0
DWIDTH 5 0
BBX 3 14 1 0
BITMAP
5FA0
4F90
3F80
3F80
2F70
1F60
0F50
0F50
0E40
0D30
0000
2940
7FC0
4E80
ENDCHAR
STARTCHAR quotedbl
ENCODING 34
SWIDTH 400 0
DWIDTH 8 0
BBX 6 5 1 9
BITMAP
AF11FA
9F00F9
8E00D8
6D00C6
5B00B5
ENDCHAR
STARTCHAR numbersign
ENCODING 35
SWIDTH 645 0
DWIDTH 13 0
BBX 13 14 0 0
BITMAP
00002F400B8000
00005F100E5000
00008D003F2000
0000BA006E0000
0BFFFFFFFFFF60
0345F644D94410
0004F100E50000
0007D002F30000
0009B005F00000
8FFFFFFFFFFB00
244F844CB44300
003F200E600000
006E002F300000
009B005E000000
ENDCHAR
STARTCHAR dollar
ENCODING 36
SWIDTH 571 0
DWIDTH 11 0
BBX 10 16 1 -1
BITMAP
0000E50000
0000E50000
019DFFDA50
1DE7E97B70
6F40E50000
7F30E50000
2FD4E50000
05EFFA3000
0016FFFB20
0000E67FC0
0000E509F1
1000E50BE0
BC86EACF60
5BDEFDA300
0000E50000
0000E50000
ENDCHAR
STARTCHAR percent
ENCODING 37
SWIDTH 823 0
DWIDTH 16 0
BBX 15 14 1 0
BITMAP
09EE600000CA0000
7E46F30005E20000
C900B9001D800000
E6009B007D100000
F6008C02E6000000
E6009C09C3CFC200
B900B93F4CB4BC00
6E57F4BA3F302F30
08EE75F25F000E60
00000D805F000E60
00007E105F000E60
0001E6002F302F30
0009C0000CB4BD00
003F400002CFC300
ENDCHAR
STARTCHAR ampersand
ENCODING 38
SWIDTH 729 0
DWIDTH 15 0
BBX 14 14 1 0
BITMAP
004BEEB4000000
03FD66DE200000
07F2004F600000
07F2004F500000
02FA02DD100000
006FBEC2000000
005EFD10000000
09F97FB1002F70
6F7006FB107F30
CE00006FC2EB00
DD000005FFF300
AF400002DFD200
3FFA78BFE7ED20
02ADFEC7104ED2
ENDCHAR
STARTCHAR quotesingle
ENCODING 39
SWIDTH 221 0
DWIDTH 4 0
BBX 3 5 1 9
BITMAP
AF10
9F00
8E00
6D00
5B00
ENDCHAR
STARTCHAR parenleft
ENCODING 40
SWIDTH 295 0
DWIDTH 6 0
BBX 6 17 0 -3
BITMAP
0009E1
005F60
00DD00
04F600
09F100
0DD000
1FA000
2F9000
3F8000
2F9000
1FA000
0DD000
0AF100
05F600
00DD00
005F50
0009E1
ENDCHAR
STARTCHAR parenright
ENCODING 41
SWIDTH 295 0
DWIDTH 6 0
BBX 6 17 0 -3
BITMAP
2E8000
07F400
00EB00
008F30
003F80
000EC0
000BE0
000AF1
0009F2
000AF1
000BF0
000EC0
003F80
008F40
00EC00
07F400
2E8000
ENDCHAR
STARTCHAR asterisk
ENCODING 42
SWIDTH 551 0
DWIDTH 11 0
BBX 11 9 0 6
BITMAP
00006F600000
00005F400000
01003F200100
0FC85F58CF00
19BCEFECB910
0001DDD10000
000AE2FA0000
006F809F6000
004C202C4000
ENDCHAR
STARTCHAR plus
ENCODING 43
SWIDTH 571 0
DWIDTH 11 0
BBX 10 11 1 2
BITMAP
0000310000
0000F60000
0000F60000
0000F60000
0000F60000
FFFFFFFFF6
5555F95552
0000F60000
0000F60000
0000F60000
0000730000
ENDCHAR
STARTCHAR comma
ENCODING 44
SWIDTH 245 0
DWIDTH 5 0
BBX 4 5 0 -3
BITMAP
07F7
09F3
0CD0
1F70
4E10
ENDCHAR
STARTCHAR hyphen
ENCODING 45
SWIDTH 321 0
DWIDTH 6 0
BBX 6 2 0 4
BITMAP
3FFFF9
177774
ENDCHAR
STARTCHAR period
ENCODING 46
SWIDTH 266 0
DWIDTH 5 0
BBX 3 3 1 0
BITMAP
2940
7FC0
4E80
ENDCHAR
STARTCHAR slash
ENCODING 47
SWIDTH 367 0
DWIDTH 7 0
BBX 7 14 0 0
BITMAP
00000AE0
00001F90
00007F30
0000CC00
0003F600
0009F100
000EA000
005F4000
00BE0000
02F80000
07F20000
0DC00000
3F600000
9E100000
ENDCHAR
STARTCHAR zero
ENCODING 48
SWIDTH 571 0
DWIDTH 11 0
BBX 10 14 1 0
BITMAP
007DFE9200
0AFA78ED10
4F80003F90
9F10000AE0
CC000006F3
EB000004F5
FA000004F6
FA000004F6
EB000004F5
CC000006F3
8F10000AF1
3F80003FA0
08FA68EE20
006CFEA200
ENDCHAR
STARTCHAR one
ENCODING 49
SWIDTH 571 0
DWIDTH 11 0
BBX 5 14 2 0
BITMAP
003DF0
06EEF0
9F88F0
A509F0
0009F0
0009F0
0009F0
0009F0
0009F0
0009F0
0009F0
0009F0
0009F0
0009F0
ENDCHAR
STARTCHAR two
ENCODING 50
SWIDTH 571 0
DWIDTH 11 0
BBX 10 14 1 0
BITMAP
04AEFD9200
8FC869FE20
3600004F80
0000000EB0
0000000F90
0000005F50
000001DC00
00000BE200
0000BE3000
001BE30000
01BD200000
1CD2000000
CF98888883
FFFFFFFFF5
ENDCHAR
STARTCHAR three
ENCODING 51
SWIDTH 571 0
DWIDTH 11 0
BBX 11 14 0 0
BITMAP
006BEFDA3000
0BFB868EF400
03300003FA00
00000000EC00
00000003F900
0000026DC100
000EFFF91000
0005679ED300
00000001DD00
000000007F30
000000008F30
02000002EE00
1FB8679EF500
06BDFFD92000
ENDCHAR
STARTCHAR four
ENCODING 52
SWIDTH 571 0
DWIDTH 11 0
BBX 11 14 0 0
BITMAP
0000003FE000
000001DEE000
00000AC9E000
00006F39E000
0003E60AE000
001DA00AE000
009D100AE000
06F3000AE000
2E60000AE000
9FFFFFFFFFF0
4777777CE770
0000000AE000
0000000AE000
0000000AE000
ENDCHAR
STARTCHAR five
ENCODING 53
SWIDTH 571 0
DWIDTH 11 0
BBX 10 14 1 0
BITMAP
0DFFFFFF40
0EC8888820
1F70000000
2F60000000
3F40000000
5FDEFEA300
188679EF50
0000002EE0
00000008F3
00000006F4
00000009F2
2000003EB0
BC977AFE20
4BEFFD8100
ENDCHAR
STARTCHAR six
ENCODING 54
SWIDTH 571 0
DWIDTH 11 0
BBX 10 14 1 0
BITMAP
0005AEFE50
00AFB76730
08F5000000
1F80000000
6F20000000
AE2AEFD700
CDD955AF90
DF600009F2
CD000004F6
BD000003F6
8F200005F5
2FA0000BE1
07FC77CF60
005CEEC500
ENDCHAR
STARTCHAR seven
ENCODING 55
SWIDTH 571 0
DWIDTH 11 0
BBX 11 14 0 0
BITMAP
1FFFFFFFFF60
18888888BF50
00000000CD00
00000004F600
0000000BE000
0000003F7000
000000AE1000
000002F80000
000009F20000
00002FA00000
00008F300000
0001EB000000
0008F4000000
001EC0000000
ENDCHAR
STARTCHAR eight
ENCODING 56
SWIDTH 571 0
DWIDTH 11 0
BBX 10 14 1 0
BITMAP
018DEEB400
1DE856CF60
6F50001DC0
7F20000BD0
4F70002E90
09F925DC10
007FFFA000
06EC7CFA10
5F80005EB0
DC000007F4
EA000004F6
CE100009F3
4FD756BF90
03AEFEB500
ENDCHAR
STARTCHAR nine
ENCODING 57
SWIDTH 571 0
DWIDTH 11 0
BBX 10 14 1 0
BITMAP
018DFD8100
1DF979ED10
8F50003F90
DC000009E0
EA000005F3
EB000005F5
AF20001CF5
3FE757DBF4
03BEEC56F2
0000000AE0
0000001E90
000001BE20
07668EE400
0CFED82000
ENDCHAR
STARTCHAR colon
ENCODING 58
SWIDTH 266 0
DWIDTH 5 0
BBX 3 11 1 0
BITMAP
4E80
7FC0
2940
0000
0000
0000
0000
0000
2940
7FC0
4E80
ENDCHAR
STARTCHAR semicolon
ENCODING 59
SWIDTH 266 0
DWIDTH 5 0
BBX 4 14 0 -3
BITMAP
05E8
08FB
0294
0000
0000
0000
0000
0000
0000
07F7
09F3
0CD0
1F70
4E10
ENDCHAR
STARTCHAR less
ENCODING 60
SWIDTH 571 0
DWIDTH 11 0
BBX 10 10 1 2
BITMAP
0000000185
0000018ED4
00017ED600
017ED60000
7ED5000000
EF71000000
17DF930000
0005CFB500
000004AFD4
0000000296
ENDCHAR
STARTCHAR equal
ENCODING 61
SWIDTH 571 0
DWIDTH 11 0
BBX 10 6 1 4
BITMAP
DFFFFFFFF4
4555555551
0000000000
0000000000
4555555551
DFFFFFFFF4
ENDCHAR
STARTCHAR greater
ENCODING 62
SWIDTH 571 0
DWIDTH 11 0
BBX 10 10 1 2
BITMAP
B400000000
BFB3000000
03BFB30000
0003AFA300
000003AFA2
0000004CF5
00016DFA30
029EE82000
BFD7100000
C500000000
ENDCHAR
STARTCHAR question
ENCODING 63
SWIDTH 429 0
DWIDTH 9 0
BBX 8 14 0 0
BITMAP
28CEEC60
8EA88CF8
110000CE
0000008F
000000CC
000009F4
0001BE40
000AE300
001F5000
002F1000
00000000
00393000
009FA000
006E6000
ENDCHAR
STARTCHAR at
ENCODING 64
SWIDTH 898 0
DWIDTH 18 0
BBX 16 16 1 -2
BITMAP
000017BEFEC71000
0006EE86458DE500
008F700000008F40
05F40000000009E0
0E90019DFEB401F5
5F200CE646F500B9
9C006F3002F5009B
BA00AC0003F4008B
C900BB0005F300AA
B9009D0009F301E5
9C004F947EBA4AD0
6F2005DEC32CEB20
1E90000000000000
05F8000000000000
005EE85457BD0000
00017BEFEC940000
ENDCHAR
STARTCHAR A
ENCODING 65
SWIDTH 632 0
DWIDTH 13 0
BBX 13 14 0 0
BITMAP
000008F4000000
00000EFA000000
00006F8F100000
0000CC2F700000
0003F60BD00000
0009E105F40000
001E9000EA0000
006F30008F1000
00CFFFFFFF7000
03FA88888DD000
09F1000007F400
1EA0000001FA00
6F40000000AF10
CD000000004F70
ENDCHAR
STARTCHAR B
ENCODING 66
SWIDTH 647 0
DWIDTH 13 0
BBX 10 14 2 0
BITMAP
FFFFFEB700
FC7778CFB0
F900000BF3
F9000006F5
F9000008F3
F900026E90
FFFFFFE500
FC6668BF90
F9000006F7
F9000000FC
F9000001FC
F9000007F9
FC6668BFD1
FFFFFFD810
ENDCHAR
STARTCHAR C
ENCODING 67
SWIDTH 630 0
DWIDTH 13 0
BBX 11 14 1 0
BITMAP
00028CEEDA50
007FFB88AEA0
06FC20000010
1ED100000000
6F7000000000
9F2000000000
BF0000000000
BF0000000000
AF2000000000
7F6000000000
2FD100000000
09FB10000000
00AFEA889C70
0004ADFEDA40
ENDCHAR
STARTCHAR D
ENCODING 68
SWIDTH 729 0
DWIDTH 15 0
BBX 12 14 2 0
BITMAP
FFFFFEB71000
FC7779CFD300
F9000005EE20
F90000004FA0
F90000000CF1
F900000008F4
F900000006F5
F900000007F5
F900000008F3
F90000000DE0
F90000006F90
F9000006FD10
FC7779DFD200
FFFFEDA50000
ENDCHAR
STARTCHAR E
ENCODING 69
SWIDTH 556 0
DWIDTH 11 0
BBX 8 14 2 0
BITMAP
FFFFFFFE
FC777776
F9000000
F9000000
F9000000
F9000000
FFFFFFF8
FC777774
F9000000
F9000000
F9000000
F9000000
FC777777
FFFFFFFE
ENDCHAR
STARTCHAR F
ENCODING 70
SWIDTH 516 0
DWIDTH 10 0
BBX 8 14 2 0
BITMAP
FFFFFFFE
FC777776
F9000000
F9000000
F9000000
F9000000
F9000000
FFFFFFF8
FC777774
F9000000
F9000000
F9000000
F9000000
F9000000
ENDCHAR
STARTCHAR G
ENCODING 71
SWIDTH 728 0
DWIDTH 15 0
BBX 13 14 1 0
BITMAP
00017BDFEC9400
005EFC989BF900
04FD3000001100
1EE10000000000
5F700000000000
9F200000000000
BF000000000000
BF00000BFFFF10
AF20000577CF10
7F600000008F10
2FD10000008F10
08FB2000008F10
008FFB8789DF10
00039DEFEDA700
ENDCHAR
STARTCHAR H
ENCODING 72
SWIDTH 737 0
DWIDTH 15 0
BBX 11 14 2 0
BITMAP
F90000000DC0
F90000000DC0
F90000000DC0
F90000000DC0
F90000000DC0
F90000000DC0
FFFFFFFFFFC0
FC7777777EC0
F90000000DC0
F90000000DC0
F90000000DC0
F90000000DC0
F90000000DC0
F90000000DC0
ENDCHAR
STARTCHAR I
ENCODING 73
SWIDTH 278 0
DWIDTH 6 0
BBX 2 14 2 0
BITMAP
F9
F9
F9
F9
F9
F9
F9
F9
F9
F9
F9
F9
F9
F9
ENDCHAR
STARTCHAR J
ENCODING 74
SWIDTH 267 0
DWIDTH 5 0
BBX 6 18 -2 -4
BITMAP
0002F8
0002F8
0002F8
0002F8
0002F8
0002F8
0002F8
0002F8
0002F8
0002F8
0002F8
0002F8
0002F8
0002F8
0003F7
0006F5
589FD0
7FEA20
ENDCHAR
STARTCHAR K
ENCODING 75
SWIDTH 613 0
DWIDTH 12 0
BBX 11 14 2 0
BITMAP
F9000006F900
F900005FA000
F90004FA0000
F9003EB00000
F903EB100000
F92EC1000000
FBDFA0000000
FFBAF6000000
FB01DE300000
F9002ED10000
F90005FA0000
F900009F6000
F900000CF300
F9000002ED10
ENDCHAR
STARTCHAR L
ENCODING 76
SWIDTH 519 0
DWIDTH 10 0
BBX 8 14 2 0
BITMAP
F9000000
F9000000
F9000000
F9000000
F9000000
F9000000
F9000000
F9000000
F9000000
F9000000
F9000000
F9000000
FC888887
FFFFFFFE
ENDCHAR
STARTCHAR M
ENCODING 77
SWIDTH 902 0
DWIDTH 18 0
BBX 15 14 2 0
BITMAP
FFA000000009FF20
FEF10000001EEF20
F9F70000005F9F20
F7CD000000BB8F20
F76F300002F58F20
F71F900008E08F20
F80AE1000E908F20
F804F6005F308F20
F800DC00BC008F20
F8007F32F6008F20
F8002F98E1008F20
F8000AEE90008F20
F80005FF30008F20
F80000EC00008F20
ENDCHAR
STARTCHAR N
ENCODING 78
SWIDTH 753 0
DWIDTH 15 0
BBX 12 14 2 0
BITMAP
FF30000007F2
FFC0000007F2
FCF8000007F2
F6BF300007F2
F72EC00007F2
F706F80007F2
F700BF3007F2
F8002EC007F2
F80007F707F2
F80000BF36F2
F800002EC6F2
F8000007FCF2
F8000000CFF2
F80000002EF2
ENDCHAR
STARTCHAR O
ENCODING 79
SWIDTH 778 0
DWIDTH 16 0
BBX 14 14 1 0
BITMAP
0004ADFEC81000
00AFEA88BFE400
08FA100003DE20
2FC00000003FA0
7F500000000CF1
AF2000000008F4
BF0000000007F5
BF0000000007F5
AF2000000008F4
7F500000000CF1
2FC00000003FA0
09F9000003DE20
00AFE978BFE400
0004ADFEC81000
ENDCHAR
STARTCHAR P
ENCODING 80
SWIDTH 602 0
DWIDTH 12 0
BBX 9 14 2 0
BITMAP
FFFFED9200
FC778BFE30
F900005FB0
F900000CE0
F900000CF0
F900002EC0
F90015DF40
FFFFFFD400
FC66530000
F900000000
F900000000
F900000000
F900000000
F900000000
ENDCHAR
STARTCHAR Q
ENCODING 81
SWIDTH 778 0
DWIDTH 16 0
BBX 14 17 1 -3
BITMAP
0004ADFEC81000
00AFEA88BFE400
08FA100003DE20
2FC00000003FA0
7F500000000CF1
AF2000000008F4
BF0000000007F5
BF0000000007F5
AF2000000008F4
7F500000000CF1
2FC00000003FA0
09F9000003DE20
00AFE978BFE400
0004ADFFFA2000
00000003ED2000
000000004FD200
0000000005FD20
ENDCHAR
STARTCHAR R
ENCODING 82
SWIDTH 618 0
DWIDTH 12 0
BBX 10 14 2 0
BITMAP
FFFFFD9200
FC777AFE30
F900004FB0
F900000CE0
F900000BE0
F900001EB0
F90014CF40
FFFFFFC300
FC668F7000
F9000BF200
F90002FC00
F900007F60
F900000DE2
F9000004FA
ENDCHAR
STARTCHAR S
ENCODING 83
SWIDTH 548 0
DWIDTH 11 0
BBX 9 14 1 0
BITMAP
029DEEC930
2EFA89BF60
9F40000110
BE00000000
9F30000000
3FE6000000
04DFE82000
0005BFF900
000002AF80
0000000DE0
0000000BF0
1000002EB0
EC988AEE30
8CEFEC8100
ENDCHAR
STARTCHAR T
ENCODING 84
SWIDTH 553 0
DWIDTH 11 0
BBX 11 14 0 0
BITMAP
CFFFFFFFFFD0
67779FA77760
00004F500000
00004F500000
00004F500000
00004F500000
00004F500000
00004F500000
00004F500000
00004F500000
00004F500000
00004F500000
00004F500000
00004F500000
ENDCHAR
STARTCHAR U
ENCODING 85
SWIDTH 728 0
DWIDTH 15 0
BBX 12 14 1 0
BITMAP
3F70000000EB
3F70000000EB
3F70000000EB
3F70000000EB
3F70000000EB
3F70000000EB
3F70000000EB
3F70000000EB
3F70000000EB
2F80000000FB
0EC0000004F8
09F700001CF2
01CFC979EF60
0017CEFDA300
ENDCHAR
STARTCHAR V
ENCODING 86
SWIDTH 595 0
DWIDTH 12 0
BBX 12 14 0 0
BITMAP
CE00000001FB
7F50000006F5
1FA000000CE1
0BF100002F90
05F600008F40
01EB0000DD00
009F2004F800
004F7009F200
000DD00EC000
0008F34F6000
0002F79F1000
0000CBDA0000
00006FF50000
00001FE00000
ENDCHAR
STARTCHAR W
ENCODING 87
SWIDTH 925 0
DWIDTH 19 0
BBX 19 14 0 0
BITMAP
9F200000DF300000AF20
5F600002FF800000ED00
1FA00007FBD00002F900
0CE0000BC7F20006F400
08F3001F82F7000AF100
04F7005F40CC000EB000
00EB00AE008F103F7000
00BE00EA003F607F3000
006F44F5000DB0BE0000
002F77F10009E1EA0000
000DBBB00004F7F60000
0009DE700000ECF20000
0005FF200000AFD00000
0001FD0000005F900000
ENDCHAR
STARTCHAR X
ENCODING 88
SWIDTH 577 0
DWIDTH 12 0
BBX 12 14 0 0
BITMAP
4F8000001EC0
09F300009F20
01DC0004F700
004F701DC000
0009F28F2000
0001DCF70000
00005FD00000
0000BFF40000
0005F5CD1000
001EA03F8000
00AE2009F300
04F60001EC00
1DC000005F70
9F3000000BF3
ENDCHAR
STARTCHAR Y
ENCODING 89
SWIDTH 560 0
DWIDTH 11 0
BBX 12 14 0 0
BITMAP
BF2000000DD1
3F9000006F60
09F30001EC00
02FB0008F400
008F401EB000
001EC09F2000
0006F7F90000
0000DFE10000
00005F800000
00004F700000
00004F700000
00004F700000
00004F700000
00004F700000
ENDCHAR
STARTCHAR Z
ENCODING 90
SWIDTH 570 0
DWIDTH 11 0
BBX 11 14 0 0
BITMAP
0FFFFFFFFF60
07888888DF30
00000005F900
0000001ED100
000000AF3000
000005F80000
00001ED00000
0000AF300000
0005F8000000
001EC0000000
00AF30000000
06F800000000
1EF888888850
3FFFFFFFFF90
ENDCHAR
STARTCHAR bracketleft
ENCODING 91
SWIDTH 329 0
DWIDTH 7 0
BBX 6 17 1 -3
BITMAP
6FFFF1
6F8660
6F4000
6F4000
6F4000
6F4000
6F4000
6F4000
6F4000
6F4000
6F4000
6F4000
6F4000
6F4000
6F4000
6F8660
6FFFF1
ENDCHAR
STARTCHAR backslash
ENCODING 92
SWIDTH 367 0
DWIDTH 7 0
BBX 7 14 0 0
BITMAP
9E100000
3F600000
0DC00000
07F20000
01F80000
00AD0000
005F4000
000EA000
0008F100
0003F700
0000CC00
00006F30
00001F90
00000AE0
ENDCHAR
STARTCHAR bracketright
ENCODING 93
SWIDTH 329 0
DWIDTH 7 0
BBX 5 17 0 -3
BITMAP
8FFFF0
366CF0
000AF0
000AF0
000AF0
000AF0
000AF0
000AF0
000AF0
000AF0
000AF0
000AF0
000AF0
000AF0
000AF0
366CF0
8FFFF0
ENDCHAR
STARTCHAR asciicircum
ENCODING 94
SWIDTH 541 0
DWIDTH 11 0
BBX 11 9 0 5
BITMAP
00008E100000
0001EF700000
0007D6E10000
000E70D70000
006E106E1000
00D8000D8000
05F20006E100
0CA00000D900
4F3000006F20
ENDCHAR
STARTCHAR underscore
ENCODING 95
SWIDTH 448 0
DWIDTH 9 0
BBX 10 2 -1 -4
BITMAP
1FFFFFFFFF
0444444444
ENDCHAR
STARTCHAR grave
ENCODING 96
SWIDTH 577 0
DWIDTH 12 0
BBX 5 3 3 12
BITMAP
1DF200
02EB00
002D70
ENDCHAR
STARTCHAR a
ENCODING 97
SWIDTH 556 0
DWIDTH 11 0
BBX 9 11 1 0
BITMAP
039DEEA300
0AD868EE10
0100006F60
0000002F70
0000001F80
049CEEFF80
7FB6434F80
EC00003F80
FB0000AF80
BF967CDF80
19DFD91C80
ENDCHAR
STARTCHAR b
ENCODING 98
SWIDTH 612 0
DWIDTH 12 0
BBX 11 15 1 0
BITMAP
4F5000000000
4F5000000000
4F5000000000
4F5000000000
4F56DFEA2000
4FCE868ED100
4FE10003F900
4F800000CE00
4F6000009F10
4F5000008F20
4F600000AF10
4F900000CE00
4FE20004F800
4FBE868ED100
4E07DFE92000
ENDCHAR
STARTCHAR c
ENCODING 99
SWIDTH 476 0
DWIDTH 10 0
BBX 8 11 1 0
BITMAP
006CEED7
09FC77A7
4F900000
9F200000
CD000000
DC000000
CE000000
AF200000
4F900000
09FB77A9
006CEEC6
ENDCHAR
STARTCHAR d
ENCODING 100
SWIDTH 612 0
DWIDTH 12 0
BBX 10 15 1 0
BITMAP
00000001F8
00000001F8
00000001F8
00000001F8
008DFD82F8
0AFA67CCF8
5F90000BF8
AF200005F8
CE000002F8
DC000001F8
CD000002F8
AF100004F8
5F80000AF8
0BFA67CCF8
018DFD91D8
ENDCHAR
STARTCHAR e
ENCODING 101
SWIDTH 561 0
DWIDTH 11 0
BBX 10 11 1 0
BITMAP
006CFEB300
08FA67DF40
3F70001EC0
9E00000AF1
CFFFFFFFF2
DD55555551
CE00000000
9F40000000
3FC1000000
08FD878BB0
005BEFEB40
ENDCHAR
STARTCHAR f
ENCODING 102
SWIDTH 338 0
DWIDTH 7 0
BBX 8 15 0 0
BITMAP
0006CEE6
005FB673
00AE0000
00CC0000
6CFFEE80
35DD5530
00CC0000
00CC0000
00CC0000
00CC0000
00CC0000
00CC0000
00CC0000
00CC0000
00CC0000
ENDCHAR
STARTCHAR g
ENCODING 103
SWIDTH 547 0
DWIDTH 11 0
BBX 11 16 0 -5
BITMAP
003ADFFFFF70
03FC548FB200
09F10009F100
0BD00007F300
0AE10009F100
03FB437F9000
005FEEC60000
00C900000000
02F700000000
00AFFFFEA200
07E97779ED10
5F4000006F40
9F0000004F50
8F200000AF10
2ED6446CF600
029DFFDA3000
ENDCHAR
STARTCHAR h
ENCODING 104
SWIDTH 613 0
DWIDTH 12 0
BBX 10 15 1 0
BITMAP
4F50000000
4F50000000
4F50000000
4F50000000
4F56CFDA30
4FCE868EE2
4FE20004F7
4F800000FA
4F600000EA
4F500000EA
4F500000EA
4F500000EA
4F500000EA
4F500000EA
4F500000EA
ENDCHAR
STARTCHAR i
ENCODING 105
SWIDTH 252 0
DWIDTH 5 0
BBX 3 16 1 0
BITMAP
0200
5F60
4E50
0000
0000
4F50
4F50
4F50
4F50
4F50
4F50
4F50
4F50
4F50
4F50
4F50
ENDCHAR
STARTCHAR j
ENCODING 106
SWIDTH 252 0
DWIDTH 5 0
BBX 6 21 -2 -5
BITMAP
000020
0005F6
0004E5
000000
000000
0004F5
0004F5
0004F5
0004F5
0004F5
0004F5
0004F5
0004F5
0004F5
0004F5
0004F5
0004F5
0004F5
0006F4
176DE1
1DFC40
ENDCHAR
STARTCHAR k
ENCODING 107
SWIDTH 524 0
DWIDTH 11 0
BBX 10 15 1 0
BITMAP
4F50000000
4F50000000
4F50000000
4F50000000
4F50006F80
4F5004F900
4F503EA000
4F52EB0000
4F5CD10000
4FDFF40000
4FD4ED1000
4F505FB000
4F5008F700
4F5000CF30
4F50002ED1
ENDCHAR
STARTCHAR l
ENCODING 108
SWIDTH 252 0
DWIDTH 5 0
BBX 3 15 1 0
BITMAP
4F50
4F50
4F50
4F50
4F50
4F50
4F50
4F50
4F50
4F50
4F50
4F50
4F50
4F50
4F50
ENDCHAR
STARTCHAR m
ENCODING 109
SWIDTH 930 0
DWIDTH 19 0
BBX 16 11 1 0
BITMAP
4F15CFD7008DEC60
4F8D86BF7AC77CF7
4FD1000CFB0001EC
4F800008F50000AE
4F600007F30000AF
4F500007F20000AF
4F500007F20000AF
4F500007F20000AF
4F500007F20000AF
4F500007F20000AF
4F500007F20000AF
ENDCHAR
STARTCHAR n
ENCODING 110
SWIDTH 613 0
DWIDTH 12 0
BBX 10 11 1 0
BITMAP
4F26CEEB30
4FBE868EE2
4FE20004F7
4F800000FA
4F600000EA
4F500000EA
4F500000EA
4F500000EA
4F500000EA
4F500000EA
4F500000EA
ENDCHAR
STARTCHAR o
ENCODING 111
SWIDTH 604 0
DWIDTH 12 0
BBX 10 11 1 0
BITMAP
006CEEC600
09FB66BF90
4F900008F4
9F100001FA
CD000000DD
DC000000BE
CE000000DD
9F200001FA
3F900008F4
07FB66AF90
005BEEC600
ENDCHAR
STARTCHAR p
ENCODING 112
SWIDTH 612 0
DWIDTH 12 0
BBX 11 16 1 -5
BITMAP
4F26CFEA2000
4FBE869FD100
4FE10005F900
4F800000DE00
4F600000AF10
4F5000008F20
4F600000AF10
4F900000DE00
4FE20005F900
4FCE868FD100
4F47DFE92000
4F5000000000
4F5000000000
4F5000000000
4F5000000000
4F5000000000
ENDCHAR
STARTCHAR q
ENCODING 113
SWIDTH 612 0
DWIDTH 12 0
BBX 10 16 1 -5
BITMAP
007DFD81C8
0AFA67CCE8
4F90000BF8
AF200005F8
CE000002F8
DC000001F8
CD000002F8
AF100004F8
5F80000BF8
0BFA67CCF8
018DFD82F8
00000001F8
00000001F8
00000001F8
00000001F8
00000001F8
ENDCHAR
STARTCHAR r
ENCODING 114
SWIDTH 408 0
DWIDTH 8 0
BBX 7 11 1 0
BITMAP
4F23CFB0
4F6EA760
4FF50000
4FB00000
4F700000
4F500000
4F500000
4F500000
4F500000
4F500000
4F500000
ENDCHAR
STARTCHAR s
ENCODING 115
SWIDTH 477 0
DWIDTH 10 0
BBX 8 11 1 0
BITMAP
06CEED92
9F9669D1
EA000000
DD100000
5FE93000
029EFB30
00016EF3
000002F8
000001F8
C9757DF3
7CEFDA30
ENDCHAR
STARTCHAR t
ENCODING 116
SWIDTH 353 0
DWIDTH 7 0
BBX 7 13 0 0
BITMAP
00A70000
01E70000
6DFFFF80
36F94420
02F70000
02F70000
02F70000
02F70000
02F70000
02F70000
01F90000
00BF8650
002BEE80
ENDCHAR
STARTCHAR u
ENCODING 117
SWIDTH 613 0
DWIDTH 12 0
BBX 10 11 1 0
BITMAP
6F400001F8
6F400001F8
6F400001F8
6F400001F8
6F400001F8
6F400001F8
6F400002F8
5F500004F8
3F90000BF8
0CF967CBF8
019DFD81D8
ENDCHAR
STARTCHAR v
ENCODING 118
SWIDTH 500 0
DWIDTH 10 0
BBX 10 11 0 0
BITMAP
CE000000DC
7F400004F7
1F900009F2
0BE0000EB0
05F5005F50
00EA00AE10
009F11F900
003F65F400
000DAAD000
0007EE8000
0002FF2000
ENDCHAR
STARTCHAR w
ENCODING 119
SWIDTH 777 0
DWIDTH 16 0
BBX 16 11 0 0
BITMAP
AF10004FD00007F3
6F40008FF2000BE0
2F8000D9F7000EA0
0DC003F5CB003F60
09F107F18F107F20
05F40CB03F50BD00
01F82F600EA0E900
00CC6F2009E4F500
008FAC0005FAF100
004FF70001EFC000
000EF30000BF8000
ENDCHAR
STARTCHAR x
ENCODING 120
SWIDTH 523 0
DWIDTH 10 0
BBX 10 11 0 0
BITMAP
2EB00004F8
06F6001DC0
00AE209F30
001EB4F700
0005FFB000
0000DF5000
0007FDD100
003F92EA00
01DD107F50
09F4000BE2
4F800002EB
ENDCHAR
STARTCHAR y
ENCODING 121
SWIDTH 503 0
DWIDTH 10 0
BBX 10 16 0 -5
BITMAP
CE000000DD
6F500003F8
1EA00008F2
09F1000DC0
04F6004F60
00DC009F10
007F20EA00
001F84F500
000AC9E000
0004FE9000
0000DF3000
0000CD0000
0003F70000
000AF10000
56AF700000
BFD6000000
ENDCHAR
STARTCHAR z
ENCODING 122
SWIDTH 467 0
DWIDTH 9 0
BBX 9 11 0 0
BITMAP
0DFFFFFF60
034444BF40
000003F900
00000DD100
00008F4000
0004F80000
001DD00000
009F300000
04F7000000
1DE4444420
3FFFFFFF80
ENDCHAR
STARTCHAR braceleft
ENCODING 123
SWIDTH 378 0
DWIDTH 8 0
BBX 7 17 0 -3
BITMAP
00006CD0
0008FA50
000EC000
000FA000
000FA000
000FA000
001F9000
14BE3000
6FD30000
14BE3000
002F9000
000FA000
000FA000
000FA000
000EC000
0008FA50
00006CD0
ENDCHAR
STARTCHAR bar
ENCODING 124
SWIDTH 550 0
DWIDTH 11 0
BBX 3 20 4 -5
BITMAP
3F30
3F30
3F30
3F30
3F30
3F30
3F30
3F30
3F30
3F30
3F30
3F30
3F30
3F30
3F30
3F30
3F30
3F30
3F30
3F30
ENDCHAR
STARTCHAR braceright
ENCODING 125
SWIDTH 378 0
DWIDTH 8 0
BBX 7 17 0 -3
BITMAP
4DA30000
27DE2000
004F7000
001F8000
001F8000
001F8000
000FA000
0009F730
00008FF0
0009F730
000FA000
001F8000
001F8000
001F8000
004F7000
27DE2000
4EA30000
ENDCHAR
STARTCHAR asciitilde
ENCODING 126
SWIDTH 571 0
DWIDTH 11 0
BBX 10 2 1 6
BITMAP
7DFEC866A6
C767ADFEA2
ENDCHAR
STARTCHAR nonbreakingspace
ENCODING 160
SWIDTH 259 0
DWIDTH 5 0
BBX 1 1 0 0
BITMAP
00
ENDCHAR
STARTCHAR exclamdown
ENCODING 161
SWIDTH 267 0
DWIDTH 5 0
BBX 3 15 1 -4
BITMAP
4E80
7FC0
2940
0000
0D30
0E30
0F40
0F50
1F50
2F60
2F70
3F70
4F80
4F90
5FA0
ENDCHAR
STARTCHAR cent
ENCODING 162
SWIDTH 571 0
DWIDTH 11 0
BBX 9 14 1 0
BITMAP
00004F1000
00004F1000
0018DFEC50
02DFA78B40
09F4000000
0EB0000000
1F90000000
1F90000000
0FB0000000
0AF4000000
03EFA78B70
002AEFEB40
00004F0000
00004F0000
ENDCHAR
STARTCHAR sterling
ENCODING 163
SWIDTH 571 0
DWIDTH 11 0
BBX 11 14 0 0
BITMAP
00007DFEB600
000AFA67BD00
002F90000000
005F50000000
006F40000000
006F40000000
006F40000000
5FFFFFFF6000
148F74441000
006F40000000
006F30000000
00AD00000000
29FA88888850
6FFFFFFFFFA0
ENDCHAR
STARTCHAR currency
ENCODING 164
SWIDTH 571 0
DWIDTH 11 0
BBX 10 10 1 2
BITMAP
2300000150
8E7BED8BD1
0BF946DF30
0D80002E40
2F20000A80
2F20000A90
0D80002E50
0BF946DF20
8E7CED8CD1
2400000150
ENDCHAR
STARTCHAR yen
ENCODING 165
SWIDTH 571 0
DWIDTH 11 0
BBX 11 14 0 0
BITMAP
6F5000000DC0
0CD000007F40
04F60001EA00
00AE1008E200
002F802F7000
0008F2AD1000
0001ECF50000
03FFFFFFF900
01445F944200
00001F800000
03FFFFFFF900
01445F944200
00001F800000
00001F800000
ENDCHAR
STARTCHAR brokenbar
ENCODING 166
SWIDTH 550 0
DWIDTH 11 0
BBX 3 20 4 -5
BITMAP
3F30
3F30
3F30
3F30
3F30
3F30
3F30
3F30
0000
0000
0000
0000
3F30
3F30
3F30
3F30
3F30
3F30
3F30
3F30
ENDCHAR
STARTCHAR section
ENCODING 167
SWIDTH 516 0
DWIDTH 10 0
BBX 8 15 1 0
BITMAP
05BEFEB5
4FA557A6
8F100000
5FA20000
07FFB500
1DB6BFC2
8E0003EB
9E00008E
4FB200BB
05DFBBE3
0005BFD3
000003EC
000000BD
BA6559F8
6CEFEB60
ENDCHAR
STARTCHAR dieresis
ENCODING 168
SWIDTH 577 0
DWIDTH 12 0
BBX 6 2 3 13
BITMAP
C902E5
B902D5
ENDCHAR
STARTCHAR copyright
ENCODING 169
SWIDTH 832 0
DWIDTH 17 0
BBX 15 14 1 0
BITMAP
00016BDEDA400000
004DB52137DA1000
04E500000009D100
1E4007DFEA00AA00
79008F8467001E20
C301F80000000970
E104F40000000690
E104F40000000690
C401F80000000970
79009F8457001E20
1E4008DFD8009A00
04E500000009D100
004DB52137DB1000
00016BEFDA400000
ENDCHAR
STARTCHAR ordfeminine
ENCODING 170
SWIDTH 354 0
DWIDTH 7 0
BBX 7 7 0 7
BITMAP
08DFD500
04207E00
00001F10
06CDDF20
3F302F20
4E218F20
0AED7E20
ENDCHAR
STARTCHAR guillemotleft
ENCODING 171
SWIDTH 497 0
DWIDTH 10 0
BBX 9 8 0 1
BITMAP
0005C106B0
003E904F70
02EB03E900
1CD12EB000
1CD12EB000
02EB03E900
003E904F70
0005C106B0
ENDCHAR
STARTCHAR logicalnot
ENCODING 172
SWIDTH 571 0
DWIDTH 11 0
BBX 10 5 1 3
BITMAP
FFFFFFFFF6
55555555E6
00000000E6
00000000E6
00000000E6
ENDCHAR
STARTCHAR uni00AD
ENCODING 173
SWIDTH 321 0
DWIDTH 6 0
BBX 6 2 0 4
BITMAP
3FFFF9
177774
ENDCHAR
STARTCHAR registered
ENCODING 174
SWIDTH 832 0
DWIDTH 17 0
BBX 15 14 1 0
BITMAP
00016BDEDA400000
004DB52137DA1000
04E500000009D100
1E406FFEC500AA00
79006F44AF101E20
C3006F103F400970
E1006F119F100690
E1006FFFE4000690
C4006F47F4000970
79006F10AD101E20
1E406F101DA09A00
04E500000009D100
004DB52137DB1000
00016BEFDA400000
ENDCHAR
STARTCHAR overscore
ENCODING 175
SWIDTH 500 0
DWIDTH 10 0
BBX 12 2 -1 14
BITMAP
1FFFFFFFFFF1
044444444440
ENDCHAR
STARTCHAR degree
ENCODING 176
SWIDTH 428 0
DWIDTH 9 0
BBX 7 6 1 8
BITMAP
06DEB200
5E539D00
A7000E30
A7000D40
5E529D00
06DEB200
ENDCHAR
STARTCHAR plusminus
ENCODING 177
SWIDTH 571 0
DWIDTH 11 0
BBX 10 13 1 0
BITMAP
0000310000
0000F60000
0000F60000
0000F60000
0000F60000
FFFFFFFFF6
5555F95552
0000F60000
0000F60000
0000F60000
0000730000
FFFFFFFFF6
5555555552
ENDCHAR
STARTCHAR twosuperior
ENCODING 178
SWIDTH 347 0
DWIDTH 7 0
BBX 7 9 0 5
BITMAP
08DEC300
2B42AD00
00004F10
00007D00
0003E400
002E6000
02E60000
2E933310
8FFFFF60
ENDCHAR
STARTCHAR threesuperior
ENCODING 179
SWIDTH 347 0
DWIDTH 7 0
BBX 7 9 0 5
BITMAP
29EEC400
4942AE00
00004F10
0002AA00
06FFE500
00128F30
00001F50
65228E10
6CEEB300
ENDCHAR
STARTCHAR acute
ENCODING 180
SWIDTH 577 0
DWIDTH 12 0
BBX 5 3 3 12
BITMAP
009F60
04F800
1D8000
ENDCHAR
STARTCHAR mu
ENCODING 181
SWIDTH 619 0
DWIDTH 12 0
BBX 10 16 1 -5
BITMAP
4F500000EA
4F500000EA
4F500000EA
4F500000EA
4F500000EA
4F500000EA
4F500000FA
4F600003FA
4FA00009FA
4FFA67BEEA
4F7CEEA2BA
4F50000000
4F50000000
4F50000000
4F50000000
4F50000000
ENDCHAR
STARTCHAR paragraph
ENCODING 182
SWIDTH 654 0
DWIDTH 13 0
BBX 10 18 1 -3
BITMAP
02AEFFFFFE
1EFFFFB03E
7FFFFFB03E
BFFFFFB03E
DFFFFFB03E
DFFFFFB03E
CFFFFFB03E
8FFFFFB03E
2EFFFFB03E
03BEEEB03E
000006B03E
000006B03E
000006B03E
000006B03E
000006B03E
000006B03E
000006B03E
000006B03E
ENDCHAR
STARTCHAR periodcentered
ENCODING 183
SWIDTH 266 0
DWIDTH 5 0
BBX 3 3 1 5
BITMAP
4E80
7FC0
2940
ENDCHAR
STARTCHAR cedilla
ENCODING 184
SWIDTH 227 0
DWIDTH 5 0
BBX 5 5 0 -5
BITMAP
04C000
08E800
003F30
116F20
9FD500
ENDCHAR
STARTCHAR onesuperior
ENCODING 185
SWIDTH 347 0
DWIDTH 7 0
BBX 5 9 0 5
BITMAP
006FB0
09EBB0
1B29B0
0009B0
0009B0
0009B0
0009B0
0009B0
0009B0
ENDCHAR
STARTCHAR ordmasculine
ENCODING 186
SWIDTH 375 0
DWIDTH 8 0
BBX 7 7 0 7
BITMAP
02BED700
0D813D50
3E0007B0
5D0005C0
3E0007B0
0C813D50
02BED700
ENDCHAR
STARTCHAR guillemotright
ENCODING 187
SWIDTH 497 0
DWIDTH 10 0
BBX 9 8 0 1
BITMAP
1B502C4000
08F40AE200
00AE20CD10
001CD11DC0
001CD12DC0
00AE21CD10
08F40AE200
1B502C4000
ENDCHAR
STARTCHAR onequarter
ENCODING 188
SWIDTH 779 0
DWIDTH 16 0
BBX 15 14 0 0
BITMAP
006FA000001E5000
09EBA00000AB0000
1B29A00004E20000
0009A0001D700000
0009A0008C000000
0009A003F305F500
0009A00C901DF500
0009A07D10A8F500
0009A2E505D2F500
00000BA01E41F500
00005E20AA01F500
0001E600FFFFFF80
0009C0002223F610
003F30000001F500
ENDCHAR
STARTCHAR onehalf
ENCODING 189
SWIDTH 779 0
DWIDTH 16 0
BBX 15 14 0 0
BITMAP
009F600000BA0000
2CCD600005E20000
3A1D60001E600000
000D60009C000000
000D6003F3000000
000D600C85CFD500
000D607D1B626F20
000D62F400000F50
000D6BA000003F20
00006E100001C800
0001E600001CA000
0009B00001BA0000
004F20001BC33320
00D800004FFFFFA0
ENDCHAR
STARTCHAR threequarters
ENCODING 190
SWIDTH 779 0
DWIDTH 16 0
BBX 16 14 0 0
BITMAP
2AEEC3000002F400
4942BD00000C9000
00005F00006E1000
0002B90001E50000
07FFE4000AB00000
00128F204E209F10
00001F41D704EF10
75229E18C01D8F10
6DEEB33F308A5F10
000000C903E15F10
000007D10C605F10
00002E503FFFFFF5
0000AA0002226F31
0005E20000005F10
ENDCHAR
STARTCHAR questiondown
ENCODING 191
SWIDTH 429 0
DWIDTH 9 0
BBX 9 15 0 -4
BITMAP
0000CD1000
0001FF3000
0000780000
0000000000
00008B0000
0000BA0000
0005F60000
005FA00000
05FA000000
1EB0000000
6F30000000
7F20000000
5F60000100
0DF978BF20
019DFDB610
ENDCHAR
STARTCHAR Agrave
ENCODING 192
SWIDTH 632 0
DWIDTH 13 0
BBX 13 18 0 0
BITMAP
0008F800000000
0000AF20000000
000009C0000000
00000000000000
000008F4000000
00000EFA000000
00006F8F100000
0000CC2F700000
0003F60BD00000
0009E105F40000
001E9000EA0000
006F30008F1000
00CFFFFFFF7000
03FA88888DD000
09F1000007F400
1EA0000001FA00
6F40000000AF10
CD000000004F70
ENDCHAR
STARTCHAR Aacute
ENCODING 193
SWIDTH 632 0
DWIDTH 13 0
BBX 13 18 0 0
BITMAP
0000005FB00000
000001DC100000
00000AB1000000
00000000000000
000008F4000000
00000EFA000000
00006F8F100000
0000CC2F700000
0003F60BD00000
0009E105F40000
001E9000EA0000
006F30008F1000
00CFFFFFFF7000
03FA88888DD000
09F1000007F400
1EA0000001FA00
6F40000000AF10
CD000000004F70
ENDCHAR
STARTCHAR Acircumflex
ENCODING 194
SWIDTH 632 0
DWIDTH 13 0
BBX 13 18 0 0
BITMAP
00001DF6000000
0000BDAF400000
000BB106E40000
00000000000000
000008F4000000
00000EFA000000
00006F8F100000
0000CC2F700000
0003F60BD00000
0009E105F40000
001E9000EA0000
006F30008F1000
00CFFFFFFF7000
03FA88888DD000
09F1000007F400
1EA0000001FA00
6F40000000AF10
CD000000004F70
ENDCHAR
STARTCHAR Atilde
ENCODING 195
SWIDTH 632 0
DWIDTH 13 0
BBX 13 18 0 0
BITMAP
0006EC203C0000
001E7BE7B80000
004B007EB10000
00000000000000
000008F4000000
00000EFA000000
00006F8F100000
0000CC2F700000
0003F60BD00000
0009E105F40000
001E9000EA0000
006F30008F1000
00CFFFFFFF7000
03FA88888DD000
09F1000007F400
1EA0000001FA00
6F40000000AF10
CD000000004F70
ENDCHAR
STARTCHAR Adieresis
ENCODING 196
SWIDTH 632 0
DWIDTH 13 0
BBX 13 18 0 0
BITMAP
0004E308C00000
0004E308C00000
00000000000000
00000000000000
000008F4000000
00000EFA000000
00006F8F100000
0000CC2F700000
0003F60BD00000
0009E105F40000
001E9000EA0000
006F30008F1000
00CFFFFFFF7000
03FA88888DD000
09F1000007F400
1EA0000001FA00
6F40000000AF10
CD000000004F70
ENDCHAR
STARTCHAR Aring
ENCODING 197
SWIDTH 632 0
DWIDTH 13 0
BBX 13 17 0 0
BITMAP
00003DEA000000
0000B50B600000
0000B50B600000
00003FFE000000
00000EFA000000
00006F8F100000
0000CC2F700000
0003F60BD00000
0009E105F40000
001E9000EA0000
006F30008F1000
00CFFFFFFF7000
03FA88888DD000
09F1000007F400
1EA0000001FA00
6F40000000AF10
CD000000004F70
ENDCHAR
STARTCHAR AE
ENCODING 198
SWIDTH 873 0
DWIDTH 17 0
BBX 17 14 0 0
BITMAP
0000007FFFFFFFFF40
000000EC8FC7777720
000006F41F90000000
00000DC01F90000000
00006F401F90000000
0000DC001F90000000
0006F5001FFFFFFD00
000DC0001FC7777600
005FFFFFFF90000000
00CE88888F90000000
05F600001F90000000
0CE000001F90000000
4F7000001FC7777720
CE1000001FFFFFFF40
ENDCHAR
STARTCHAR Ccedilla
ENCODING 199
SWIDTH 630 0
DWIDTH 13 0
BBX 11 19 1 -5
BITMAP
00028CEEDA50
007FFB88AEA0
06FC20000010
1ED100000000
6F7000000000
9F2000000000
BF0000000000
BF0000000000
AF2000000000
7F6000000000
2FD100000000
09FB10000000
00AFEA889C70
0004ADFEDA40
000004C00000
000008E80000
0000003F3000
0000115F2000
00009FD60000
ENDCHAR
STARTCHAR Egrave
ENCODING 200
SWIDTH 556 0
DWIDTH 11 0
BBX 8 18 2 0
BITMAP
09F60000
00BE1000
000AB000
00000000
FFFFFFFE
FC777776
F9000000
F9000000
F9000000
F9000000
FFFFFFF8
FC777774
F9000000
F9000000
F9000000
F9000000
FC777777
FFFFFFFE
ENDCHAR
STARTCHAR Eacute
ENCODING 201
SWIDTH 556 0
DWIDTH 11 0
BBX 8 18 2 0
BITMAP
0001EE20
0009E300
005E3000
00000000
FFFFFFFE
FC777776
F9000000
F9000000
F9000000
F9000000
FFFFFFF8
FC777774
F9000000
F9000000
F9000000
F9000000
FC777777
FFFFFFFE
ENDCHAR
STARTCHAR Ecircumflex
ENCODING 202
SWIDTH 556 0
DWIDTH 11 0
BBX 8 18 2 0
BITMAP
005FE100
03EADC10
3E701AC1
00000000
FFFFFFFE
FC777776
F9000000
F9000000
F9000000
F9000000
FFFFFFF8
FC777774
F9000000
F9000000
F9000000
F9000000
FC777777
FFFFFFFE
ENDCHAR
STARTCHAR Edieresis
ENCODING 203
SWIDTH 556 0
DWIDTH 11 0
BBX 8 18 2 0
BITMAP
09C00D70
09B00D70
00000000
00000000
FFFFFFFE
FC777776
F9000000
F9000000
F9000000
F9000000
FFFFFFF8
FC777774
F9000000
F9000000
F9000000
F9000000
FC777777
FFFFFFFE
ENDCHAR
STARTCHAR Igrave
ENCODING 204
SWIDTH 278 0
DWIDTH 6 0
BBX 4 18 0 0
BITMAP
AF50
1CD1
01BA
0000
00F9
00F9
00F9
00F9
00F9
00F9
00F9
00F9
00F9
00F9
00F9
00F9
00F9
00F9
ENDCHAR
STARTCHAR Iacute
ENCODING 205
SWIDTH 278 0
DWIDTH 6 0
BBX 5 18 1 0
BITMAP
00AF50
05F700
1E6000
000000
0F9000
0F9000
0F9000
0F9000
0F9000
0F9000
0F9000
0F9000
0F9000
0F9000
0F9000
0F9000
0F9000
0F9000
ENDCHAR
STARTCHAR Icircumflex
ENCODING 206
SWIDTH 278 0
DWIDTH 6 0
BBX 7 18 -1 0
BITMAP
007FD100
05FAEB00
4E502BB0
00000000
000F9000
000F9000
000F9000
000F9000
000F9000
000F9000
000F9000
000F9000
000F9000
000F9000
000F9000
000F9000
000F9000
000F9000
ENDCHAR
STARTCHAR Idieresis
ENCODING 207
SWIDTH 278 0
DWIDTH 6 0
BBX 6 18 0 0
BITMAP
BA02E5
B901D5
000000
000000
00F900
00F900
00F900
00F900
00F900
00F900
00F900
00F900
00F900
00F900
00F900
00F900
00F900
00F900
ENDCHAR
STARTCHAR Eth
ENCODING 208
SWIDTH 722 0
DWIDTH 14 0
BBX 14 14 0 0
BITMAP
00FFFFFEB60000
00FC7779DFC200
00F9000006FD10
00F90000007F80
00F90000000ED0
00F90000000AF1
8FFFFFF50009F3
47FC77720009F2
00F90000000BF1
00F90000001EC0
00F90000008F70
00F9000018FC00
00FC778AEFB100
00FFFFEDA40000
ENDCHAR
STARTCHAR Ntilde
ENCODING 209
SWIDTH 753 0
DWIDTH 15 0
BBX 12 18 2 0
BITMAP
002CE600C300
009A7FA7D000
00D103CE4000
000000000000
FF30000007F2
FFC0000007F2
FCF8000007F2
F6BF300007F2
F72EC00007F2
F706F80007F2
F700BF3007F2
F8002EC007F2
F80007F707F2
F80000BF36F2
F800002EC6F2
F8000007FCF2
F8000000CFF2
F80000002EF2
ENDCHAR
STARTCHAR Ograve
ENCODING 210
SWIDTH 778 0
DWIDTH 16 0
BBX 14 18 1 0
BITMAP
0000BF50000000
00001CD1000000
000001B9000000
00000000000000
0004ADFEC81000
00AFEA88BFE400
08FA100003DE20
2FC00000003FA0
7F500000000CF1
AF2000000008F4
BF0000000007F5
BF0000000007F5
AF2000000008F4
7F500000000CF1
2FC00000003FA0
09F9000003DE20
00AFE978BFE400
0004ADFEC81000
ENDCHAR
STARTCHAR Oacute
ENCODING 211
SWIDTH 778 0
DWIDTH 16 0
BBX 14 18 1 0
BITMAP
0000001EE10000
000000AE300000
000005E3000000
00000000000000
0004ADFEC81000
00AFEA88BFE400
08FA100003DE20
2FC00000003FA0
7F500000000CF1
AF2000000008F4
BF0000000007F5
BF0000000007F5
AF2000000008F4
7F500000000CF1
2FC00000003FA0
09F9000003DE20
00AFE978BFE400
0004ADFEC81000
ENDCHAR
STARTCHAR Ocircumflex
ENCODING 212
SWIDTH 778 0
DWIDTH 16 0
BBX 14 18 1 0
BITMAP
000008FC000000
00006F9EA00000
0005E502CA0000
00000000000000
0004ADFEC81000
00AFEA88BFE400
08FA100003DE20
2FC00000003FA0
7F500000000CF1
AF2000000008F4
BF0000000007F5
BF0000000007F5
AF2000000008F4
7F500000000CF1
2FC00000003FA0
09F9000003DE20
00AFE978BFE400
0004ADFEC81000
ENDCHAR
STARTCHAR Otilde
ENCODING 213
SWIDTH 778 0
DWIDTH 16 0
BBX 14 18 1 0
BITMAP
0001BE700B4000
0008B7EB7E1000
000C202BE50000
00000000000000
0004ADFEC81000
00AFEA88BFE400
08FA100003DE20
2FC00000003FA0
7F500000000CF1
AF2000000008F4
BF0000000007F5
BF0000000007F5
AF2000000008F4
7F500000000CF1
2FC00000003FA0
09F9000003DE20
00AFE978BFE400
0004ADFEC81000
ENDCHAR
STARTCHAR Odieresis
ENCODING 214
SWIDTH 778 0
DWIDTH 16 0
BBX 14 18 1 0
BITMAP
0000BA01D60000
0000AA01D60000
00000000000000
00000000000000
0004ADFEC81000
00AFEA88BFE400
08FA100003DE20
2FC00000003FA0
7F500000000CF1
AF2000000008F4
BF0000000007F5
BF0000000007F5
AF2000000008F4
7F500000000CF1
2FC00000003FA0
09F9000003DE20
00AFE978BFE400
0004ADFEC81000
ENDCHAR
STARTCHAR multiply
ENCODING 215
SWIDTH 571 0
DWIDTH 11 0
BBX 9 9 1 3
BITMAP
3900000480
4FA0004EA0
04FA04EA00
004FBEA000
0008FE0000
004FBFA000
04FA04FA00
4FA0004FA0
3900000480
ENDCHAR
STARTCHAR Oslash
ENCODING 216
SWIDTH 778 0
DWIDTH 16 0
BBX 14 14 1 0
BITMAP
0004ADFEC75D30
00AFEA88BFFB00
08FA10000CFE20
2FC000008F7FA0
7F500004F70CF1
AF20002EB008F4
BF0000BD1007F5
BF1008F30007F5
AF204F700008F4
7F62EA00000CF1
2FCCD100003FA0
09FF400003DE20
05FFE978BFE400
0A94ADEEC81000
ENDCHAR
STARTCHAR Ugrave
ENCODING 217
SWIDTH 728 0
DWIDTH 15 0
BBX 12 18 1 0
BITMAP
0003FC000000
00005F600000
000005E20000
000000000000
3F70000000EB
3F70000000EB
3F70000000EB
3F70000000EB
3F70000000EB
3F70000000EB
3F70000000EB
3F70000000EB
3F70000000EB
2F80000000FB
0EC0000004F8
09F700001CF2
01CFC979EF60
0017CEFDA300
ENDCHAR
STARTCHAR Uacute
ENCODING 218
SWIDTH 728 0
DWIDTH 15 0
BBX 12 18 1 0
BITMAP
0000009F6000
000003F80000
00001D800000
000000000000
3F70000000EB
3F70000000EB
3F70000000EB
3F70000000EB
3F70000000EB
3F70000000EB
3F70000000EB
3F70000000EB
3F70000000EB
2F80000000FB
0EC0000004F8
09F700001CF2
01CFC979EF60
0017CEFDA300
ENDCHAR
STARTCHAR Ucircumflex
ENCODING 219
SWIDTH 728 0
DWIDTH 15 0
BBX 12 18 1 0
BITMAP
00002EF40000
0001DDBE3000
001CA107E300
000000000000
3F70000000EB
3F70000000EB
3F70000000EB
3F70000000EB
3F70000000EB
3F70000000EB
3F70000000EB
3F70000000EB
3F70000000EB
2F80000000FB
0EC0000004F8
09F700001CF2
01CFC979EF60
0017CEFDA300
ENDCHAR
STARTCHAR Udieresis
ENCODING 220
SWIDTH 728 0
DWIDTH 15 0
BBX 12 18 1 0
BITMAP
0005E209C000
0004D208C000
000000000000
000000000000
3F70000000EB
3F70000000EB
3F70000000EB
3F70000000EB
3F70000000EB
3F70000000EB
3F70000000EB
3F70000000EB
3F70000000EB
2F80000000FB
0EC0000004F8
09F700001CF2
01CFC979EF60
0017CEFDA300
ENDCHAR
STARTCHAR Yacute
ENCODING 221
SWIDTH 560 0
DWIDTH 11 0
BBX 12 18 0 0
BITMAP
000002FD1000
00000BD20000
00007D200000
000000000000
BF2000000DD1
3F9000006F60
09F30001EC00
02FB0008F400
008F401EB000
001EC09F2000
0006F7F90000
0000DFE10000
00005F800000
00004F700000
00004F700000
00004F700000
00004F700000
00004F700000
ENDCHAR
STARTCHAR Thorn
ENCODING 222
SWIDTH 610 0
DWIDTH 12 0
BBX 10 14 2 0
BITMAP
F900000000
F900000000
FFFFED9200
FC778BFE30
F900005FC0
F900000BF1
F9000009F2
F900000AF1
F900001EC0
F90015CF40
FFFFFFD400
FC66530000
F900000000
F900000000
ENDCHAR
STARTCHAR germandbls
ENCODING 223
SWIDTH 622 0
DWIDTH 12 0
BBX 11 15 1 0
BITMAP
018DFED81000
0AFA769FC000
2F900008F300
4F500008F200
4F50006F8000
4F5008F70000
4F501F900000
4F500EB10000
4F5006FD3000
4F50003DF600
4F500001BF30
4F5000002F70
4F5000003F60
4F50C866DE20
4F508DEEB300
ENDCHAR
STARTCHAR agrave
ENCODING 224
SWIDTH 556 0
DWIDTH 11 0
BBX 9 15 1 0
BITMAP
01EE100000
003E900000
0003E50000
0000000000
039DEEA300
0AD868EE10
0100006F60
0000002F70
0000001F80
049CEEFF80
7FB6434F80
EC00003F80
FB0000AF80
BF967CDF80
19DFD91C80
ENDCHAR
STARTCHAR aacute
ENCODING 225
SWIDTH 556 0
DWIDTH 11 0
BBX 9 15 1 0
BITMAP
00003FC000
0000CD1000
0008C20000
0000000000
039DEEA300
0AD868EE10
0100006F60
0000002F70
0000001F80
049CEEFF80
7FB6434F80
EC00003F80
FB0000AF80
BF967CDF80
19DFD91C80
ENDCHAR
STARTCHAR acircumflex
ENCODING 226
SWIDTH 556 0
DWIDTH 11 0
BBX 9 15 1 0
BITMAP
000AFA0000
008F9F8000
07D303D700
0000000000
039DEEA300
0AD868EE10
0100006F60
0000002F70
0000001F80
049CEEFF80
7FB6434F80
EC00003F80
FB0000AF80
BF967CDF80
19DFD91C80
ENDCHAR
STARTCHAR atilde
ENCODING 227
SWIDTH 556 0
DWIDTH 11 0
BBX 9 15 1 0
BITMAP
02DD500D10
0B98F98C00
0E004CD300
0000000000
039DEEA300
0AD868EE10
0100006F60
0000002F70
0000001F80
049CEEFF80
7FB6434F80
EC00003F80
FB0000AF80
BF967CDF80
19DFD91C80
ENDCHAR
STARTCHAR adieresis
ENCODING 228
SWIDTH 556 0
DWIDTH 11 0
BBX 9 15 1 0
BITMAP
02E506D200
02D505D100
0000000000
0000000000
039DEEA300
0AD868EE10
0100006F60
0000002F70
0000001F80
049CEEFF80
7FB6434F80
EC00003F80
FB0000AF80
BF967CDF80
19DFD91C80
ENDCHAR
STARTCHAR aring
ENCODING 229
SWIDTH 556 0
DWIDTH 11 0
BBX 9 16 1 0
BITMAP
001AEC3000
006A06B000
006A06B000
001AEC3000
0000000000
039DEEA300
0AD868EE10
0100006F60
0000002F70
0000001F80
049CEEFF80
7FB6434F80
EC00003F80
FB0000AF80
BF967CDF80
19DFD91C80
ENDCHAR
STARTCHAR ae
ENCODING 230
SWIDTH 857 0
DWIDTH 17 0
BBX 17 11 0 0
BITMAP
005BEFD813BFFB4000
00EB769FBFC67CF400
00100009FC0001EC00
00000006F60000AF10
0029CEEFFFEEEEFF20
04FD7438F855555510
0DE10007F600000000
1FA00009F900000000
0EC0002FDF30000000
09F968EA2EE878BA00
018DFD70029EFEB400
ENDCHAR
STARTCHAR ccedilla
ENCODING 231
SWIDTH 476 0
DWIDTH 10 0
BBX 8 16 1 -5
BITMAP
006CEED7
09FC77A7
4F900000
9F200000
CD000000
DC000000
CE000000
AF200000
4F900000
09FB77A9
006CEEC6
0002D100
0006EA10
00001E60
00113F40
006FD700
ENDCHAR
STARTCHAR egrave
ENCODING 232
SWIDTH 561 0
DWIDTH 11 0
BBX 10 15 1 0
BITMAP
00AF600000
000BE10000
0001AB0000
0000000000
006CFEB300
08FA67DF40
3F70001EC0
9E00000AF1
CFFFFFFFF2
DD55555551
CE00000000
9F40000000
3FC1000000
08FD878BB0
005BEFEB40
ENDCHAR
STARTCHAR eacute
ENCODING 233
SWIDTH 561 0
DWIDTH 11 0
BBX 10 15 1 0
BITMAP
00000CF300
00007F5000
0003E50000
0000000000
006CFEB300
08FA67DF40
3F70001EC0
9E00000AF1
CFFFFFFFF2
DD55555551
CE00000000
9F40000000
3FC1000000
08FD878BB0
005BEFEB40
ENDCHAR
STARTCHAR ecircumflex
ENCODING 234
SWIDTH 561 0
DWIDTH 11 0
BBX 10 15 1 0
BITMAP
0006FD1000
004FADC100
03E601BB00
0000000000
006CFEB300
08FA67DF40
3F70001EC0
9E00000AF1
CFFFFFFFF2
DD55555551
CE00000000
9F40000000
3FC1000000
08FD878BB0
005BEFEB40
ENDCHAR
STARTCHAR edieresis
ENCODING 235
SWIDTH 561 0
DWIDTH 11 0
BBX 10 15 1 0
BITMAP
00AA01D600
00AA01D600
0000000000
0000000000
006CFEB300
08FA67DF40
3F70001EC0
9E00000AF1
CFFFFFFFF2
DD55555551
CE00000000
9F40000000
3FC1000000
08FD878BB0
005BEFEB40
ENDCHAR
STARTCHAR igrave
ENCODING 236
SWIDTH 252 0
DWIDTH 5 0
BBX 5 15 -1 0
BITMAP
2ED100
04F800
004E40
000000
004F50
004F50
004F50
004F50
004F50
004F50
004F50
004F50
004F50
004F50
004F50
ENDCHAR
STARTCHAR iacute
ENCODING 237
SWIDTH 252 0
DWIDTH 5 0
BBX 5 15 1 0
BITMAP
00CF40
06F500
2E5000
000000
4F5000
4F5000
4F5000
4F5000
4F5000
4F5000
4F5000
4F5000
4F5000
4F5000
4F5000
ENDCHAR
STARTCHAR icircumflex
ENCODING 238
SWIDTH 252 0
DWIDTH 5 0
BBX 7 15 -1 0
BITMAP
00AFA000
08F9F800
7D403D80
00000000
004F5000
004F5000
004F5000
004F5000
004F5000
004F5000
004F5000
004F5000
004F5000
004F5000
004F5000
ENDCHAR
STARTCHAR idieresis
ENCODING 239
SWIDTH 252 0
DWIDTH 5 0
BBX 7 15 -1 0
BITMAP
1D605E20
1D604D20
00000000
00000000
004F5000
004F5000
004F5000
004F5000
004F5000
004F5000
004F5000
004F5000
004F5000
004F5000
004F5000
ENDCHAR
STARTCHAR eth
ENCODING 240
SWIDTH 596 0
DWIDTH 12 0
BBX 10 15 1 0
BITMAP
001C501860
001AFBDE60
0003DFF300
007FB5EC10
0035004F80
00000009F2
018DFEB6F7
1CFA669FFB
7F500004FD
CE000000CE
DC000000BD
CE000000DB
7F600006F5
0BFA76AFA0
007CFEC700
ENDCHAR
STARTCHAR ntilde
ENCODING 241
SWIDTH 613 0
DWIDTH 12 0
BBX 10 15 1 0
BITMAP
004EC302D0
00D7AF8A90
03C006DC20
0000000000
4F26CEEB30
4FBE868EE2
4FE20004F7
4F800000FA
4F600000EA
4F500000EA
4F500000EA
4F500000EA
4F500000EA
4F500000EA
4F500000EA
ENDCHAR
STARTCHAR ograve
ENCODING 242
SWIDTH 604 0
DWIDTH 12 0
BBX 10 15 1 0
BITMAP
005FA00000
0007F40000
00007E1000
0000000000
006CEEC600
09FB66BF90
4F900008F4
9F100001FA
CD000000DD
DC000000BE
CE000000DD
9F200001FA
3F900008F4
07FB66AF90
005BEEC600
ENDCHAR
STARTCHAR oacute
ENCODING 243
SWIDTH 604 0
DWIDTH 12 0
BBX 10 15 1 0
BITMAP
00000BF400
00006F6000
0002E60000
0000000000
006CEEC600
09FB66BF90
4F900008F4
9F100001FA
CD000000DD
DC000000BE
CE000000DD
9F200001FA
3F900008F4
07FB66AF90
005BEEC600
ENDCHAR
STARTCHAR ocircumflex
ENCODING 244
SWIDTH 604 0
DWIDTH 12 0
BBX 10 15 1 0
BITMAP
0003EF3000
002DCBE200
01D9008D20
0000000000
006CEEC600
09FB66BF90
4F900008F4
9F100001FA
CD000000DD
DC000000BE
CE000000DD
9F200001FA
3F900008F4
07FB66AF90
005BEEC600
ENDCHAR
STARTCHAR otilde
ENCODING 245
SWIDTH 604 0
DWIDTH 12 0
BBX 10 15 1 0
BITMAP
008EA10690
03E6CD7D50
078008EA00
0000000000
006CEEC600
09FB66BF90
4F900008F4
9F100001FA
CD000000DD
DC000000BE
CE000000DD
9F200001FA
3F900008F4
07FB66AF90
005BEEC600
ENDCHAR
STARTCHAR odieresis
ENCODING 246
SWIDTH 604 0
DWIDTH 12 0
BBX 10 15 1 0
BITMAP
008D00C900
007D00B900
0000000000
0000000000
006CEEC600
09FB66BF90
4F900008F4
9F100001FA
CD000000DD
DC000000BE
CE000000DD
9F200001FA
3F900008F4
07FB66AF90
005BEEC600
ENDCHAR
STARTCHAR divide
ENCODING 247
SWIDTH 571 0
DWIDTH 11 0
BBX 10 9 1 3
BITMAP
0003E80000
0005FB0000
0000410000
0000000000
FFFFFFFFF6
5555555552
0000420000
0005FB0000
0003E80000
ENDCHAR
STARTCHAR oslash
ENCODING 248
SWIDTH 604 0
DWIDTH 12 0
BBX 10 11 1 0
BITMAP
005CEEC6C5
08FB67BFD1
4F90009FF4
9F1005F6FA
CD002EA0CD
DC00BD10BE
CD08F300DD
9F5F7001FA
3FFB0008F5
0CFB66AF90
3D7CEEC600
ENDCHAR
STARTCHAR ugrave
ENCODING 249
SWIDTH 613 0
DWIDTH 12 0
BBX 10 15 1 0
BITMAP
007F800000
0009F20000
00009C0000
0000000000
6F400001F8
6F400001F8
6F400001F8
6F400001F8
6F400001F8
6F400001F8
6F400002F8
5F500004F8
3F90000BF8
0CF967CBF8
019DFD81D8
ENDCHAR
STARTCHAR uacute
ENCODING 250
SWIDTH 613 0
DWIDTH 12 0
BBX 10 15 1 0
BITMAP
000007F800
00002FA000
0000C90000
0000000000
6F400001F8
6F400001F8
6F400001F8
6F400001F8
6F400001F8
6F400001F8
6F400002F8
5F500004F8
3F90000BF8
0CF967CBF8
019DFD81D8
ENDCHAR
STARTCHAR ucircumflex
ENCODING 251
SWIDTH 613 0
DWIDTH 12 0
BBX 10 15 1 0
BITMAP
0002EF4000
001DCBE300
01C9108D20
0000000000
6F400001F8
6F400001F8
6F400001F8
6F400001F8
6F400001F8
6F400001F8
6F400002F8
5F500004F8
3F90000BF8
0CF967CBF8
019DFD81D8
ENDCHAR
STARTCHAR udieresis
ENCODING 252
SWIDTH 613 0
DWIDTH 12 0
BBX 10 15 1 0
BITMAP
007D10BA00
006D10B900
0000000000
0000000000
6F400001F8
6F400001F8
6F400001F8
6F400001F8
6F400001F8
6F400001F8
6F400002F8
5F500004F8
3F90000BF8
0CF967CBF8
019DFD81D8
ENDCHAR
STARTCHAR yacute
ENCODING 253
SWIDTH 503 0
DWIDTH 10 0
BBX 10 20 0 -5
BITMAP
000006F900
00002EA000
0000CA0000
0000000000
CE000000DD
6F500003F8
1EA00008F2
09F1000DC0
04F6004F60
00DC009F10
007F20EA00
001F84F500
000AC9E000
0004FE9000
0000DF3000
0000CD0000
0003F70000
000AF10000
56AF700000
BFD6000000
ENDCHAR
STARTCHAR thorn
ENCODING 254
SWIDTH 612 0
DWIDTH 12 0
BBX 11 20 1 -5
BITMAP
4F5000000000
4F5000000000
4F5000000000
4F5000000000
4F56CFE92000
4FCE868ED100
4FD10004F900
4F800000CE00
4F6000009F10
4F5000008F20
4F6000009F10
4F900000CE00
4FE20004F800
4FCE868ED100
4F56DFE92000
4F5000000000
4F5000000000
4F5000000000
4F5000000000
4F5000000000
ENDCHAR
STARTCHAR ydieresis
ENCODING 255
SWIDTH 503 0
DWIDTH 10 0
BBX 10 20 0 -5
BITMAP
008D00C900
007D00B900
0000000000
0000000000
CE000000DD
6F500003F8
1EA00008F2
09F1000DC0
04F6004F60
00DC009F10
007F20EA00
001F84F500
000AC9E000
0004FE9000
0000DF3000
0000CD0000
0003F70000
000AF10000
56AF700000
BFD6000000
ENDCHAR
STARTCHAR Amacron
ENCODING 256
SWIDTH 632 0
DWIDTH 13 0
BBX 13 17 0 0
BITMAP
00025555520000
0007FFFFF60000
00000000000000
000008F4000000
00000EFA000000
00006F8F100000
0000CC2F700000
0003F60BD00000
0009E105F40000
001E9000EA0000
006F30008F1000
00CFFFFFFF7000
03FA88888DD000
09F1000007F400
1EA0000001FA00
6F40000000AF10
CD000000004F70
ENDCHAR
STARTCHAR amacron
ENCODING 257
SWIDTH 556 0
DWIDTH 11 0
BBX 9 14 1 0
BITMAP
0155555300
03FFFFFA00
0000000000
039DEEA300
0AD868EE10
0100006F60
0000002F70
0000001F80
049CEEFF80
7FB6434F80
EC00003F80
FB0000AF80
BF967CDF80
19DFD91C80
ENDCHAR
STARTCHAR Abreve
ENCODING 258
SWIDTH 632 0
DWIDTH 13 0
BBX 13 18 0 0
BITMAP
00096000C30000
0005E659D00000
00007DEB200000
00000000000000
000008F4000000
00000EFA000000
00006F8F100000
0000CC2F700000
0003F60BD00000
0009E105F40000
001E9000EA0000
006F30008F1000
00CFFFFFFF7000
03FA88888DD000
09F1000007F400
1EA0000001FA00
6F40000000AF10
CD000000004F70
ENDCHAR
STARTCHAR abreve
ENCODING 259
SWIDTH 556 0
DWIDTH 11 0
BBX 9 15 1 0
BITMAP
05A0008800
01E857E300
004CED5000
0000000000
039DEEA300
0AD868EE10
0100006F60
0000002F70
0000001F80
049CEEFF80
7FB6434F80
EC00003F80
FB0000AF80
BF967CDF80
19DFD91C80
ENDCHAR
STARTCHAR Aogonek
ENCODING 260
SWIDTH 632 0
DWIDTH 13 0
BBX 13 18 0 -4
BITMAP
000008F4000000
00000EFA000000
00006F8F100000
0000CC2F700000
0003F60BD00000
0009E105F40000
001E9000EA0000
006F30008F1000
00CFFFFFFF7000
03FA88888DD000
09F1000007F400
1EA0000001FA00
6F40000000AF10
CD000000005F70
0000000001D600
0000000007D000
0000000008E320
0000000002CF90
ENDCHAR
STARTCHAR aogonek
ENCODING 261
SWIDTH 556 0
DWIDTH 11 0
BBX 9 15 1 -4
BITMAP
039DEEA300
0AD868EE10
0100006F60
0000002F70
0000001F80
049CEEFF80
7FB6434F80
EC00003F80
FB0000AF80
BF967CDF80
19DFD91F90
0000008A00
000002F300
000003F630
000000AEE0
ENDCHAR
STARTCHAR Cacute
ENCODING 262
SWIDTH 630 0
DWIDTH 13 0
BBX 11 18 1 0
BITMAP
0000001ED100
000000AE3000
000005D30000
000000000000
00028CEEDA50
007FFB88AEA0
06FC20000010
1ED100000000
6F7000000000
9F2000000000
BF0000000000
BF0000000000
AF2000000000
7F6000000000
2FD100000000
09FB10000000
00AFEA889C70
0004ADFEDA40
ENDCHAR
STARTCHAR cacute
ENCODING 263
SWIDTH 476 0
DWIDTH 10 0
BBX 8 15 1 0
BITMAP
00001DE2
00008E40
0004E400
00000000
006CEED7
09FC77A7
4F900000
9F200000
CD000000
DC000000
CE000000
AF200000
4F900000
09FB77A9
006CEEC6
ENDCHAR
STARTCHAR Ccircumflex
ENCODING 264
SWIDTH 630 0
DWIDTH 13 0
BBX 11 18 1 0
BITMAP
000009FB0000
00007F9E9000
0006D403C900
000000000000
00028CEEDA50
007FFB88AEA0
06FC20000010
1ED100000000
6F7000000000
9F2000000000
BF0000000000
BF0000000000
AF2000000000
7F6000000000
2FD100000000
09FB10000000
00AFEA889C70
0004ADFEDA40
ENDCHAR
STARTCHAR ccircumflex
ENCODING 265
SWIDTH 476 0
DWIDTH 10 0
BBX 8 15 1 0
BITMAP
000BF900
009F9F70
08D304D7
00000000
006CEED7
09FC77A7
4F900000
9F200000
CD000000
DC000000
CE000000
AF200000
4F900000
09FB77A9
006CEEC6
ENDCHAR
STARTCHAR Cdot
ENCODING 266
SWIDTH 630 0
DWIDTH 13 0
BBX 11 18 1 0
BITMAP
000001D80000
000001D80000
000000000000
000000000000
00028CEEDA50
007FFB88AEA0
06FC20000010
1ED100000000
6F7000000000
9F2000000000
BF0000000000
BF0000000000
AF2000000000
7F6000000000
2FD100000000
09FB10000000
00AFEA889C70
0004ADFEDA40
ENDCHAR
STARTCHAR cdot
ENCODING 267
SWIDTH 476 0
DWIDTH 10 0
BBX 8 15 1 0
BITMAP
0001D800
0001D800
00000000
00000000
006CEED7
09FC77A7
4F900000
9F200000
CD000000
DC000000
CE000000
AF200000
4F900000
09FB77A9
006CEEC6
ENDCHAR
STARTCHAR Ccaron
ENCODING 268
SWIDTH 630 0
DWIDTH 13 0
BBX 11 18 1 0
BITMAP
0003E601BB00
00004FADC100
000006FD1000
000000000000
00028CEEDA50
007FFB88AEA0
06FC20000010
1ED100000000
6F7000000000
9F2000000000
BF0000000000
BF0000000000
AF2000000000
7F6000000000
2FD100000000
09FB10000000
00AFEA889C70
0004ADFEDA40
ENDCHAR
STARTCHAR ccaron
ENCODING 269
SWIDTH 476 0
DWIDTH 10 0
BBX 8 15 1 0
BITMAP
04E601BB
004FADB1
0006FD10
00000000
006CEED7
09FC77A7
4F900000
9F200000
CD000000
DC000000
CE000000
AF200000
4F900000
09FB77A9
006CEEC6
ENDCHAR
STARTCHAR Dcaron
ENCODING 270
SWIDTH 729 0
DWIDTH 15 0
BBX 12 18 2 0
BITMAP
04E601BB0000
005F9DB10000
0006FD100000
000000000000
FFFFFEB71000
FC7779CFD300
F9000005EE20
F90000004FA0
F90000000CF1
F900000008F4
F900000006F5
F900000007F5
F900000008F3
F90000000DE0
F90000006F90
F9000006FD10
FC7779DFD200
FFFFEDA50000
ENDCHAR
STARTCHAR dcaron
ENCODING 271
SWIDTH 612 0
DWIDTH 12 0
BBX 13 15 1 0
BITMAP
00000001F80EA0
00000001F82F30
00000001F86A00
00000001F80000
008DFD82F80000
0AFA67CCF80000
5F90000BF80000
AF200005F80000
CE000002F80000
DC000001F80000
CD000002F80000
AF100004F80000
5F80000AF80000
0BFA67CCF80000
018DFD91D80000
ENDCHAR
STARTCHAR Dcroat
ENCODING 272
SWIDTH 722 0
DWIDTH 14 0
BBX 14 14 0 0
BITMAP
00FFFFFEB60000
00FC7779DFC200
00F9000006FD10
00F90000007F80
00F90000000ED0
00F90000000AF1
8FFFFFF50009F3
47FC77720009F2
00F90000000BF1
00F90000001EC0
00F90000008F70
00F9000018FC00
00FC778AEFB100
00FFFFEDA40000
ENDCHAR
STARTCHAR dcroat
ENCODING 273
SWIDTH 612 0
DWIDTH 12 0
BBX 12 15 1 0
BITMAP
00000001F800
00000001F800
0007FFFFFFF1
00024445FA40
008DFD82F800
0AFA67CCF800
5F90000BF800
AF200005F800
CE000002F800
DC000001F800
CD000002F800
AF100004F800
5F80000AF800
0BFA67CCF800
018DFD91D800
ENDCHAR
STARTCHAR Emacron
ENCODING 274
SWIDTH 556 0
DWIDTH 11 0
BBX 8 17 2 0
BITMAP
04555550
0DFFFFF0
00000000
FFFFFFFE
FC777776
F9000000
F9000000
F9000000
F9000000
FFFFFFF8
FC777774
F9000000
F9000000
F9000000
F9000000
FC777777
FFFFFFFE
ENDCHAR
STARTCHAR emacron
ENCODING 275
SWIDTH 561 0
DWIDTH 11 0
BBX 10 14 1 0
BITMAP
0055555400
00FFFFFD00
0000000000
006CFEB300
08FA67DF40
3F70001EC0
9E00000AF1
CFFFFFFFF2
DD55555551
CE00000000
9F40000000
3FC1000000
08FD878BB0
005BEFEB40
ENDCHAR
STARTCHAR Ebreve
ENCODING 276
SWIDTH 556 0
DWIDTH 11 0
BBX 8 18 2 0
BITMAP
0D2001E0
09C56C90
019EE910
00000000
FFFFFFFE
FC777776
F9000000
F9000000
F9000000
F9000000
FFFFFFF8
FC777774
F9000000
F9000000
F9000000
F9000000
FC777777
FFFFFFFE
ENDCHAR
STARTCHAR ebreve
ENCODING 277
SWIDTH 561 0
DWIDTH 11 0
BBX 10 15 1 0
BITMAP
01E0004B00
00CA56D600
002BED7000
0000000000
006CFEB300
08FA67DF40
3F70001EC0
9E00000AF1
CFFFFFFFF2
DD55555551
CE00000000
9F40000000
3FC1000000
08FD878BB0
005BEFEB40
ENDCHAR
STARTCHAR Edotaccent
ENCODING 278
SWIDTH 556 0
DWIDTH 11 0
BBX 8 18 2 0
BITMAP
0009C000
0009C000
00000000
00000000
FFFFFFFE
FC777776
F9000000
F9000000
F9000000
F9000000
FFFFFFF8
FC777774
F9000000
F9000000
F9000000
F9000000
FC777777
FFFFFFFE
ENDCHAR
STARTCHAR edotaccent
ENCODING 279
SWIDTH 561 0
DWIDTH 11 0
BBX 10 15 1 0
BITMAP
0000D90000
0000D90000
0000000000
0000000000
006CFEB300
08FA67DF40
3F70001EC0
9E00000AF1
CFFFFFFFF2
DD55555551
CE00000000
9F40000000
3FC1000000
08FD878BB0
005BEFEB40
ENDCHAR
STARTCHAR Eogonek
ENCODING 280
SWIDTH 556 0
DWIDTH 11 0
BBX 8 18 2 -4
BITMAP
FFFFFFFE
FC777776
F9000000
F9000000
F9000000
F9000000
FFFFFFF8
FC777774
F9000000
F9000000
F9000000
F9000000
FC777777
FFFFFFFE
00000C70
00006E00
00007F32
00001CFA
ENDCHAR
STARTCHAR eogonek
ENCODING 281
SWIDTH 561 0
DWIDTH 11 0
BBX 10 15 1 -4
BITMAP
006CFEB300
08FA67DF40
3F70001EC0
9E00000AF1
CFFFFFFFF2
DD55555551
CE00000000
9F40000000
3FC1000000
08FD878BB0
005BEFFF50
000001D500
000007C000
000009E320
000003DE80
ENDCHAR
STARTCHAR Ecaron
ENCODING 282
SWIDTH 556 0
DWIDTH 11 0
BBX 8 18 2 0
BITMAP
1D9108D2
02DCBE30
003EF400
00000000
FFFFFFFE
FC777776
F9000000
F9000000
F9000000
F9000000
FFFFFFF8
FC777774
F9000000
F9000000
F9000000
F9000000
FC777777
FFFFFFFE
ENDCHAR
STARTCHAR ecaron
ENCODING 283
SWIDTH 561 0
DWIDTH 11 0
BBX 10 15 1 0
BITMAP
03E701AC10
003EADC100
0005FE2000
0000000000
006CFEB300
08FA67DF40
3F70001EC0
9E00000AF1
CFFFFFFFF2
DD55555551
CE00000000
9F40000000
3FC1000000
08FD878BB0
005BEFEB40
ENDCHAR
STARTCHAR Gcircumflex
ENCODING 284
SWIDTH 728 0
DWIDTH 15 0
BBX 13 18 1 0
BITMAP
000001EF500000
00001CDAE40000
0000BA107E3000
00000000000000
00017BDFEC9400
005EFC989BF900
04FD3000001100
1EE10000000000
5F700000000000
9F200000000000
BF000000000000
BF00000BFFFF10
AF20000577CF10
7F600000008F10
2FD10000008F10
08FB2000008F10
008FFB8789DF10
00039DEFEDA700
ENDCHAR
STARTCHAR gcircumflex
ENCODING 285
SWIDTH 547 0
DWIDTH 11 0
BBX 11 20 0 -5
BITMAP
0000CF800000
000AE9F60000
009C205E5000
000000000000
003ADFFFFF70
03FC548FB200
09F10009F100
0BD00007F300
0AE10009F100
03FB437F9000
005FEEC60000
00C900000000
02F700000000
00AFFFFEA200
07E97779ED10
5F4000006F40
9F0000004F50
8F200000AF10
2ED6446CF600
029DFFDA3000
ENDCHAR
STARTCHAR Gbreve
ENCODING 286
SWIDTH 728 0
DWIDTH 15 0
BBX 13 18 1 0
BITMAP
000087000B5000
00004E659E1000
000006DEB30000
00000000000000
00017BDFEC9400
005EFC989BF900
04FD3000001100
1EE10000000000
5F700000000000
9F200000000000
BF000000000000
BF00000BFFFF10
AF20000577CF10
7F600000008F10
2FD10000008F10
08FB2000008F10
008FFB8789DF10
00039DEFEDA700
ENDCHAR
STARTCHAR gbreve
ENCODING 287
SWIDTH 547 0
DWIDTH 11 0
BBX 11 20 0 -5
BITMAP
0087000B5000
003E759E1000
0006DEC30000
000000000000
003ADFFFFF70
03FC548FB200
09F10009F100
0BD00007F300
0AE10009F100
03FB437F9000
005FEEC60000
00C900000000
02F700000000
00AFFFFEA200
07E97779ED10
5F4000006F40
9F0000004F50
8F200000AF10
2ED6446CF600
029DFFDA3000
ENDCHAR
STARTCHAR Gdot
ENCODING 288
SWIDTH 728 0
DWIDTH 15 0
BBX 13 18 1 0
BITMAP
0000004E500000
0000004E400000
00000000000000
00000000000000
00017BDFEC9400
005EFC989BF900
04FD3000001100
1EE10000000000
5F700000000000
9F200000000000
BF000000000000
BF00000BFFFF10
AF20000577CF10
7F600000008F10
2FD10000008F10
08FB2000008F10
008FFB8789DF10
00039DEFEDA700
ENDCHAR
STARTCHAR gdot
ENCODING 289
SWIDTH 547 0
DWIDTH 11 0
BBX 11 20 0 -5
BITMAP
00006D200000
00006E200000
000000000000
000000000000
003ADFFFFF70
03FC548FB200
09F10009F100
0BD00007F300
0AE10009F100
03FB437F9000
005FEEC60000
00C900000000
02F700000000
00AFFFFEA200
07E97779ED10
5F4000006F40
9F0000004F50
8F200000AF10
2ED6446CF600
029DFFDA3000
ENDCHAR
STARTCHAR Gcommaaccent
ENCODING 290
SWIDTH 728 0
DWIDTH 15 0
BBX 13 18 1 -4
BITMAP
00017BDFEC9400
005EFC989BF900
04FD3000001100
1EE10000000000
5F700000000000
9F200000000000
BF000000000000
BF00000BFFFF10
AF20000577CF10
7F600000008F10
2FD10000008F10
08FB2000008F10
008FFB8789DF10
00039DEFEDA700
00000000000000
000000CC000000
000001F5000000
000006B0000000
ENDCHAR
STARTCHAR gcommaaccent
ENCODING 291
SWIDTH 547 0
DWIDTH 11 0
BBX 11 20 0 -5
BITMAP
000006C00000
00001E600000
00007F200000
000000000000
003ADFFFFF70
03FC548FB200
09F10009F100
0BD00007F300
0AE10009F100
03FB437F9000
005FEEC60000
00C900000000
02F700000000
00AFFFFEA200
07E97779ED10
5F4000006F40
9F0000004F50
8F200000AF10
2ED6446CF600
029DFFDA3000
ENDCHAR
STARTCHAR Hcircumflex
ENCODING 292
SWIDTH 737 0
DWIDTH 15 0
BBX 11 18 2 0
BITMAP
0000CF800000
000AE9F60000
009C205E5000
000000000000
F90000000DC0
F90000000DC0
F90000000DC0
F90000000DC0
F90000000DC0
F90000000DC0
FFFFFFFFFFC0
FC7777777EC0
F90000000DC0
F90000000DC0
F90000000DC0
F90000000DC0
F90000000DC0
F90000000DC0
ENDCHAR
STARTCHAR hcircumflex
ENCODING 293
SWIDTH 613 0
DWIDTH 12 0
BBX 10 19 1 0
BITMAP
0001DF5000
001CDAF400
00BA107E30
0000000000
4F50000000
4F50000000
4F50000000
4F50000000
4F56CFDA30
4FCE868EE2
4FE20004F7
4F800000FA
4F600000EA
4F500000EA
4F500000EA
4F500000EA
4F500000EA
4F500000EA
4F500000EA
ENDCHAR
STARTCHAR Hbar
ENCODING 294
SWIDTH 737 0
DWIDTH 15 0
BBX 15 14 0 0
BITMAP
00F90000000DC000
00F90000000DC000
FFFFFFFFFFFFFFB0
66FC6666666ED640
00F90000000DC000
00F90000000DC000
00FFFFFFFFFFC000
00FC7777777EC000
00F90000000DC000
00F90000000DC000
00F90000000DC000
00F90000000DC000
00F90000000DC000
00F90000000DC000
ENDCHAR
STARTCHAR hbar
ENCODING 295
SWIDTH 613 0
DWIDTH 12 0
BBX 11 15 0 0
BITMAP
04F500000000
04F500000000
CFFFFFFB0000
37F744430000
04F500000000
04F7ADFEB300
04FFE868EF20
04FD10004F80
04F800000FA0
04F600000EA0
04F500000EA0
04F500000EA0
04F500000EA0
04F500000EA0
04F500000EA0
ENDCHAR
STARTCHAR Itilde
ENCODING 296
SWIDTH 278 0
DWIDTH 6 0
BBX 8 18 -1 0
BITMAP
1BE700A5
7C7EB6E1
B402BE60
00000000
000F9000
000F9000
000F9000
000F9000
000F9000
000F9000
000F9000
000F9000
000F9000
000F9000
000F9000
000F9000
000F9000
000F9000
ENDCHAR
STARTCHAR itilde
ENCODING 297
SWIDTH 252 0
DWIDTH 5 0
BBX 8 15 -1 0
BITMAP
3DD500E1
B98F98C0
E004CD30
00000000
004F5000
004F5000
004F5000
004F5000
004F5000
004F5000
004F5000
004F5000
004F5000
004F5000
004F5000
ENDCHAR
STARTCHAR Imacron
ENCODING 298
SWIDTH 278 0
DWIDTH 6 0
BBX 7 17 -1 0
BITMAP
15555540
2FFFFFB0
00000000
000F9000
000F9000
000F9000
000F9000
000F9000
000F9000
000F9000
000F9000
000F9000
000F9000
000F9000
000F9000
000F9000
000F9000
ENDCHAR
STARTCHAR imacron
ENCODING 299
SWIDTH 252 0
DWIDTH 5 0
BBX 7 14 -1 0
BITMAP
25555520
6FFFFF70
00000000
004F5000
004F5000
004F5000
004F5000
004F5000
004F5000
004F5000
004F5000
004F5000
004F5000
004F5000
ENDCHAR
STARTCHAR Ibreve
ENCODING 300
SWIDTH 278 0
DWIDTH 6 0
BBX 7 18 -1 0
BITMAP
2D0005B0
0D957D50
02BED700
00000000
000F9000
000F9000
000F9000
000F9000
000F9000
000F9000
000F9000
000F9000
000F9000
000F9000
000F9000
000F9000
000F9000
000F9000
ENDCHAR
STARTCHAR ibreve
ENCODING 301
SWIDTH 252 0
DWIDTH 5 0
BBX 7 15 -1 0
BITMAP
69000970
2E758E20
05DEC400
00000000
004F5000
004F5000
004F5000
004F5000
004F5000
004F5000
004F5000
004F5000
004F5000
004F5000
004F5000
ENDCHAR
STARTCHAR Iogonek
ENCODING 302
SWIDTH 278 0
DWIDTH 6 0
BBX 5 18 0 -4
BITMAP
00F900
00F900
00F900
00F900
00F900
00F900
00F900
00F900
00F900
00F900
00F900
00F900
00F900
00FB00
07C000
1F5000
1F8200
08EE10
ENDCHAR
STARTCHAR iogonek
ENCODING 303
SWIDTH 252 0
DWIDTH 5 0
BBX 4 20 0 -4
BITMAP
0020
05F6
04E5
0000
0000
04F5
04F5
04F5
04F5
04F5
04F5
04F5
04F5
04F5
04F5
05F6
0C70
5E00
6F42
1CFA
ENDCHAR
STARTCHAR Idotaccent
ENCODING 304
SWIDTH 278 0
DWIDTH 6 0
BBX 3 18 1 0
BITMAP
1D80
1D80
0000
0000
0F90
0F90
0F90
0F90
0F90
0F90
0F90
0F90
0F90
0F90
0F90
0F90
0F90
0F90
ENDCHAR
STARTCHAR dotlessi
ENCODING 305
SWIDTH 252 0
DWIDTH 5 0
BBX 3 11 1 0
BITMAP
4F50
4F50
4F50
4F50
4F50
4F50
4F50
4F50
4F50
4F50
4F50
ENDCHAR
STARTCHAR IJ
ENCODING 306
SWIDTH 545 0
DWIDTH 11 0
BBX 8 18 2 -4
BITMAP
F90008F1
F90008F1
F90008F1
F90008F1
F90008F1
F90008F1
F90008F1
F90008F1
F90008F1
F90008F1
F90008F1
F90008F1
F90008F1
F90008F1
000009F1
00000DD0
0098CF60
00DFD700
ENDCHAR
STARTCHAR ij
ENCODING 307
SWIDTH 505 0
DWIDTH 10 0
BBX 8 21 1 -5
BITMAP
02000010
5F6004F7
4E5003E5
00000000
00000000
4F5003F6
4F5003F6
4F5003F6
4F5003F6
4F5003F6
4F5003F6
4F5003F6
4F5003F6
4F5003F6
4F5003F6
4F5003F6
000003F6
000003F6
000005F5
00076DE1
000DFC40
ENDCHAR
STARTCHAR Jcircumflex
ENCODING 308
SWIDTH 267 0
DWIDTH 5 0
BBX 8 22 -2 -4
BITMAP
0007FC00
005F9EA0
05E502CA
00000000
0002F800
0002F800
0002F800
0002F800
0002F800
0002F800
0002F800
0002F800
0002F800
0002F800
0002F800
0002F800
0002F800
0002F800
0003F700
0006F500
589FD000
7FEA2000
ENDCHAR
STARTCHAR jcircumflex
ENCODING 309
SWIDTH 252 0
DWIDTH 5 0
BBX 8 20 -2 -5
BITMAP
000AFA00
008F9F80
07D304D7
00000000
0004F500
0004F500
0004F500
0004F500
0004F500
0004F500
0004F500
0004F500
0004F500
0004F500
0004F500
0004F500
0004F500
0006F400
176DE100
1DFC4000
ENDCHAR
STARTCHAR Kcommaaccent
ENCODING 310
SWIDTH 613 0
DWIDTH 12 0
BBX 11 18 2 -4
BITMAP
F9000006F900
F900005FA000
F90004FA0000
F9003EB00000
F903EB100000
F92EC1000000
FBDFA0000000
FFBAF6000000
FB01DE300000
F9002ED10000
F90005FA0000
F900009F6000
F900000CF300
F9000002ED10
000000000000
0005F4000000
0009C0000000
000D30000000
ENDCHAR
STARTCHAR kcommaaccent
ENCODING 311
SWIDTH 524 0
DWIDTH 11 0
BBX 10 19 1 -4
BITMAP
4F50000000
4F50000000
4F50000000
4F50000000
4F50006F80
4F5004F900
4F503EA000
4F52EB0000
4F5CD10000
4FDFF40000
4FD4ED1000
4F505FB000
4F5008F700
4F5000CF30
4F50002ED1
0000000000
0004F60000
0008D00000
000D400000
ENDCHAR
STARTCHAR kgreenlandic
ENCODING 312
SWIDTH 518 0
DWIDTH 10 0
BBX 10 11 1 0
BITMAP
4F70007F90
4F7004FB00
4F702ED100
4F71DE2000
4F6BF40000
4FDFF60000
4FE3CE2000
4F703FC000
4F7007F800
4F7000BF30
4F70002ED1
ENDCHAR
STARTCHAR Lacute
ENCODING 313
SWIDTH 519 0
DWIDTH 10 0
BBX 8 18 2 0
BITMAP
02FD1000
0BD20000
7D200000
00000000
F9000000
F9000000
F9000000
F9000000
F9000000
F9000000
F9000000
F9000000
F9000000
F9000000
F9000000
F9000000
FC888887
FFFFFFFE
ENDCHAR
STARTCHAR lacute
ENCODING 314
SWIDTH 252 0
DWIDTH 5 0
BBX 5 19 1 0
BITMAP
00CF30
07F500
3E4000
000000
4F5000
4F5000
4F5000
4F5000
4F5000
4F5000
4F5000
4F5000
4F5000
4F5000
4F5000
4F5000
4F5000
4F5000
4F5000
ENDCHAR
STARTCHAR Lcommaaccent
ENCODING 315
SWIDTH 519 0
DWIDTH 10 0
BBX 8 18 2 -4
BITMAP
F9000000
F9000000
F9000000
F9000000
F9000000
F9000000
F9000000
F9000000
F9000000
F9000000
F9000000
F9000000
FC888887
FFFFFFFE
00000000
003F7000
007E1000
00C50000
ENDCHAR
STARTCHAR lcommaaccent
ENCODING 316
SWIDTH 252 0
DWIDTH 5 0
BBX 4 19 0 -4
BITMAP
04F5
04F5
04F5
04F5
04F5
04F5
04F5
04F5
04F5
04F5
04F5
04F5
04F5
04F5
04F5
0000
06F3
0AB0
1E20
ENDCHAR
STARTCHAR Lcaron
ENCODING 317
SWIDTH 519 0
DWIDTH 10 0
BBX 8 14 2 0
BITMAP
F9000CC0
F9000F50
F9004C00
F9000000
F9000000
F9000000
F9000000
F9000000
F9000000
F9000000
F9000000
F9000000
FC888887
FFFFFFFE
ENDCHAR
STARTCHAR lcaron
ENCODING 318
SWIDTH 252 0
DWIDTH 5 0
BBX 6 15 1 0
BITMAP
4F53F7
4F56E1
4F5A60
4F5000
4F5000
4F5000
4F5000
4F5000
4F5000
4F5000
4F5000
4F5000
4F5000
4F5000
4F5000
ENDCHAR
STARTCHAR Ldot
ENCODING 319
SWIDTH 519 0
DWIDTH 10 0
BBX 8 14 2 0
BITMAP
F9000000
F9000000
F9000000
F9000000
F9000000
F9003E50
F9003E50
F9000000
F9000000
F9000000
F9000000
F9000000
FC888887
FFFFFFFE
ENDCHAR
STARTCHAR ldot
ENCODING 320
SWIDTH 313 0
DWIDTH 6 0
BBX 6 15 1 0
BITMAP
4F5000
4F5000
4F5000
4F5000
4F5000
4F5000
4F5000
4F52D7
4F52E7
4F5000
4F5000
4F5000
4F5000
4F5000
4F5000
ENDCHAR
STARTCHAR Lslash
ENCODING 321
SWIDTH 522 0
DWIDTH 10 0
BBX 10 14 0 0
BITMAP
00F9000000
00F9000000
00F9000000
00F9000000
00F9000000
00F906A000
00FBBFA000
01FFD40000
4DFB000000
5AF9000000
00F9000000
00F9000000
00FC888887
00FFFFFFFE
ENDCHAR
STARTCHAR lslash
ENCODING 322
SWIDTH 261 0
DWIDTH 5 0
BBX 6 15 0 0
BITMAP
04F500
04F500
04F500
04F500
04F500
04F500
04F9C1
04FF91
6EF600
AAF500
04F500
04F500
04F500
04F500
04F500
ENDCHAR
STARTCHAR Nacute
ENCODING 323
SWIDTH 753 0
DWIDTH 15 0
BBX 12 18 2 0
BITMAP
000002ED1000
00000BE20000
00006D200000
000000000000
FF30000007F2
FFC0000007F2
FCF8000007F2
F6BF300007F2
F72EC00007F2
F706F80007F2
F700BF3007F2
F8002EC007F2
F80007F707F2
F80000BF36F2
F800002EC6F2
F8000007FCF2
F8000000CFF2
F80000002EF2
ENDCHAR
STARTCHAR nacute
ENCODING 324
SWIDTH 613 0
DWIDTH 12 0
BBX 10 15 1 0
BITMAP
000006F900
00002EA000
0000BA0000
0000000000
4F26CEEB30
4FBE868EE2
4FE20004F7
4F800000FA
4F600000EA
4F500000EA
4F500000EA
4F500000EA
4F500000EA
4F500000EA
4F500000EA
ENDCHAR
STARTCHAR Ncommaaccent
ENCODING 325
SWIDTH 753 0
DWIDTH 15 0
BBX 12 18 2 -4
BITMAP
FF30000007F2
FFC0000007F2
FCF8000007F2
F6BF300007F2
F72EC00007F2
F706F80007F2
F700BF3007F2
F8002EC007F2
F80007F707F2
F80000BF36F2
F800002EC6F2
F8000007FCF2
F8000000CFF2
F80000002EF2
000000000000
0000AE000000
0000E7000000
0004C0000000
ENDCHAR
STARTCHAR ncommaaccent
ENCODING 326
SWIDTH 613 0
DWIDTH 12 0
BBX 10 15 1 -4
BITMAP
4F26CEEB30
4FBE868EE2
4FE20004F7
4F800000FA
4F600000EA
4F500000EA
4F500000EA
4F500000EA
4F500000EA
4F500000EA
4F500000EA
0000000000
0000CC0000
0001F50000
0006B00000
ENDCHAR
STARTCHAR Ncaron
ENCODING 327
SWIDTH 753 0
DWIDTH 15 0
BBX 12 18 2 0
BITMAP
007D403D8000
0008F9F80000
0000AFA00000
000000000000
FF30000007F2
FFC0000007F2
FCF8000007F2
F6BF300007F2
F72EC00007F2
F706F80007F2
F700BF3007F2
F8002EC007F2
F80007F707F2
F80000BF36F2
F800002EC6F2
F8000007FCF2
F8000000CFF2
F80000002EF2
ENDCHAR
STARTCHAR ncaron
ENCODING 328
SWIDTH 613 0
DWIDTH 12 0
BBX 10 15 1 0
BITMAP
00CA106E40
001CDAF400
0001DF6000
0000000000
4F26CEEB30
4FBE868EE2
4FE20004F7
4F800000FA
4F600000EA
4F500000EA
4F500000EA
4F500000EA
4F500000EA
4F500000EA
4F500000EA
ENDCHAR
STARTCHAR napostrophe
ENCODING 329
SWIDTH 681 0
DWIDTH 14 0
BBX 12 14 0 0
BITMAP
1FD000000000
4F8000000000
6F3000000000
AC0F63BEEC50
D60FBEA77DF6
000FF50001EC
000FD00000BE
000FB00000AF
000FA00000AF
000FA00000AF
000FA00000AF
000FA00000AF
000FA00000AF
000FA00000AF
ENDCHAR
STARTCHAR Eng
ENCODING 330
SWIDTH 753 0
DWIDTH 15 0
BBX 12 18 2 -4
BITMAP
FF30000007F2
FFC0000007F2
FCF8000007F2
F6BF300007F2
F72ED00007F2
F706F80007F2
F700AF4007F2
F8001ED107F2
F80005F906F2
F80000AF46F2
F800001ED6F2
F8000005FDF2
F80000009FF2
F80000001DF2
0000000008F1
000000000BE0
00000098BF70
000000DFD700
ENDCHAR
STARTCHAR eng
ENCODING 331
SWIDTH 613 0
DWIDTH 12 0
BBX 10 16 1 -5
BITMAP
4F26CFEB30
4FCE868EE2
4FE20004F7
4F800000FA
4F600000EA
4F500000EA
4F500000EA
4F500000EA
4F500000EA
4F500000EA
4F500000EA
00000000EA
00000000EA
00000001F9
0000046AF5
000006FD80
ENDCHAR
STARTCHAR Omacron
ENCODING 332
SWIDTH 778 0
DWIDTH 16 0
BBX 14 17 1 0
BITMAP
00015555540000
0002FFFFFB0000
00000000000000
0004ADFEC81000
00AFEA88BFE400
08FA100003DE20
2FC00000003FA0
7F500000000CF1
AF2000000008F4
BF0000000007F5
BF0000000007F5
AF2000000008F4
7F500000000CF1
2FC00000003FA0
09F9000003DE20
00AFE978BFE400
0004ADFEC81000
ENDCHAR
STARTCHAR omacron
ENCODING 333
SWIDTH 604 0
DWIDTH 12 0
BBX 10 14 1 0
BITMAP
0045555500
00DFFFFF00
0000000000
006CEEC600
09FB66BF90
4F900008F4
9F100001FA
CD000000DD
DC000000BE
CE000000DD
9F200001FA
3F900008F4
07FB66AF90
005BEEC600
ENDCHAR
STARTCHAR Obreve
ENCODING 334
SWIDTH 778 0
DWIDTH 16 0
BBX 14 18 1 0
BITMAP
0002D0005B0000
0000D957D50000
00002BED700000
00000000000000
0004ADFEC81000
00AFEA88BFE400
08FA100003DE20
2FC00000003FA0
7F500000000CF1
AF2000000008F4
BF0000000007F5
BF0000000007F5
AF2000000008F4
7F500000000CF1
2FC00000003FA0
09F9000003DE20
00AFE978BFE400
0004ADFEC81000
ENDCHAR
STARTCHAR obreve
ENCODING 335
SWIDTH 604 0
DWIDTH 12 0
BBX 10 15 1 0
BITMAP
00E2001E00
009C56C900
001AEE9100
0000000000
006CEEC600
09FB66BF90
4F900008F4
9F100001FA
CD000000DD
DC000000BE
CE000000DD
9F200001FA
3F900008F4
07FB66AF90
005BEEC600
ENDCHAR
STARTCHAR Ohungarumlaut
ENCODING 336
SWIDTH 778 0
DWIDTH 16 0
BBX 14 18 1 0
BITMAP
000009F42FB000
00003F70AD1000
0000C705D20000
00000000000000
0004ADFEC81000
00AFEA88BFE400
08FA100003DE20
2FC00000003FA0
7F500000000CF1
AF2000000008F4
BF0000000007F5
BF0000000007F5
AF2000000008F4
7F500000000CF1
2FC00000003FA0
09F9000003DE20
00AFE978BFE400
0004ADFEC81000
ENDCHAR
STARTCHAR ohungarumlaut
ENCODING 337
SWIDTH 604 0
DWIDTH 12 0
BBX 10 15 1 0
BITMAP
0006F61DD1
001E908E20
00A903E300
0000000000
006CEEC600
09FB66BF90
4F900008F4
9F100001FA
CD000000DD
DC000000BE
CE000000DD
9F200001FA
3F900008F4
07FB66AF90
005BEEC600
ENDCHAR
STARTCHAR OE
ENCODING 338
SWIDTH 922 0
DWIDTH 18 0
BBX 17 14 1 0
BITMAP
0005ADFFFFFFFFFF40
00AFEA88BFB7777720
09FA10002F80000000
2FC000002F80000000
7F5000002F80000000
AF2000002F80000000
BF0000002FFFFFFD00
BF0000002FB7777600
AF2000002F80000000
7F5000002F80000000
2FC000002F80000000
08F910002F80000000
00AFE977BFB7777720
0004ADFFFFFFFFFF40
ENDCHAR
STARTCHAR oe
ENCODING 339
SWIDTH 941 0
DWIDTH 19 0
BBX 17 11 1 0
BITMAP
006CEEB4008DFD9100
09FA66CF6BE868EC10
4F80000BFF40005F70
AF100004FD00001FB0
CD000001FFFFFFFFC0
DC000000FC55555540
CE000001FC00000000
9F100004FF10000000
4F80000BDF90000000
08FA66BF47FB779D50
006CEEB3005CEFD920
ENDCHAR
STARTCHAR Racute
ENCODING 340
SWIDTH 618 0
DWIDTH 12 0
BBX 10 18 2 0
BITMAP
00006F9000
0002EA0000
000BA00000
0000000000
FFFFFD9200
FC777AFE30
F900004FB0
F900000CE0
F900000BE0
F900001EB0
F90014CF40
FFFFFFC300
FC668F7000
F9000BF200
F90002FC00
F900007F60
F900000DE2
F9000004FA
ENDCHAR
STARTCHAR racute
ENCODING 341
SWIDTH 408 0
DWIDTH 8 0
BBX 7 15 1 0
BITMAP
0001EE20
0009E300
005E3000
00000000
4F23CFB0
4F6EA760
4FF50000
4FB00000
4F700000
4F500000
4F500000
4F500000
4F500000
4F500000
4F500000
ENDCHAR
STARTCHAR Rcommaaccent
ENCODING 342
SWIDTH 618 0
DWIDTH 12 0
BBX 10 18 2 -4
BITMAP
FFFFFD9200
FC777AFE30
F900004FB0
F900000CE0
F900000BE0
F900001EB0
F90014CF40
FFFFFFC300
FC668F7000
F9000BF200
F90002FC00
F900007F60
F900000DE2
F9000004FA
0000000000
0007F30000
000BA00000
001E200000
ENDCHAR
STARTCHAR rcommaaccent
ENCODING 343
SWIDTH 408 0
DWIDTH 8 0
BBX 7 15 1 -4
BITMAP
4F23CFB0
4F6EA760
4FF50000
4FB00000
4F700000
4F500000
4F500000
4F500000
4F500000
4F500000
4F500000
00000000
5F400000
9C000000
E3000000
ENDCHAR
STARTCHAR Rcaron
ENCODING 344
SWIDTH 618 0
DWIDTH 12 0
BBX 10 18 2 0
BITMAP
0CA107E300
01CDAE4000
002EF50000
0000000000
FFFFFD9200
FC777AFE30
F900004FB0
F900000CE0
F900000BE0
F900001EB0
F90014CF40
FFFFFFC300
FC668F7000
F9000BF200
F90002FC00
F900007F60
F900000DE2
F9000004FA
ENDCHAR
STARTCHAR rcaron
ENCODING 345
SWIDTH 408 0
DWIDTH 8 0
BBX 7 15 1 0
BITMAP
6D403C80
07F9E900
009FB000
00000000
4F23CFB0
4F6EA760
4FF50000
4FB00000
4F700000
4F500000
4F500000
4F500000
4F500000
4F500000
4F500000
ENDCHAR
STARTCHAR Sacute
ENCODING 346
SWIDTH 548 0
DWIDTH 11 0
BBX 9 18 1 0
BITMAP
00000CF300
00007F5000
0003E50000
0000000000
029DEEC930
2EFA89BF60
9F40000110
BE00000000
9F30000000
3FE6000000
04DFE82000
0005BFF900
000002AF80
0000000DE0
0000000BF0
1000002EB0
EC988AEE30
8CEFEC8100
ENDCHAR
STARTCHAR sacute
ENCODING 347
SWIDTH 477 0
DWIDTH 10 0
BBX 8 15 1 0
BITMAP
0000CF30
0007F500
003E5000
00000000
06CEED92
9F9669D1
EA000000
DD100000
5FE93000
029EFB30
00016EF3
000002F8
000001F8
C9757DF3
7CEFDA30
ENDCHAR
STARTCHAR Scircumflex
ENCODING 348
SWIDTH 548 0
DWIDTH 11 0
BBX 9 18 1 0
BITMAP
0007FC0000
005F9EA000
05E502CA00
0000000000
029DEEC930
2EFA89BF60
9F40000110
BE00000000
9F30000000
3FE6000000
04DFE82000
0005BFF900
000002AF80
0000000DE0
0000000BF0
1000002EB0
EC988AEE30
8CEFEC8100
ENDCHAR
STARTCHAR scircumflex
ENCODING 349
SWIDTH 477 0
DWIDTH 10 0
BBX 8 15 1 0
BITMAP
005FE200
03EADC10
2E701AC1
00000000
06CEED92
9F9669D1
EA000000
DD100000
5FE93000
029EFB30
00016EF3
000002F8
000001F8
C9757DF3
7CEFDA30
ENDCHAR
STARTCHAR Scedilla
ENCODING 350
SWIDTH 548 0
DWIDTH 11 0
BBX 9 19 1 -5
BITMAP
029DEEC930
2EFA89BF60
9F40000110
BE00000000
9F30000000
3FE6000000
04DFE82000
0005BFF900
000002AF80
0000000DE0
0000000BF0
1000002EB0
EC988AEE30
8CEFEC8100
0006A00000
000AE70000
00005F1000
00117E0000
00BEC40000
ENDCHAR
STARTCHAR scedilla
ENCODING 351
SWIDTH 477 0
DWIDTH 10 0
BBX 8 16 1 -5
BITMAP
06CEED92
9F9669D1
EA000000
DD100000
5FE93000
029EFB30
00016EF3
000002F8
000001F8
C9757DF3
7CEFDA30
003C0000
007E9000
0002F400
0115F300
08FD6000
ENDCHAR
STARTCHAR Scaron
ENCODING 352
SWIDTH 548 0
DWIDTH 11 0
BBX 9 18 1 0
BITMAP
06E402C900
006F9EA000
0008FC0000
0000000000
029DEEC930
2EFA89BF60
9F40000110
BE00000000
9F30000000
3FE6000000
04DFE82000
0005BFF900
000002AF80
0000000DE0
0000000BF0
1000002EB0
EC988AEE30
8CEFEC8100
ENDCHAR
STARTCHAR scaron
ENCODING 353
SWIDTH 477 0
DWIDTH 10 0
BBX 8 15 1 0
BITMAP
2E7019C1
03EACD10
004FE200
00000000
06CEED92
9F9669D1
EA000000
DD100000
5FE93000
029EFB30
00016EF3
000002F8
000001F8
C9757DF3
7CEFDA30
ENDCHAR
STARTCHAR Tcedilla
ENCODING 354
SWIDTH 553 0
DWIDTH 11 0
BBX 11 19 0 -5
BITMAP
CFFFFFFFFFD0
67779FA77760
00004F500000
00004F500000
00004F500000
00004F500000
00004F500000
00004F500000
00004F500000
00004F500000
00004F500000
00004F500000
00004F500000
00004F500000
00003D000000
00007E900000
000002F50000
000114F30000
0007FD700000
ENDCHAR
STARTCHAR tcedilla
ENCODING 355
SWIDTH 353 0
DWIDTH 7 0
BBX 7 18 0 -5
BITMAP
00A70000
01E70000
6DFFFF80
36F94420
02F70000
02F70000
02F70000
02F70000
02F70000
02F70000
01F90000
00BF8650
002BEE80
0006A000
0009E700
00005F20
00117F10
00AFC500
ENDCHAR
STARTCHAR Tcaron
ENCODING 356
SWIDTH 553 0
DWIDTH 11 0
BBX 11 18 0 0
BITMAP
007D403D8000
0008F9E90000
0000AFB00000
000000000000
CFFFFFFFFFD0
67779FA77760
00004F500000
00004F500000
00004F500000
00004F500000
00004F500000
00004F500000
00004F500000
00004F500000
00004F500000
00004F500000
00004F500000
00004F500000
ENDCHAR
STARTCHAR tcaron
ENCODING 357
SWIDTH 353 0
DWIDTH 7 0
BBX 7 15 0 0
BITMAP
00000AE0
00000D80
00A72E10
01E70000
6DFFFF80
36F94420
02F70000
02F70000
02F70000
02F70000
02F70000
02F70000
01F90000
00BF8650
002BEE80
ENDCHAR
STARTCHAR Tbar
ENCODING 358
SWIDTH 553 0
DWIDTH 11 0
BBX 11 14 0 0
BITMAP
CFFFFFFFFFD0
67779FA77760
00004F500000
00004F500000
00004F500000
00004F500000
05FFFFFFF600
02668F966200
00004F500000
00004F500000
00004F500000
00004F500000
00004F500000
00004F500000
ENDCHAR
STARTCHAR tbar
ENCODING 359
SWIDTH 353 0
DWIDTH 7 0
BBX 7 13 0 0
BITMAP
00A70000
01E70000
6DFFFF80
36F94420
02F70000
02F70000
8FFFFF60
26F94420
02F70000
02F70000
01F90000
00BF8650
002BEE80
ENDCHAR
STARTCHAR Utilde
ENCODING 360
SWIDTH 728 0
DWIDTH 15 0
BBX 12 18 1 0
BITMAP
0005EC302C00
001E7AE7B800
004B006EC100
000000000000
3F70000000EB
3F70000000EB
3F70000000EB
3F70000000EB
3F70000000EB
3F70000000EB
3F70000000EB
3F70000000EB
3F70000000EB
2F80000000FB
0EC0000004F8
09F700001CF2
01CFC979EF60
0017CEFDA300
ENDCHAR
STARTCHAR utilde
ENCODING 361
SWIDTH 613 0
DWIDTH 12 0
BBX 10 15 1 0
BITMAP
007EA105A0
02E6CE7C60
068008EA00
0000000000
6F400001F8
6F400001F8
6F400001F8
6F400001F8
6F400001F8
6F400001F8
6F400002F8
5F500004F8
3F90000BF8
0CF967CBF8
019DFD81D8
ENDCHAR
STARTCHAR Umacron
ENCODING 362
SWIDTH 728 0
DWIDTH 15 0
BBX 12 17 1 0
BITMAP
000355555100
000AFFFFF300
000000000000
3F70000000EB
3F70000000EB
3F70000000EB
3F70000000EB
3F70000000EB
3F70000000EB
3F70000000EB
3F70000000EB
3F70000000EB
2F80000000FB
0EC0000004F8
09F700001CF2
01CFC979EF60
0017CEFDA300
ENDCHAR
STARTCHAR umacron
ENCODING 363
SWIDTH 613 0
DWIDTH 12 0
BBX 10 14 1 0
BITMAP
0045555500
00CFFFFF10
0000000000
6F400001F8
6F400001F8
6F400001F8
6F400001F8
6F400001F8
6F400001F8
6F400002F8
5F500004F8
3F90000BF8
0CF967CBF8
019DFD81D8
ENDCHAR
STARTCHAR Ubreve
ENCODING 364
SWIDTH 728 0
DWIDTH 15 0
BBX 12 18 1 0
BITMAP
000A5000D300
0006D65AC000
00008DEB2000
000000000000
3F70000000EB
3F70000000EB
3F70000000EB
3F70000000EB
3F70000000EB
3F70000000EB
3F70000000EB
3F70000000EB
3F70000000EB
2F80000000FB
0EC0000004F8
09F700001CF2
01CFC979EF60
0017CEFDA300
ENDCHAR
STARTCHAR ubreve
ENCODING 365
SWIDTH 613 0
DWIDTH 12 0
BBX 10 15 1 0
BITMAP
00D2001E00
008C66CA00
0019EE9100
0000000000
6F400001F8
6F400001F8
6F400001F8
6F400001F8
6F400001F8
6F400001F8
6F400002F8
5F500004F8
3F90000BF8
0CF967CBF8
019DFD81D8
ENDCHAR
STARTCHAR Uring
ENCODING 366
SWIDTH 728 0
DWIDTH 15 0
BBX 12 19 1 0
BITMAP
00003DEA0000
0000C50B6000
0000C50B5000
00004DEA0000
000000000000
3F70000000EB
3F70000000EB
3F70000000EB
3F70000000EB
3F70000000EB
3F70000000EB
3F70000000EB
3F70000000EB
3F70000000EB
2F80000000FB
0EC0000004F8
09F700001CF2
01CFC979EF60
0017CEFDA300
ENDCHAR
STARTCHAR uring
ENCODING 367
SWIDTH 613 0
DWIDTH 12 0
BBX 10 16 1 0
BITMAP
0005DE7000
000E21D300
000E21D300
0006DE8000
0000000000
6F400001F8
6F400001F8
6F400001F8
6F400001F8
6F400001F8
6F400001F8
6F400002F8
5F500004F8
3F90000BF8
0CF967CBF8
019DFD81D8
ENDCHAR
STARTCHAR Uhungarumlaut
ENCODING 368
SWIDTH 728 0
DWIDTH 15 0
BBX 12 18 1 0
BITMAP
00002FB09F40
0000AD13F600
0005D20C7000
000000000000
3F70000000EB
3F70000000EB
3F70000000EB
3F70000000EB
3F70000000EB
3F70000000EB
3F70000000EB
3F70000000EB
3F70000000EB
2F80000000FB
0EC0000004F8
09F700001CF2
01CFC979EF60
0017CEFDA300
ENDCHAR
STARTCHAR uhungarumlaut
ENCODING 369
SWIDTH 613 0
DWIDTH 12 0
BBX 10 15 1 0
BITMAP
0004F90CE2
000DB06F40
008B11E400
0000000000
6F400001F8
6F400001F8
6F400001F8
6F400001F8
6F400001F8
6F400001F8
6F400002F8
5F500004F8
3F90000BF8
0CF967CBF8
019DFD81D8
ENDCHAR
STARTCHAR Uogonek
ENCODING 370
SWIDTH 728 0
DWIDTH 15 0
BBX 12 18 1 -4
BITMAP
3F70000000EB
3F70000000EB
3F70000000EB
3F70000000EB
3F70000000EB
3F70000000EB
3F70000000EB
3F70000000EB
3F70000000EB
2F80000000FB
0EC0000004F8
09F700001CF2
01CFC979EF60
0017CFFFA300
000009A00000
00003F200000
00004F630000
00000AED0000
ENDCHAR
STARTCHAR uogonek
ENCODING 371
SWIDTH 613 0
DWIDTH 12 0
BBX 10 15 1 -4
BITMAP
6F400001F8
6F400001F8
6F400001F8
6F400001F8
6F400001F8
6F400001F8
6F400002F8
5F500004F8
3F90000BF8
0CF967CBF8
019DFD81FA
00000008A0
0000002F30
0000003F63
0000000AEE
ENDCHAR
STARTCHAR Wcircumflex
ENCODING 372
SWIDTH 925 0
DWIDTH 19 0
BBX 19 18 0 0
BITMAP
00000001DF6000000000
0000001BDAF400000000
000000BB106E40000000
00000000000000000000
9F200000DF300000AF20
5F600002FF800000ED00
1FA00007FBD00002F900
0CE0000BC7F20006F400
08F3001F82F7000AF100
04F7005F40CC000EB000
00EB00AE008F103F7000
00BE00EA003F607F3000
006F44F5000DB0BE0000
002F77F10009E1EA0000
000DBBB00004F7F60000
0009DE700000ECF20000
0005FF200000AFD00000
0001FD0000005F900000
ENDCHAR
STARTCHAR wcircumflex
ENCODING 373
SWIDTH 777 0
DWIDTH 16 0
BBX 16 15 0 0
BITMAP
0000006FD1000000
000004FADC100000
00003E601BB00000
0000000000000000
AF10004FD00007F3
6F40008FF2000BE0
2F8000D9F7000EA0
0DC003F5CB003F60
09F107F18F107F20
05F40CB03F50BD00
01F82F600EA0E900
00CC6F2009E4F500
008FAC0005FAF100
004FF70001EFC000
000EF30000BF8000
ENDCHAR
STARTCHAR Ycircumflex
ENCODING 374
SWIDTH 560 0
DWIDTH 11 0
BBX 12 18 0 0
BITMAP
00009FB00000
0007F9E90000
006D403C9000
000000000000
BF2000000DD1
3F9000006F60
09F30001EC00
02FB0008F400
008F401EB000
001EC09F2000
0006F7F90000
0000DFE10000
00005F800000
00004F700000
00004F700000
00004F700000
00004F700000
00004F700000
ENDCHAR
STARTCHAR ycircumflex
ENCODING 375
SWIDTH 503 0
DWIDTH 10 0
BBX 10 20 0 -5
BITMAP
0002EF4000
001DCBE300
01C9108E20
0000000000
CE000000DD
6F500003F8
1EA00008F2
09F1000DC0
04F6004F60
00DC009F10
007F20EA00
001F84F500
000AC9E000
0004FE9000
0000DF3000
0000CD0000
0003F70000
000AF10000
56AF700000
BFD6000000
ENDCHAR
STARTCHAR Ydieresis
ENCODING 376
SWIDTH 560 0
DWIDTH 11 0
BBX 12 18 0 0
BITMAP
001D704E3000
000D703E3000
000000000000
000000000000
BF2000000DD1
3F9000006F60
09F30001EC00
02FB0008F400
008F401EB000
001EC09F2000
0006F7F90000
0000DFE10000
00005F800000
00004F700000
00004F700000
00004F700000
00004F700000
00004F700000
ENDCHAR
STARTCHAR Zacute
ENCODING 377
SWIDTH 570 0
DWIDTH 11 0
BBX 11 18 0 0
BITMAP
000001EE2000
000009E30000
00005E300000
000000000000
0FFFFFFFFF60
07888888DF30
00000005F900
0000001ED100
000000AF3000
000005F80000
00001ED00000
0000AF300000
0005F8000000
001EC0000000
00AF30000000
06F800000000
1EF888888850
3FFFFFFFFF90
ENDCHAR
STARTCHAR zacute
ENCODING 378
SWIDTH 467 0
DWIDTH 9 0
BBX 9 15 0 0
BITMAP
00000CF300
00007F5000
0003E50000
0000000000
0DFFFFFF60
034444BF40
000003F900
00000DD100
00008F4000
0004F80000
001DD00000
009F300000
04F7000000
1DE4444420
3FFFFFFF80
ENDCHAR
STARTCHAR Zdotaccent
ENCODING 379
SWIDTH 570 0
DWIDTH 11 0
BBX 11 18 0 0
BITMAP
00002D700000
00002D700000
000000000000
000000000000
0FFFFFFFFF60
07888888DF30
00000005F900
0000001ED100
000000AF3000
000005F80000
00001ED00000
0000AF300000
0005F8000000
001EC0000000
00AF30000000
06F800000000
1EF888888850
3FFFFFFFFF90
ENDCHAR
STARTCHAR zdotaccent
ENCODING 380
SWIDTH 467 0
DWIDTH 9 0
BBX 9 15 0 0
BITMAP
0002D70000
0002D70000
0000000000
0000000000
0DFFFFFF60
034444BF40
000003F900
00000DD100
00008F4000
0004F80000
001DD00000
009F300000
04F7000000
1DE4444420
3FFFFFFF80
ENDCHAR
STARTCHAR Zcaron
ENCODING 381
SWIDTH 570 0
DWIDTH 11 0
BBX 11 18 0 0
BITMAP
004E502BB000
0005F9EB0000
00007FD10000
000000000000
0FFFFFFFFF60
07888888DF30
00000005F900
0000001ED100
000000AF3000
000005F80000
00001ED00000
0000AF300000
0005F8000000
001EC0000000
00AF30000000
06F800000000
1EF888888850
3FFFFFFFFF90
ENDCHAR
STARTCHAR zcaron
ENCODING 382
SWIDTH 467 0
DWIDTH 9 0
BBX 9 15 0 0
BITMAP
04E502BB00
005F9EB000
0007FD1000
0000000000
0DFFFFFF60
034444BF40
000003F900
00000DD100
00008F4000
0004F80000
001DD00000
009F300000
04F7000000
1DE4444420
3FFFFFFF80
ENDCHAR
STARTCHAR longs
ENCODING 383
SWIDTH 319 0
DWIDTH 6 0
BBX 6 15 1 0
BITMAP
019DFC
0BF867
2F8000
4F6000
4F5000
4F5000
4F5000
4F5000
4F5000
4F5000
4F5000
4F5000
4F5000
4F5000
4F5000
ENDCHAR
STARTCHAR florin
ENCODING 402
SWIDTH 577 0
DWIDTH 12 0
BBX 10 19 1 -5
BITMAP
00001ADEC1
0000BF8680
0001FA0000
0002F80000
0002F70000
02AEFFEE30
0156FA5510
0002F80000
0002F80000
0002F80000
0002F80000
0002F80000
0002F80000
0002F80000
0002F80000
0002F80000
0004F60000
176DF20000
1EFD500000
ENDCHAR
STARTCHAR Ohorn
ENCODING 416
SWIDTH 779 0
DWIDTH 16 0
BBX 15 15 1 0
BITMAP
0000000000000ED0
0004ADFEC8101F90
00AFEA88BFE49F20
09F9100003DFD400
2FC00000003F9000
7F500000000CE100
AF2000000008F300
BF0000000007F400
BF0000000007F500
AF2000000008F300
7F500000000CF000
2FC00000003FA000
08F9000002DE2000
00AFD978AFE40000
0004ADFEC8100000
ENDCHAR
STARTCHAR ohorn
ENCODING 417
SWIDTH 608 0
DWIDTH 12 0
BBX 12 12 1 0
BITMAP
0000000003FA
006CEEC606F4
09FB66AFCF90
4F900008F700
9F200001EA00
CE000000CD00
DC000000BE00
CE000000CD00
9F200001EA00
3F800007F400
07FA66AF9000
005BEEC60000
ENDCHAR
STARTCHAR Uhorn
ENCODING 431
SWIDTH 768 0
DWIDTH 15 0
BBX 16 15 1 0
BITMAP
0000000000000BF1
3F70000000EB0DC0
3F70000000EC8F40
3F70000000EFC400
3F70000000EB0000
3F70000000EB0000
3F70000000EB0000
3F70000000EB0000
3F70000000EB0000
3F70000000EB0000
2F90000000FB0000
0EC0000003F80000
09F700001CF30000
01CFC979EF700000
0006CEFEA4000000
ENDCHAR
STARTCHAR uhorn
ENCODING 432
SWIDTH 665 0
DWIDTH 13 0
BBX 13 13 1 0
BITMAP
00000000000ED0
00000000001FA0
6F400001F86F30
6F400001FEF700
6F400001FB2000
6F400001F80000
6F400001F80000
6F400001F80000
6F400002F80000
5F500004F80000
3F90000BF80000
0CF967CDF80000
019DFD91D80000
ENDCHAR
STARTCHAR uni01F0
ENCODING 496
SWIDTH 252 0
DWIDTH 5 0
BBX 8 20 -2 -5
BITMAP
06D403C8
007F9E90
0009FB00
00000000
0004F500
0004F500
0004F500
0004F500
0004F500
0004F500
0004F500
0004F500
0004F500
0004F500
0004F500
0004F500
0004F500
0006F400
176DE100
1DFC4000
ENDCHAR
STARTCHAR Aringacute
ENCODING 506
SWIDTH 634 0
DWIDTH 13 0
BBX 13 19 0 0
BITMAP
0000003FC00000
000000BD200000
000006D2000000
00003CEA000000
0000B60B600000
0000C409700000
00006DAE200000
00001EEA000000
00006F6F200000
0000DB1E900000
0004F509E10000
000BE003F70000
002F8000CD0000
009F20006F5000
01EFFFFFFFB000
07F988888CF300
0DD0000003F900
5F60000000BF10
CE000000004F70
ENDCHAR
STARTCHAR aringacute
ENCODING 507
SWIDTH 556 0
DWIDTH 11 0
BBX 10 19 0 0
BITMAP
000003EE60
00002D9100
0000000000
0001AEC300
0006A06B00
0006A06B00
0001AEC300
0000000000
016BDFEA30
02EA767EE1
00100004F6
00000001F7
0028BDEFF8
04ED7534F8
0DE10003F8
1FA00005F8
0EC0001CF8
09FA67D9E8
018DFD70C8
ENDCHAR
STARTCHAR AEacute
ENCODING 508
SWIDTH 873 0
DWIDTH 17 0
BBX 17 18 0 0
BITMAP
00000000000CF30000
00000000007F500000
0000000003E4000000
000000000000000000
0000007FFFFFFFFF40
000000EC8FC7777720
000006F41F90000000
00000DC01F90000000
00006F401F90000000
0000DC001F90000000
0006F5001FFFFFFD00
000DC0001FC7777600
005FFFFFFF90000000
00CE88888F90000000
05F600001F90000000
0CE000001F90000000
4F7000001FC7777720
CE1000001FFFFFFF40
ENDCHAR
STARTCHAR aeacute
ENCODING 509
SWIDTH 857 0
DWIDTH 17 0
BBX 17 15 0 0
BITMAP
000000000CF3000000
000000007F50000000
00000003E500000000
000000000000000000
005BEFD813BFFB4000
00EB769FBFC67CF400
00100009FC0001EC00
00000006F60000AF10
0029CEEFFFEEEEFF20
04FD7438F855555510
0DE10007F600000000
1FA00009F900000000
0EC0002FDF30000000
09F968EA2EE878BA00
018DFD70029EFEB400
ENDCHAR
STARTCHAR Oslashacute
ENCODING 510
SWIDTH 778 0
DWIDTH 16 0
BBX 14 18 1 0
BITMAP
0000000CF30000
0000007F500000
000003E4000000
00000000000000
0004ADFEC75D30
00AFEA88BFFB00
08FA10000CFE20
2FC000008F7FA0
7F500004F70CF1
AF20002EB008F4
BF0000BD1007F5
BF1008F30007F5
AF204F700008F4
7F62EA00000CF1
2FCCD100003FA0
09FF400003DE20
05FFE978BFE400
0A94ADEEC81000
ENDCHAR
STARTCHAR oslashacute
ENCODING 511
SWIDTH 604 0
DWIDTH 12 0
BBX 10 15 1 0
BITMAP
00000BF400
00006F6000
0002E60000
0000000000
005CEEC6C5
08FB67BFD1
4F90009FF4
9F1005F6FA
CD002EA0CD
DC00BD10BE
CD08F300DD
9F5F7001FA
3FFB0008F5
0CFB66AF90
3D7CEEC600
ENDCHAR
STARTCHAR Scommaaccent
ENCODING 536
SWIDTH 548 0
DWIDTH 11 0
BBX 9 18 1 -4
BITMAP
029DEEC930
2EFA89BF60
9F40000110
BE00000000
9F30000000
3FE6000000
04DFE82000
0005BFF900
000002AF80
0000000DE0
0000000BF0
1000002EB0
EC988AEE30
8CEFEC8100
0000000000
0009E10000
000D800000
003D100000
ENDCHAR
STARTCHAR scommaaccent
ENCODING 537
SWIDTH 477 0
DWIDTH 10 0
BBX 8 15 1 -4
BITMAP
06CEED92
9F9669D1
EA000000
DD100000
5FE93000
029EFB30
00016EF3
000002F8
000001F8
C9757DF3
7CEFDA30
00000000
005F4000
009C0000
00E30000
ENDCHAR
STARTCHAR Tcommaaccent
ENCODING 538
SWIDTH 553 0
DWIDTH 11 0
BBX 11 18 0 -4
BITMAP
CFFFFFFFFFD0
67779FA77760
00004F500000
00004F500000
00004F500000
00004F500000
00004F500000
00004F500000
00004F500000
00004F500000
00004F500000
00004F500000
00004F500000
00004F500000
000000000000
00006F300000
0000AB000000
0001E2000000
ENDCHAR
STARTCHAR tcommaaccent
ENCODING 539
SWIDTH 353 0
DWIDTH 7 0
BBX 7 17 0 -4
BITMAP
00A70000
01E70000
6DFFFF80
36F94420
02F70000
02F70000
02F70000
02F70000
02F70000
02F70000
01F90000
00BF8650
002BEE80
00000000
000DB000
002F4000
00890000
ENDCHAR
STARTCHAR dotlessj
ENCODING 567
SWIDTH 252 0
DWIDTH 5 0
BBX 6 16 -2 -5
BITMAP
0004F5
0004F5
0004F5
0004F5
0004F5
0004F5
0004F5
0004F5
0004F5
0004F5
0004F5
0004F5
0004F5
0006F4
176DE1
1DFC40
ENDCHAR
STARTCHAR uni02BC
ENCODING 700
SWIDTH 169 0
DWIDTH 3 0
BBX 4 5 0 9
BITMAP
0DF1
0FC0
3F70
6F10
AA00
ENDCHAR
STARTCHAR circumflex
ENCODING 710
SWIDTH 591 0
DWIDTH 12 0
BBX 8 3 2 12
BITMAP
004FE200
03EBDD10
2D701AC1
ENDCHAR
STARTCHAR caron
ENCODING 711
SWIDTH 591 0
DWIDTH 12 0
BBX 8 3 2 12
BITMAP
2E7019C1
03EACD10
004FE200
ENDCHAR
STARTCHAR macron
ENCODING 713
SWIDTH 586 0
DWIDTH 12 0
BBX 7 2 2 12
BITMAP
05555540
1FFFFFC0
ENDCHAR
STARTCHAR breve
ENCODING 728
SWIDTH 591 0
DWIDTH 12 0
BBX 7 3 2 12
BITMAP
1E0004C0
0BA56D70
02BED800
ENDCHAR
STARTCHAR dotaccent
ENCODING 729
SWIDTH 252 0
DWIDTH 5 0
BBX 3 2 1 13
BITMAP
4E50
4E50
ENDCHAR
STARTCHAR ring
ENCODING 730
SWIDTH 577 0
DWIDTH 12 0
BBX 5 4 3 12
BITMAP
09ED40
5B05D0
5B05C0
0AED40
ENDCHAR
STARTCHAR ogonek
ENCODING 731
SWIDTH 196 0
DWIDTH 4 0
BBX 4 5 0 -4
BITMAP
0250
1D50
7C00
9E32
3DE8
ENDCHAR
STARTCHAR tilde
ENCODING 732
SWIDTH 591 0
DWIDTH 12 0
BBX 8 3 2 12
BITMAP
06EB204B
1E6BE7B7
5A007EB1
ENDCHAR
STARTCHAR hungarumlaut
ENCODING 733
SWIDTH 577 0
DWIDTH 12 0
BBX 8 3 2 12
BITMAP
05F80CE2
0DB06F40
8B12E400
ENDCHAR
STARTCHAR uni02F3
ENCODING 755
SWIDTH 333 0
DWIDTH 7 0
BBX 5 4 1 -5
BITMAP
3DEA00
B50B60
B50B60
3DEA10
ENDCHAR
STARTCHAR uni0300
ENCODING 768
SWIDTH 0 0
DWIDTH 0 0
BBX 5 3 -10 12
BITMAP
1DE200
02EB00
002D60
ENDCHAR
STARTCHAR uni0301
ENCODING 769
SWIDTH 0 0
DWIDTH 0 0
BBX 5 3 -8 12
BITMAP
00CF30
07F500
3E5000
ENDCHAR
STARTCHAR uni0303
ENCODING 771
SWIDTH 0 0
DWIDTH 0 0
BBX 8 3 -10 12
BITMAP
0AE80096
6C6DC6E2
A501AE70
ENDCHAR
STARTCHAR hook
ENCODING 777
SWIDTH 0 0
DWIDTH 0 0
BBX 5 5 -8 12
BITMAP
6FD600
005F10
007F10
0AD500
0A7000
ENDCHAR
STARTCHAR uni030F
ENCODING 783
SWIDTH 0 0
DWIDTH 0 0
BBX 8 3 -11 12
BITMAP
1EC08F50
04F60BD0
004E20B8
ENDCHAR
STARTCHAR dotbelow
ENCODING 803
SWIDTH 0 0
DWIDTH 0 0
BBX 2 2 -7 -3
BITMAP
AC
AC
ENDCHAR
STARTCHAR tonos
ENCODING 900
SWIDTH 577 0
DWIDTH 12 0
BBX 3 4 5 12
BITMAP
3F80
6F30
AB00
E400
ENDCHAR
STARTCHAR dieresistonos
ENCODING 901
SWIDTH 577 0
DWIDTH 12 0
BBX 7 4 2 13
BITMAP
0003F900
0008D100
2E5D3C80
1D500B90
ENDCHAR
STARTCHAR Alphatonos
ENCODING 902
SWIDTH 632 0
DWIDTH 13 0
BBX 13 15 0 0
BITMAP
0ED00000000000
2F8008F4000000
5F200EFA000000
A8006F8F100000
0000CC2F700000
0003F60BD00000
0009E105F40000
001E9000EA0000
006F30008F1000
00CFFFFFFF7000
03FA88888DD000
09F1000007F400
1EA0000001FA00
6F40000000AF10
CD000000004F70
ENDCHAR
STARTCHAR anoteleia
ENCODING 903
SWIDTH 266 0
DWIDTH 5 0
BBX 3 3 1 5
BITMAP
4E80
7FC0
2940
ENDCHAR
STARTCHAR Epsilontonos
ENCODING 904
SWIDTH 618 0
DWIDTH 12 0
BBX 13 15 -1 0
BITMAP
09F30000000000
0CC0CFFFFFFF20
1F60CE77777710
5C00CD00000000
0000CD00000000
0000CD00000000
0000CD00000000
0000CFFFFFFC00
0000CE77777500
0000CD00000000
0000CD00000000
0000CD00000000
0000CD00000000
0000CE77777710
0000CFFFFFFF20
ENDCHAR
STARTCHAR Etatonos
ENCODING 905
SWIDTH 811 0
DWIDTH 16 0
BBX 16 15 -1 0
BITMAP
09F3000000000000
0CC08F10000006F4
1F608F10000006F4
5C008F10000006F4
00008F10000006F4
00008F10000006F4
00008F10000006F4
00008FFFFFFFFFF4
00008F8777777AF4
00008F10000006F4
00008F10000006F4
00008F10000006F4
00008F10000006F4
00008F10000006F4
00008F10000006F4
ENDCHAR
STARTCHAR Iotatonos
ENCODING 906
SWIDTH 361 0
DWIDTH 7 0
BBX 7 15 -1 0
BITMAP
07F50000
0AE16F40
0E806F40
3E106F40
00006F40
00006F40
00006F40
00006F40
00006F40
00006F40
00006F40
00006F40
00006F40
00006F40
00006F40
ENDCHAR
STARTCHAR Omicrontonos
ENCODING 908
SWIDTH 812 0
DWIDTH 16 0
BBX 16 15 -1 0
BITMAP
07F5000000000000
0AE1016BEFEB6000
0E802DFD989DFC10
3E11DF6000006FB0
0007F700000008F5
000CF100000001FA
000FC000000000DE
001FA000000000CF
001FA000000000CF
000FC000000000DE
000CF100000001FA
0007F700000008F5
0001DF5000006FB0
00002DFC878CFC10
0000017BEFEB6000
ENDCHAR
STARTCHAR Upsilontonos
ENCODING 910
SWIDTH 689 0
DWIDTH 14 0
BBX 15 15 -1 0
BITMAP
09F3000000000000
0CC2FA0000004F80
1F609F300000CE10
5C001EB00005F600
000007F4000DD000
000001DC007F4000
0000006F61EB0000
0000000CD9F30000
00000004FF900000
00000000CF200000
00000000AF000000
00000000AF000000
00000000AF000000
00000000AF000000
00000000AF000000
ENDCHAR
STARTCHAR Omegatonos
ENCODING 911
SWIDTH 812 0
DWIDTH 16 0
BBX 17 15 -1 0
BITMAP
07F500000000000000
0AE1017CEFEB710000
0E803EFC889CFD2000
3E12EE4000005FD100
0009F500000007F700
000DE000000001FC00
001FB000000000DE00
001FB000000000CE00
000EC000000000EC00
000BE100000002F900
0006F500000007F400
0000CD1000002EB000
00003EB10001CD2000
00477AFC101DF97740
009FFFFF204FFFFF80
ENDCHAR
STARTCHAR iotadieresistonos
ENCODING 912
SWIDTH 338 0
DWIDTH 7 0
BBX 8 17 -1 0
BITMAP
0003F900
0008D100
2E5D3C90
1D500B90
00000000
00000000
005F4000
005F4000
005F4000
005F4000
005F4000
005F4000
005F4000
005F4000
004F6000
001ED663
0004CFE5
ENDCHAR
STARTCHAR Alpha
ENCODING 913
SWIDTH 632 0
DWIDTH 13 0
BBX 13 14 0 0
BITMAP
000008F4000000
00000EFA000000
00006F8F100000
0000CC2F700000
0003F60BD00000
0009E105F40000
001E9000EA0000
006F30008F1000
00CFFFFFFF7000
03FA88888DD000
09F1000007F400
1EA0000001FA00
6F40000000AF10
CD000000004F70
ENDCHAR
STARTCHAR Beta
ENCODING 914
SWIDTH 647 0
DWIDTH 13 0
BBX 10 14 2 0
BITMAP
FFFFFEB700
FC7778CFB0
F900000BF3
F9000006F5
F9000008F3
F900026E90
FFFFFFE500
FC6668BF90
F9000006F7
F9000000FC
F9000001FC
F9000007F9
FC6668BFD1
FFFFFFD810
ENDCHAR
STARTCHAR Gamma
ENCODING 915
SWIDTH 520 0
DWIDTH 10 0
BBX 8 14 2 0
BITMAP
FFFFFFFE
FC888887
F9000000
F9000000
F9000000
F9000000
F9000000
F9000000
F9000000
F9000000
F9000000
F9000000
F9000000
F9000000
ENDCHAR
STARTCHAR uni0394
ENCODING 916
SWIDTH 571 0
DWIDTH 11 0
BBX 12 14 0 0
BITMAP
00004FA00000
00009FF10000
0000EAF60000
0005F3DB0000
000AE08F1000
001F903F7000
006F400DC000
00BD0008F200
01F80003F700
06F30000CC00
0BD000007F30
2F8000002F80
7F9777777ED0
9FFFFFFFFFF1
ENDCHAR
STARTCHAR Epsilon
ENCODING 917
SWIDTH 556 0
DWIDTH 11 0
BBX 8 14 2 0
BITMAP
FFFFFFFE
FC777776
F9000000
F9000000
F9000000
F9000000
FFFFFFF8
FC777774
F9000000
F9000000
F9000000
F9000000
FC777777
FFFFFFFE
ENDCHAR
STARTCHAR Zeta
ENCODING 918
SWIDTH 570 0
DWIDTH 11 0
BBX 11 14 0 0
BITMAP
0FFFFFFFFF60
07888888DF30
00000005F900
0000001ED100
000000AF3000
000005F80000
00001ED00000
0000AF300000
0005F8000000
001EC0000000
00AF30000000
06F800000000
1EF888888850
3FFFFFFFFF90
ENDCHAR
STARTCHAR Eta
ENCODING 919
SWIDTH 737 0
DWIDTH 15 0
BBX 11 14 2 0
BITMAP
F90000000DC0
F90000000DC0
F90000000DC0
F90000000DC0
F90000000DC0
F90000000DC0
FFFFFFFFFFC0
FC7777777EC0
F90000000DC0
F90000000DC0
F90000000DC0
F90000000DC0
F90000000DC0
F90000000DC0
ENDCHAR
STARTCHAR Theta
ENCODING 920
SWIDTH 778 0
DWIDTH 16 0
BBX 14 14 1 0
BITMAP
0004ADFEC81000
00AFEA88BFE400
08F9100003DE20
2FC00000003FA0
7F500000000BF1
AF2000000008F4
BF04FFFFFD07F5
BF0277777607F5
AF2000000008F4
7F500000000BF1
2FC00000003FA0
09F9000002DE20
00AFD978BFE400
0004ADFEC81000
ENDCHAR
STARTCHAR Iota
ENCODING 921
SWIDTH 278 0
DWIDTH 6 0
BBX 2 14 2 0
BITMAP
F9
F9
F9
F9
F9
F9
F9
F9
F9
F9
F9
F9
F9
F9
ENDCHAR
STARTCHAR Kappa
ENCODING 922
SWIDTH 613 0
DWIDTH 12 0
BBX 11 14 2 0
BITMAP
F9000006F900
F900005FA000
F90004FA0000
F9003EB00000
F903EB100000
F92EC1000000
FBDFA0000000
FFBAF6000000
FB01DE300000
F9002ED10000
F90005FA0000
F900009F6000
F900000CF300
F9000002ED10
ENDCHAR
STARTCHAR Lambda
ENCODING 923
SWIDTH 603 0
DWIDTH 12 0
BBX 12 14 0 0
BITMAP
00001FF10000
00006FF70000
0000CCCC0000
0002F87F3000
0008F32F8000
000DD00CE000
004F7007F400
009F2001FA00
00EB0000BF10
05F600005F60
0BF100001EC0
1FA0000009F2
7F50000004F8
CE00000000DD
ENDCHAR
STARTCHAR Mu
ENCODING 924
SWIDTH 902 0
DWIDTH 18 0
BBX 15 14 2 0
BITMAP
FFA000000009FF20
FEF10000001EEF20
F9F70000005F9F20
F7CD000000BB8F20
F76F300002F58F20
F71F900008E08F20
F80AE1000E908F20
F804F6005F308F20
F800DC00BC008F20
F8007F32F6008F20
F8002F98E1008F20
F8000AEE90008F20
F80005FF30008F20
F80000EC00008F20
ENDCHAR
STARTCHAR Nu
ENCODING 925
SWIDTH 753 0
DWIDTH 15 0
BBX 12 14 2 0
BITMAP
FF30000007F2
FFC0000007F2
FCF8000007F2
F6BF300007F2
F72EC00007F2
F706F80007F2
F700BF3007F2
F8002EC007F2
F80007F707F2
F80000BF36F2
F800002EC6F2
F8000007FCF2
F8000000CFF2
F80000002EF2
ENDCHAR
STARTCHAR Xi
ENCODING 926
SWIDTH 553 0
DWIDTH 11 0
BBX 11 14 0 0
BITMAP
0DFFFFFFFF00
067777777700
000000000000
000000000000
000000000000
000000000000
01FFFFFFF200
017777777100
000000000000
000000000000
000000000000
000000000000
277777777730
4FFFFFFFFF50
ENDCHAR
STARTCHAR Omicron
ENCODING 927
SWIDTH 778 0
DWIDTH 16 0
BBX 14 14 1 0
BITMAP
0004ADFEC81000
00AFEA88BFE400
08FA100003DE20
2FC00000003FA0
7F500000000CF1
AF2000000008F4
BF0000000007F5
BF0000000007F5
AF2000000008F4
7F500000000CF1
2FC00000003FA0
09F9000003DE20
00AFE978BFE400
0004ADFEC81000
ENDCHAR
STARTCHAR Pi
ENCODING 928
SWIDTH 729 0
DWIDTH 15 0
BBX 11 14 2 0
BITMAP
FFFFFFFFFF90
FC7777777F90
F90000001F90
F90000001F90
F90000001F90
F90000001F90
F90000001F90
F90000001F90
F90000001F90
F90000001F90
F90000001F90
F90000001F90
F90000001F90
F90000001F90
ENDCHAR
STARTCHAR Rho
ENCODING 929
SWIDTH 602 0
DWIDTH 12 0
BBX 9 14 2 0
BITMAP
FFFFED9200
FC778BFE30
F900005FB0
F900000CE0
F900000CF0
F900002EC0
F90015DF40
FFFFFFD400
FC66530000
F900000000
F900000000
F900000000
F900000000
F900000000
ENDCHAR
STARTCHAR Sigma
ENCODING 931
SWIDTH 566 0
DWIDTH 11 0
BBX 11 14 0 0
BITMAP
2FFFFFFFFF50
1EF877777720
03FA00000000
005F80000000
0007F6000000
00009F400000
00000CE10000
00004F900000
0002EC000000
000CD1000000
009F30000000
06F600000000
2ED777777770
4FFFFFFFFFE0
ENDCHAR
STARTCHAR Tau
ENCODING 932
SWIDTH 553 0
DWIDTH 11 0
BBX 11 14 0 0
BITMAP
CFFFFFFFFFD0
67779FA77760
00004F500000
00004F500000
00004F500000
00004F500000
00004F500000
00004F500000
00004F500000
00004F500000
00004F500000
00004F500000
00004F500000
00004F500000
ENDCHAR
STARTCHAR Upsilon
ENCODING 933
SWIDTH 560 0
DWIDTH 11 0
BBX 12 14 0 0
BITMAP
BF2000000DD1
3F9000006F60
09F30001EC00
02FB0008F400
008F401EB000
001EC09F2000
0006F7F90000
0000DFE10000
00005F800000
00004F700000
00004F700000
00004F700000
00004F700000
00004F700000
ENDCHAR
STARTCHAR Phi
ENCODING 934
SWIDTH 797 0
DWIDTH 16 0
BBX 14 14 1 0
BITMAP
000000DC000000
000000DC000000
004AEFFFFEA400
08FE97ED79EF80
5FA100DC001AF4
BF1000DC0001FA
EC0000DC0000DD
EC0000DC0000DD
BF1000DC0002FA
4FB100DC001BF3
08FE97ED79EF70
004ADFFFFDA300
000000DC000000
000000DC000000
ENDCHAR
STARTCHAR Chi
ENCODING 935
SWIDTH 577 0
DWIDTH 12 0
BBX 12 14 0 0
BITMAP
4F8000001EC0
09F300009F20
01DC0004F700
004F701DC000
0009F28F2000
0001DCF70000
00005FD00000
0000BFF40000
0005F5CD1000
001EA03F8000
00AE2009F300
04F60001EC00
1DC000005F70
9F3000000BF3
ENDCHAR
STARTCHAR Psi
ENCODING 936
SWIDTH 795 0
DWIDTH 16 0
BBX 14 14 1 0
BITMAP
EC0000DC0000DD
EC0000DC0000DD
EC0000DC0000DD
EC0000DC0000DD
EC0000DC0000DD
CE0000DC0000FB
8F6000DC0006F7
1DE720DC028FC1
02BFFFFFFFFA10
000256ED652000
000000DC000000
000000DC000000
000000DC000000
000000DC000000
ENDCHAR
STARTCHAR uni03A9
ENCODING 937
SWIDTH 782 0
DWIDTH 16 0
BBX 15 14 0 0
BITMAP
00005ADFED920000
001BFD988AFF6000
00AF8000002CF500
03FB00000001ED00
08F400000000AF20
0AF2000000007F50
0AF1000000007F50
09F3000000008F30
05F600000000BE10
01EB00000002FA00
007F5000000AF200
000AE300007F6000
2778EE4008FC7760
3FFFFF800DFFFFD0
ENDCHAR
STARTCHAR Iotadieresis
ENCODING 938
SWIDTH 278 0
DWIDTH 6 0
BBX 6 18 0 0
BITMAP
BA02E5
B901D5
000000
000000
00F900
00F900
00F900
00F900
00F900
00F900
00F900
00F900
00F900
00F900
00F900
00F900
00F900
00F900
ENDCHAR
STARTCHAR Upsilondieresis
ENCODING 939
SWIDTH 560 0
DWIDTH 11 0
BBX 12 18 0 0
BITMAP
001D704E3000
001D704E3000
000000000000
000000000000
BF2000000DD1
3F9000006F60
09F30001EC00
02FB0008F400
008F401EB000
001EC09F2000
0006F7F90000
0000DFE10000
00005F800000
00004F700000
00004F700000
00004F700000
00004F700000
00004F700000
ENDCHAR
STARTCHAR alphatonos
ENCODING 940
SWIDTH 610 0
DWIDTH 12 0
BBX 11 16 1 0
BITMAP
00000ED00000
00002F700000
00006E100000
0000A8000000
000000000000
007DFE918D00
0AFA68DCDB00
5F80001CF900
AF100005F800
CD000003F800
DC000002F800
CD000002F800
AF100005F800
5F70000BF800
0BF967CCEC50
018DFD916EC0
ENDCHAR
STARTCHAR epsilontonos
ENCODING 941
SWIDTH 475 0
DWIDTH 10 0
BBX 9 16 0 0
BITMAP
00000CF100
00000EA000
00003F3000
00007A0000
0000000000
004BEFDB50
05FC768C70
0BE1000000
0BD0000000
05F9200000
005EFFF000
05EB766000
0EA0000000
1FA0000010
0AFA667BC0
006CEFDB50
ENDCHAR
STARTCHAR etatonos
ENCODING 942
SWIDTH 613 0
DWIDTH 12 0
BBX 10 21 1 -5
BITMAP
00000AF200
00000DC000
00001F5000
00006C0000
0000000000
4F27CFEA30
4FCE868EE2
4FE20004F7
4F800000FA
4F600000EA
4F500000EA
4F500000EA
4F500000EA
4F500000EA
4F500000EA
4F500000EA
00000000EA
00000000EA
00000000EA
00000000EA
00000000EA
ENDCHAR
STARTCHAR iotatonos
ENCODING 943
SWIDTH 338 0
DWIDTH 7 0
BBX 6 16 1 0
BITMAP
05F700
08F200
0BA000
1E2000
000000
5F4000
5F4000
5F4000
5F4000
5F4000
5F4000
5F4000
5F4000
4F6000
1ED663
04CFE5
ENDCHAR
STARTCHAR upsilondieresistonos
ENCODING 944
SWIDTH 608 0
DWIDTH 12 0
BBX 11 17 1 0
BITMAP
000009F30000
00000E800000
007D5B4E3000
006D003E3000
000000000000
000000000000
6F300001F900
6F300000DC00
6F300000AE00
6F3000009F10
6F3000008F10
6F3000008F10
5F400000AF00
4F700000DC00
1ED10006F700
07FD769FC000
005CEFD81000
ENDCHAR
STARTCHAR alpha
ENCODING 945
SWIDTH 610 0
DWIDTH 12 0
BBX 11 11 1 0
BITMAP
007DFE918D00
0AFA68DCDB00
5F80001CF900
AF100005F800
CD000003F800
DC000002F800
CD000002F800
AF100005F800
5F70000BF800
0BF967CCEC50
018DFD916EC0
ENDCHAR
STARTCHAR beta
ENCODING 946
SWIDTH 627 0
DWIDTH 13 0
BBX 11 20 1 -5
BITMAP
003AEFDA3000
04FD868DF400
0DD10001EC00
3F700000BF00
4F500000DD00
4F50003AF700
4F50AFFC6000
4F50468B8100
4F500000BD00
4F5000003F60
4F5000000F90
4F5000002F90
4F6000008F50
4FFA767BFB00
4F79DFEC7000
4F5000000000
4F5000000000
4F5000000000
4F5000000000
4F5000000000
ENDCHAR
STARTCHAR gamma
ENCODING 947
SWIDTH 512 0
DWIDTH 10 0
BBX 10 16 0 -5
BITMAP
BE100000BE
5F600002F9
0DC00007F3
08F3000DD0
02F9004F70
00AF109F20
004F60EB00
000DC4F600
0007FAE100
0002FFA000
0000AF4000
0000BE0000
0000FB0000
0003F70000
0006F50000
0008F30000
ENDCHAR
STARTCHAR delta
ENCODING 948
SWIDTH 580 0
DWIDTH 12 0
BBX 10 15 1 0
BITMAP
0029DFDA50
00CE768CF3
02F8000030
01FB000000
007FB20000
0005EE8100
004BEAED20
08F7102DE1
5F700003F8
BF000000DC
DD000000CE
CE000000EC
8F700007F7
1CFA77AFC0
017CFFC700
ENDCHAR
STARTCHAR epsilon
ENCODING 949
SWIDTH 475 0
DWIDTH 10 0
BBX 9 11 0 0
BITMAP
004BEFDB50
05FC768C70
0BE1000000
0BD0000000
05F9200000
005EFFF000
05EB766000
0EA0000000
1FA0000010
0AFA667BC0
006CEFDB50
ENDCHAR
STARTCHAR zeta
ENCODING 950
SWIDTH 482 0
DWIDTH 10 0
BBX 9 19 1 -4
BITMAP
4FFFFFFF10
266668FB00
00004E9000
0004E90000
003E900000
01EC000000
0AE2000000
2F80000000
8F20000000
CE00000000
DC00000000
BE00000000
8F60000000
1DFC730000
019EFFD500
000026EE00
0000009F00
000000DB00
000007F300
ENDCHAR
STARTCHAR eta
ENCODING 951
SWIDTH 613 0
DWIDTH 12 0
BBX 10 16 1 -5
BITMAP
4F27CFEA30
4FCE868EE2
4FE20004F7
4F800000FA
4F600000EA
4F500000EA
4F500000EA
4F500000EA
4F500000EA
4F500000EA
4F500000EA
00000000EA
00000000EA
00000000EA
00000000EA
00000000EA
ENDCHAR
STARTCHAR theta
ENCODING 952
SWIDTH 591 0
DWIDTH 12 0
BBX 10 15 1 0
BITMAP
005CEEB300
06FC67DE30
1EC0001EC0
6F500008F3
9F100003F7
CD000001F9
DC000000FA
DFFFFFFFFB
DD666666EA
BC000000F9
9E000002F7
5F300006F3
1EA0001DD0
05FB67CF40
004CEEB300
ENDCHAR
STARTCHAR iota
ENCODING 953
SWIDTH 338 0
DWIDTH 7 0
BBX 6 11 1 0
BITMAP
5F4000
5F4000
5F4000
5F4000
5F4000
5F4000
5F4000
5F4000
4F6000
1ED663
04CFE5
ENDCHAR
STARTCHAR kappa
ENCODING 954
SWIDTH 518 0
DWIDTH 10 0
BBX 10 11 1 0
BITMAP
4F70007F90
4F7004FB00
4F702ED100
4F71DE2000
4F6BF40000
4FDFF60000
4FE3CE2000
4F703FC000
4F7007F800
4F7000BF30
4F70002ED1
ENDCHAR
STARTCHAR lambda
ENCODING 955
SWIDTH 534 0
DWIDTH 11 0
BBX 11 15 0 0
BITMAP
2EFB20000000
167EC0000000
0006F5000000
0000EB000000
00009F100000
0000DF700000
0005FCC00000
000CB6F30000
003F61F90000
00AE10AE0000
02F8005F5000
09F2000EA000
1EA00009F100
7F300003FA40
DC0000008E90
ENDCHAR
STARTCHAR uni03BC
ENCODING 956
SWIDTH 619 0
DWIDTH 12 0
BBX 10 16 1 -5
BITMAP
4F500000EA
4F500000EA
4F500000EA
4F500000EA
4F500000EA
4F500000EA
4F500000FA
4F600003FA
4FA00009FA
4FFA67BEEA
4F7CEEA2BA
4F50000000
4F50000000
4F50000000
4F50000000
4F50000000
ENDCHAR
STARTCHAR nu
ENCODING 957
SWIDTH 541 0
DWIDTH 11 0
BBX 10 11 0 0
BITMAP
CD0000009F
7F300000AE
2F900000BD
0BE00000DB
06F50001F8
01EA0005F3
00AF100CD0
004F604F60
000EB1DC00
0008FCE200
0003FF4000
ENDCHAR
STARTCHAR xi
ENCODING 958
SWIDTH 475 0
DWIDTH 10 0
BBX 8 19 1 -4
BITMAP
4FFFFFF8
258DC752
06F60000
1E900000
3F600000
2F800000
0AF62000
008FFFF5
08FB6441
5F700000
BE000000
DC000000
AF300000
3FE83000
03BFFEA3
000148ED
0000008F
000000BB
000005F3
ENDCHAR
STARTCHAR omicron
ENCODING 959
SWIDTH 604 0
DWIDTH 12 0
BBX 10 11 1 0
BITMAP
006CEEC600
09FB66BF90
4F900008F4
9F100001FA
CD000000DD
DC000000BE
CE000000DD
9F200001FA
3F900008F4
07FB66AF90
005BEEC600
ENDCHAR
STARTCHAR pi
ENCODING 960
SWIDTH 649 0
DWIDTH 13 0
BBX 13 11 0 0
BITMAP
6EFFFFFFFFFF60
46BF66669F9620
009F00005F4000
009F00005F4000
009F00005F4000
009F00005F4000
009F00005F4000
009F00005F4000
009F00004F5000
009F00002FB600
009F000008EE10
ENDCHAR
STARTCHAR rho
ENCODING 961
SWIDTH 604 0
DWIDTH 12 0
BBX 10 16 1 -5
BITMAP
003AEFD700
03ED869FA0
0CD10006F5
2F800000EB
5F500000CD
6F400000BE
6F400000CD
6F400000EB
6F600006F5
6FFA76AFB0
6F6BEFD700
6F40000000
6F40000000
6F40000000
6F40000000
6F40000000
ENDCHAR
STARTCHAR sigma1
ENCODING 962
SWIDTH 481 0
DWIDTH 10 0
BBX 8 15 1 -4
BITMAP
004BEED9
07FC879A
2FA00000
8F200000
CE000000
DC000000
CD000000
AE000000
5F900000
0BFD8410
007CFFE5
000015DE
0000008F
000000CB
000005F3
ENDCHAR
STARTCHAR sigma
ENCODING 963
SWIDTH 612 0
DWIDTH 12 0
BBX 11 11 1 0
BITMAP
004ADFFFFFC0
07FD868FA650
3FB1000AE200
9F200002F800
CD000000DC00
DC000000CE00
CD000000CD00
AF200001EA00
4F900008F500
09FB67BF9000
006CEEC60000
ENDCHAR
STARTCHAR tau
ENCODING 964
SWIDTH 473 0
DWIDTH 9 0
BBX 9 11 0 0
BITMAP
6EFFFFFFE0
566EC66650
000EB00000
000EB00000
000EB00000
000EB00000
000EB00000
000EB00000
000CD00000
0007FB6630
00008DFE40
ENDCHAR
STARTCHAR upsilon
ENCODING 965
SWIDTH 608 0
DWIDTH 12 0
BBX 11 11 1 0
BITMAP
6F300001F900
6F300000DC00
6F300000AE00
6F3000009F10
6F3000008F10
6F3000008F10
5F400000AF00
4F700000DC00
1ED10006F700
07FD769FC000
005CEFD81000
ENDCHAR
STARTCHAR phi
ENCODING 966
SWIDTH 717 0
DWIDTH 14 0
BBX 13 16 1 -5
BITMAP
03B2005DFC4000
0DE103FB6CF300
5F7009F101FB00
9F100AD000AF10
CD000BD0008F30
DC000BD0007F30
CE000BD0009F20
9F300BD001ED00
3FB10BD009F600
07FD8CE8CF9000
004AEFFEB50000
00000BD0000000
00000BD0000000
00000BD0000000
00000BD0000000
00000BD0000000
ENDCHAR
STARTCHAR chi
ENCODING 967
SWIDTH 545 0
DWIDTH 11 0
BBX 12 16 -1 -5
BITMAP
06EC20000AF2
027FA0003F80
0009F100AE10
0003F703F700
0000CD0AD000
00007F6F6000
00001FFC0000
00000CF50000
00003FF60000
0000AEDC0000
0004F77F3000
000CD02F8000
005F600BE000
00DD0005F600
06F50000DE64
1DC000002BEB
ENDCHAR
STARTCHAR psi
ENCODING 968
SWIDTH 752 0
DWIDTH 15 0
BBX 13 20 1 -5
BITMAP
000003F6000000
000003F6000000
000003F6000000
000003F6000000
6F3003F6005F40
6F3003F6002F70
6F3003F6000F90
6F3003F6000EB0
6F3003F6000DC0
6F4003F6000DC0
5F5003F6000FA0
2F9003F6005F70
0BF403F603DE10
02DFA9FAAEE400
0018DFFFD82000
000003F6000000
000003F6000000
000003F6000000
000003F6000000
000003F6000000
ENDCHAR
STARTCHAR omega
ENCODING 969
SWIDTH 772 0
DWIDTH 15 0
BBX 14 11 1 0
BITMAP
0DC00000005F50
4F700000000EB0
8F200000000AE0
BE0000000007F3
CD0001F80006F4
DC0001F80005F5
CD0001F80006F4
AF1002F90008F2
6F5006FC000DD0
0DE77E9FA6BF50
02AEE904CFD600
ENDCHAR
STARTCHAR iotadieresis
ENCODING 970
SWIDTH 338 0
DWIDTH 7 0
BBX 7 15 0 0
BITMAP
BA01D600
AA01D600
00000000
00000000
05F40000
05F40000
05F40000
05F40000
05F40000
05F40000
05F40000
05F40000
04F60000
01ED6630
004CFE50
ENDCHAR
STARTCHAR upsilondieresis
ENCODING 971
SWIDTH 608 0
DWIDTH 12 0
BBX 11 15 1 0
BITMAP
004E308D0000
003E307D0000
000000000000
000000000000
6F300001F900
6F300000DC00
6F300000AE00
6F3000009F10
6F3000008F10
6F3000008F10
5F400000AF00
4F700000DC00
1ED10006F700
07FD769FC000
005CEFD81000
ENDCHAR
STARTCHAR omicrontonos
ENCODING 972
SWIDTH 604 0
DWIDTH 12 0
BBX 10 16 1 0
BITMAP
00000DD000
00001F8000
00005F2000
0000980000
0000000000
006CEEC600
09FB66BF90
4F900008F4
9F100001FA
CD000000DD
DC000000BE
CE000000DD
9F200001FA
3F900008F4
07FB66AF90
005BEEC600
ENDCHAR
STARTCHAR upsilontonos
ENCODING 973
SWIDTH 608 0
DWIDTH 12 0
BBX 11 16 1 0
BITMAP
00000DE00000
00001F900000
00004F200000
000099000000
000000000000
6F300001F900
6F300000DC00
6F300000AE00
6F3000009F10
6F3000008F10
6F3000008F10
5F400000AF00
4F700000DC00
1ED10006F700
07FD769FC000
005CEFD81000
ENDCHAR
STARTCHAR omegatonos
ENCODING 974
SWIDTH 772 0
DWIDTH 15 0
BBX 14 16 1 0
BITMAP
0000004F800000
0000007F300000
000000AB000000
000000E3000000
00000000000000
0DC00000005F50
4F700000000EB0
8F200000000AE0
BE0000000007F3
CD0001F80006F4
DC0001F80005F5
CD0001F80006F4
AF1002F90008F2
6F5006FC000DD0
0DE77E9FA6BF50
02AEE904CFD600
ENDCHAR
STARTCHAR uni03D1
ENCODING 977
SWIDTH 622 0
DWIDTH 12 0
BBX 13 15 0 0
BITMAP
0004CEEA200000
003FC67EE20000
007F2003FB0000
008F10009F3000
003F80003F7000
0008FB521FA000
00004BEFFFFF30
AED300023DD410
46F900000CD000
01F800000DC000
02F600000FA000
04F500004F5000
03F70001CD0000
00DE757DE30000
002ADFEA200000
ENDCHAR
STARTCHAR uni03D2
ENCODING 978
SWIDTH 564 0
DWIDTH 11 0
BBX 12 14 0 0
BITMAP
BF2000002CE3
3F900000CE71
0AF20005F600
02FA000CC000
009F304F5000
001EB0BC0000
0008F6F50000
0001EFD00000
00007F700000
00005F500000
00005F500000
00005F500000
00005F500000
00005F500000
ENDCHAR
STARTCHAR uni03D6
ENCODING 982
SWIDTH 839 0
DWIDTH 17 0
BBX 17 11 0 0
BITMAP
7EFFFFFFFFFFFFFF20
568FA6666666DE6610
008F200000007F2000
00DB000000002F7000
02F8000000000EA000
04F50008F1000DC000
05F50008F1000CD000
04F60009F2000EC000
01FB000DF6003F8000
009FA6BE9E77EE2000
0008DFC409EFB30000
ENDCHAR
STARTCHAR uni0400
ENCODING 1024
SWIDTH 556 0
DWIDTH 11 0
BBX 8 18 2 0
BITMAP
04FB0000
007F5000
0006E200
00000000
FFFFFFFE
FC777776
F9000000
F9000000
F9000000
F9000000
FFFFFFF8
FC777774
F9000000
F9000000
F9000000
F9000000
FC777777
FFFFFFFE
ENDCHAR
STARTCHAR afii10023
ENCODING 1025
SWIDTH 556 0
DWIDTH 11 0
BBX 8 18 2 0
BITMAP
06D10AA0
06D10AA0
00000000
00000000
FFFFFFFE
FC777776
F9000000
F9000000
F9000000
F9000000
FFFFFFF8
FC777774
F9000000
F9000000
F9000000
F9000000
FC777777
FFFFFFFE
ENDCHAR
STARTCHAR afii10051
ENCODING 1026
SWIDTH 733 0
DWIDTH 15 0
BBX 14 14 0 0
BITMAP
CFFFFFFFF70000
677BF877730000
0008F200000000
0008F200000000
0008F200000000
0008FFFFFEC500
0008F87778DF80
0008F200000DE0
0008F2000009F2
0008F2000008F2
0008F2000008F1
0008F200000CE0
0008F20088CF70
0008F200DFD700
ENDCHAR
STARTCHAR afii10052
ENCODING 1027
SWIDTH 520 0
DWIDTH 10 0
BBX 8 18 2 0
BITMAP
0000BF40
0005F600
002E6000
00000000
FFFFFFFE
FC888887
F9000000
F9000000
F9000000
F9000000
F9000000
F9000000
F9000000
F9000000
F9000000
F9000000
F9000000
F9000000
ENDCHAR
STARTCHAR afii10053
ENCODING 1028
SWIDTH 639 0
DWIDTH 13 0
BBX 11 14 1 0
BITMAP
00029DEEDB60
007FFB88AED0
06FB20000020
1ED100000000
6F6000000000
AF2000000000
BFFFFFFFF100
BF7777777100
AF1000000000
7F5000000000
2FC000000000
09FA10000000
00AFEA879B90
0004ADFEDB50
ENDCHAR
STARTCHAR afii10054
ENCODING 1029
SWIDTH 548 0
DWIDTH 11 0
BBX 9 14 1 0
BITMAP
029DEEC930
2EFA89BF60
9F40000110
BE00000000
9F30000000
3FE6000000
04DFE82000
0005BFF900
000002AF80
0000000DE0
0000000BF0
1000002EB0
EC988AEE30
8CEFEC8100
ENDCHAR
STARTCHAR afii10055
ENCODING 1030
SWIDTH 278 0
DWIDTH 6 0
BBX 2 14 2 0
BITMAP
F9
F9
F9
F9
F9
F9
F9
F9
F9
F9
F9
F9
F9
F9
ENDCHAR
STARTCHAR afii10056
ENCODING 1031
SWIDTH 278 0
DWIDTH 6 0
BBX 6 18 0 0
BITMAP
BA02E5
B901D5
000000
000000
00F900
00F900
00F900
00F900
00F900
00F900
00F900
00F900
00F900
00F900
00F900
00F900
00F900
00F900
ENDCHAR
STARTCHAR afii10057
ENCODING 1032
SWIDTH 267 0
DWIDTH 5 0
BBX 6 18 -2 -4
BITMAP
0002F8
0002F8
0002F8
0002F8
0002F8
0002F8
0002F8
0002F8
0002F8
0002F8
0002F8
0002F8
0002F8
0002F8
0003F7
0006F5
589FD0
7FEA20
ENDCHAR
STARTCHAR afii10058
ENCODING 1033
SWIDTH 929 0
DWIDTH 19 0
BBX 18 14 0 0
BITMAP
00009FFFFFF1000000
0000BE777CF1000000
0000EB0009F1000000
0001F90009F1000000
0003F60009F1000000
0005F40009F1000000
0007F20009FFFEC710
000AF00009F878CFD1
000DC00009F10007F9
001F900009F10000FC
004F600009F10000FC
009F200009F10007F8
78FB000009F778BFD1
DEB1000009FFFEC710
ENDCHAR
STARTCHAR afii10059
ENCODING 1034
SWIDTH 953 0
DWIDTH 19 0
BBX 17 14 2 0
BITMAP
F9000001F900000000
F9000001F900000000
F9000001F900000000
F9000001F900000000
F9000001F900000000
F9000001F900000000
FFFFFFFFFFFEDA4000
FC777778FC78AEF700
F9000001F90001DF10
F9000001F900007F40
F9000001F900008F40
F9000001F90001DF10
F9000001FB779EF600
F9000001FFFFDA4000
ENDCHAR
STARTCHAR afii10060
ENCODING 1035
SWIDTH 733 0
DWIDTH 15 0
BBX 14 14 0 0
BITMAP
CFFFFFFFFF1000
677BF877771000
0008F200000000
0008F200000000
0008F200000000
0008FFFFFEC600
0008F87778DF80
0008F200000DE0
0008F2000009F2
0008F2000008F2
0008F2000008F2
0008F2000008F2
0008F2000008F2
0008F2000008F2
ENDCHAR
STARTCHAR afii10061
ENCODING 1036
SWIDTH 611 0
DWIDTH 12 0
BBX 10 18 2 0
BITMAP
00001ED100
0000AE3000
0005D30000
0000000000
F9000006F8
F900006F90
F90005FA00
F9004FA000
F904EB0000
F93EC10000
FCED100000
FACF400000
F91CE40000
F901DE3000
F9002EE200
F90003ED10
F900003EC1
F9000004FB
ENDCHAR
STARTCHAR uni040D
ENCODING 1037
SWIDTH 762 0
DWIDTH 15 0
BBX 12 18 2 0
BITMAP
001DF2000000
0002DB000000
00002D700000
000000000000
F80000000CF4
F80000008FF4
F8000004FBF4
F800001DD3F4
F800009F43F4
F80004F903F4
F8001DD104F4
F800AF4004F4
F805F80004F4
F81ED00004F4
F7BF300004F4
FCF8000004F4
FFC0000004F4
FF20000004F4
ENDCHAR
STARTCHAR afii10062
ENCODING 1038
SWIDTH 621 0
DWIDTH 12 0
BBX 13 18 0 0
BITMAP
001F70009E0000
000CD536F90000
0002AEFD810000
00000000000000
7F500000008F30
1DD0000001EB00
06F7000007F400
00CE10000DC000
005F80006F5000
000BE100CD0000
0003F904F60000
0000AF2BE10000
00002FBF700000
000009FE100000
000005F8000000
00001DE1000000
1B89EF50000000
0DFEB400000000
ENDCHAR
STARTCHAR afii10145
ENCODING 1039
SWIDTH 729 0
DWIDTH 15 0
BBX 11 18 2 -4
BITMAP
F90000001F90
F90000001F90
F90000001F90
F90000001F90
F90000001F90
F90000001F90
F90000001F90
F90000001F90
F90000001F90
F90000001F90
F90000001F90
F90000001F90
FC8888888F90
FFFFFFFFFF90
0000AF100000
0000AF100000
0000AF100000
0000AF100000
ENDCHAR
STARTCHAR afii10017
ENCODING 1040
SWIDTH 632 0
DWIDTH 13 0
BBX 13 14 0 0
BITMAP
000008F4000000
00000EFA000000
00006F8F100000
0000CC2F700000
0003F60BD00000
0009E105F40000
001E9000EA0000
006F30008F1000
00CFFFFFFF7000
03FA88888DD000
09F1000007F400
1EA0000001FA00
6F40000000AF10
CD000000004F70
ENDCHAR
STARTCHAR afii10018
ENCODING 1041
SWIDTH 612 0
DWIDTH 12 0
BBX 10 14 2 0
BITMAP
FFFFFFFF60
FC77777730
F900000000
F900000000
F900000000
F900000000
FFFFEDA400
FC778AEF70
F900001DE1
F9000009F3
F9000009F3
F900001EE0
FC7779EF60
FFFFFEA400
ENDCHAR
STARTCHAR afii10019
ENCODING 1042
SWIDTH 647 0
DWIDTH 13 0
BBX 10 14 2 0
BITMAP
FFFFFEB700
FC7778CFB0
F900000BF3
F9000006F5
F9000008F3
F900026E90
FFFFFFE500
FC6668BF90
F9000006F7
F9000000FC
F9000001FC
F9000007F9
FC6668BFD1
FFFFFFD810
ENDCHAR
STARTCHAR afii10020
ENCODING 1043
SWIDTH 520 0
DWIDTH 10 0
BBX 8 14 2 0
BITMAP
FFFFFFFE
FC888887
F9000000
F9000000
F9000000
F9000000
F9000000
F9000000
F9000000
F9000000
F9000000
F9000000
F9000000
F9000000
ENDCHAR
STARTCHAR afii10021
ENCODING 1044
SWIDTH 683 0
DWIDTH 14 0
BBX 14 18 0 -4
BITMAP
00001FFFFFF600
00003FB889F600
00004F5004F600
00007F3004F600
0000BE0004F600
0000EB0004F600
0003F70004F600
0008F20004F600
000DC00004F600
004F600004F600
00BE100004F600
03F7000004F600
6CF8888889FB82
DFFFFFFFFFFFF3
DB0000000005F3
DB0000000005F3
DB0000000005F3
DB0000000005F3
ENDCHAR
STARTCHAR afii10022
ENCODING 1045
SWIDTH 556 0
DWIDTH 11 0
BBX 8 14 2 0
BITMAP
FFFFFFFE
FC777776
F9000000
F9000000
F9000000
F9000000
FFFFFFF8
FC777774
F9000000
F9000000
F9000000
F9000000
FC777777
FFFFFFFE
ENDCHAR
STARTCHAR afii10024
ENCODING 1046
SWIDTH 844 0
DWIDTH 17 0
BBX 17 14 0 0
BITMAP
6F700005F400009F40
08F50005F40007F600
00BE3005F4004F9000
001DD105F402EB0000
0002EB05F41DD10000
00004F95F4BE200000
000007FBFBF5000000
00000BF8F8F9000000
00008F55F47F600000
0005F805F40AF40000
003EB005F401DE2000
01DD1005F4002EC000
0BF30005F40004F900
9F600005F400007F70
ENDCHAR
STARTCHAR afii10025
ENCODING 1047
SWIDTH 581 0
DWIDTH 12 0
BBX 11 14 0 0
BITMAP
016BEFDB5000
1DFB868DF900
05200001CF20
000000008F30
00000000CE10
0000025BE400
00BFFFF92000
0046679EE500
00000001BF20
000000005F70
000000005F70
11000001CF30
4FB8679EF700
17CDFFD93000
ENDCHAR
STARTCHAR afii10026
ENCODING 1048
SWIDTH 762 0
DWIDTH 15 0
BBX 12 14 2 0
BITMAP
F80000000CF4
F80000008FF4
F8000004FBF4
F800001DD3F4
F800009F43F4
F80004F903F4
F8001DD104F4
F800AF4004F4
F805F80004F4
F81ED00004F4
F7BF300004F4
FCF8000004F4
FFC0000004F4
FF20000004F4
ENDCHAR
STARTCHAR afii10027
ENCODING 1049
SWIDTH 762 0
DWIDTH 15 0
BBX 12 18 2 0
BITMAP
008E0001F700
004F934BE200
0006CEEB4000
000000000000
F80000000CF4
F80000008FF4
F8000004FBF4
F800001DD3F4
F800009F43F4
F80004F903F4
F8001DD104F4
F800AF4004F4
F805F80004F4
F81ED00004F4
F7BF300004F4
FCF8000004F4
FFC0000004F4
FF20000004F4
ENDCHAR
STARTCHAR afii10028
ENCODING 1050
SWIDTH 611 0
DWIDTH 12 0
BBX 10 14 2 0
BITMAP
F9000006F8
F900006F90
F90005FA00
F9004FA000
F904EB0000
F93EC10000
FCED100000
FACF400000
F91CE40000
F901DE3000
F9002EE200
F90003ED10
F900003EC1
F9000004FB
ENDCHAR
STARTCHAR afii10029
ENCODING 1051
SWIDTH 704 0
DWIDTH 14 0
BBX 13 14 0 0
BITMAP
00009FFFFFFF20
0000CD7777BF20
0000EA00008F20
0001F800008F20
0003F600008F20
0005F400008F20
0007F200008F20
000AF000008F20
000CC000008F20
000F9000008F20
004F6000008F20
009F2000008F20
78FB0000008F20
DEB10000008F20
ENDCHAR
STARTCHAR afii10030
ENCODING 1052
SWIDTH 902 0
DWIDTH 18 0
BBX 15 14 2 0
BITMAP
FFA000000009FF20
FEF10000001EEF20
F9F70000005F9F20
F7CD000000BB8F20
F76F300002F58F20
F71F900008E08F20
F80AE1000E908F20
F804F6005F308F20
F800DC00BC008F20
F8007F32F6008F20
F8002F98E1008F20
F8000AEE90008F20
F80005FF30008F20
F80000EC00008F20
ENDCHAR
STARTCHAR afii10031
ENCODING 1053
SWIDTH 737 0
DWIDTH 15 0
BBX 11 14 2 0
BITMAP
F90000000DC0
F90000000DC0
F90000000DC0
F90000000DC0
F90000000DC0
F90000000DC0
FFFFFFFFFFC0
FC7777777EC0
F90000000DC0
F90000000DC0
F90000000DC0
F90000000DC0
F90000000DC0
F90000000DC0
ENDCHAR
STARTCHAR afii10032
ENCODING 1054
SWIDTH 778 0
DWIDTH 16 0
BBX 14 14 1 0
BITMAP
0004ADFEC81000
00AFEA88BFE400
08FA100003DE20
2FC00000003FA0
7F500000000CF1
AF2000000008F4
BF0000000007F5
BF0000000007F5
AF2000000008F4
7F500000000CF1
2FC00000003FA0
09F9000003DE20
00AFE978BFE400
0004ADFEC81000
ENDCHAR
STARTCHAR afii10033
ENCODING 1055
SWIDTH 729 0
DWIDTH 15 0
BBX 11 14 2 0
BITMAP
FFFFFFFFFF90
FC7777777F90
F90000001F90
F90000001F90
F90000001F90
F90000001F90
F90000001F90
F90000001F90
F90000001F90
F90000001F90
F90000001F90
F90000001F90
F90000001F90
F90000001F90
ENDCHAR
STARTCHAR afii10034
ENCODING 1056
SWIDTH 602 0
DWIDTH 12 0
BBX 9 14 2 0
BITMAP
FFFFED9200
FC778BFE30
F900005FB0
F900000CE0
F900000CF0
F900002EC0
F90015DF40
FFFFFFD400
FC66530000
F900000000
F900000000
F900000000
F900000000
F900000000
ENDCHAR
STARTCHAR afii10035
ENCODING 1057
SWIDTH 630 0
DWIDTH 13 0
BBX 11 14 1 0
BITMAP
00028CEEDA50
007FFB88AEA0
06FC20000010
1ED100000000
6F7000000000
9F2000000000
BF0000000000
BF0000000000
AF2000000000
7F6000000000
2FD100000000
09FB10000000
00AFEA889C70
0004ADFEDA40
ENDCHAR
STARTCHAR afii10036
ENCODING 1058
SWIDTH 553 0
DWIDTH 11 0
BBX 11 14 0 0
BITMAP
CFFFFFFFFFD0
67779FA77760
00004F500000
00004F500000
00004F500000
00004F500000
00004F500000
00004F500000
00004F500000
00004F500000
00004F500000
00004F500000
00004F500000
00004F500000
ENDCHAR
STARTCHAR afii10037
ENCODING 1059
SWIDTH 621 0
DWIDTH 12 0
BBX 13 14 0 0
BITMAP
7F500000008F30
1DD0000001EB00
06F7000007F400
00CE10000DC000
005F80006F5000
000BE100CD0000
0003F904F60000
0000AF2BE10000
00002FBF700000
000009FE100000
000005F8000000
00001DE1000000
1B89EF50000000
0DFEB400000000
ENDCHAR
STARTCHAR afii10038
ENCODING 1060
SWIDTH 797 0
DWIDTH 16 0
BBX 14 14 1 0
BITMAP
000000DC000000
000000DC000000
004AEFFFFEA400
08FE97ED79EF80
5FA100DC001AF4
BF1000DC0001FA
EC0000DC0000DD
EC0000DC0000DD
BF1000DC0002FA
4FB100DC001BF3
08FE97ED79EF70
004ADFFFFDA300
000000DC000000
000000DC000000
ENDCHAR
STARTCHAR afii10039
ENCODING 1061
SWIDTH 577 0
DWIDTH 12 0
BBX 12 14 0 0
BITMAP
4F8000001EC0
09F300009F20
01DC0004F700
004F701DC000
0009F28F2000
0001DCF70000
00005FD00000
0000BFF40000
0005F5CD1000
001EA03F8000
00AE2009F300
04F60001EC00
1DC000005F70
9F3000000BF3
ENDCHAR
STARTCHAR afii10040
ENCODING 1062
SWIDTH 736 0
DWIDTH 15 0
BBX 13 18 2 -4
BITMAP
F90000001F9000
F90000001F9000
F90000001F9000
F90000001F9000
F90000001F9000
F90000001F9000
F90000001F9000
F90000001F9000
F90000001F9000
F90000001F9000
F90000001F9000
F90000001F9000
FC8888888FC820
FFFFFFFFFFFF40
00000000004F40
00000000004F40
00000000004F40
00000000004F40
ENDCHAR
STARTCHAR afii10041
ENCODING 1063
SWIDTH 694 0
DWIDTH 14 0
BBX 11 14 1 0
BITMAP
5F5000000BE0
5F5000000BE0
5F5000000BE0
5F5000000BE0
5F5000000BE0
5F6000000BE0
3FA000001CE0
0BFB889CFFE0
017CEEDA5BE0
000000000BE0
000000000BE0
000000000BE0
000000000BE0
000000000BE0
ENDCHAR
STARTCHAR afii10042
ENCODING 1064
SWIDTH 1032 0
DWIDTH 21 0
BBX 17 14 2 0
BITMAP
F9000008F200000FA0
F9000008F200000FA0
F9000008F200000FA0
F9000008F200000FA0
F9000008F200000FA0
F9000008F200000FA0
F9000008F200000FA0
F9000008F200000FA0
F9000008F200000FA0
F9000008F200000FA0
F9000008F200000FA0
F9000008F200000FA0
FC88888BF988888FA0
FFFFFFFFFFFFFFFFA0
ENDCHAR
STARTCHAR afii10043
ENCODING 1065
SWIDTH 1033 0
DWIDTH 21 0
BBX 19 18 2 -4
BITMAP
F900000AF000004F5000
F900000AF000004F5000
F900000AF000004F5000
F900000AF000004F5000
F900000AF000004F5000
F900000AF000004F5000
F900000AF000004F5000
F900000AF000004F5000
F900000AF000004F5000
F900000AF000004F5000
F900000AF000004F5000
F900000AF000004F5000
FC88888DF88888AFA800
FFFFFFFFFFFFFFFFFF10
00000000000000008F10
00000000000000008F10
00000000000000008F10
00000000000000008F10
ENDCHAR
STARTCHAR afii10044
ENCODING 1066
SWIDTH 687 0
DWIDTH 14 0
BBX 13 14 0 0
BITMAP
CFFFF200000000
677BF200000000
0008F200000000
0008F200000000
0008F200000000
0008F200000000
0008FFFFEC7100
0008F8778CFC10
0008F200008F70
0008F200001FA0
0008F200002FA0
0008F200008F70
0008F8778CFC10
0008FFFFEC8100
ENDCHAR
STARTCHAR afii10045
ENCODING 1067
SWIDTH 853 0
DWIDTH 17 0
BBX 14 14 2 0
BITMAP
F90000000008F1
F90000000008F1
F90000000008F1
F90000000008F1
F90000000008F1
F90000000008F1
FFFFFDA30008F1
FC778AEF5008F1
F900002EE008F1
F9000009F208F1
F900000AF208F1
F900002EE008F1
FC6679EF5008F1
FFFFFEA30008F1
ENDCHAR
STARTCHAR afii10046
ENCODING 1068
SWIDTH 643 0
DWIDTH 13 0
BBX 10 14 2 0
BITMAP
F900000000
F900000000
F900000000
F900000000
F900000000
F900000000
FFFFFEC710
FC7778CFD1
F9000007F8
F9000000FC
F9000000FB
F9000007F8
FC7778CFC1
FFFFFEC710
ENDCHAR
STARTCHAR afii10047
ENCODING 1069
SWIDTH 629 0
DWIDTH 13 0
BBX 12 14 0 0
BITMAP
17CDFEC71000
1FC989CFD400
01000005EE20
000000005FA0
000000000CF1
0000000008F3
007FFFFFFFF5
003777777BF4
0000000008F3
000000000CE0
000000004F90
00000004EE20
4C9879CFE300
2ADEFEB71000
ENDCHAR
STARTCHAR afii10048
ENCODING 1070
SWIDTH 1049 0
DWIDTH 21 0
BBX 18 14 2 0
BITMAP
F90000006BEFEA4000
F900002CFD989DFA00
F90000CF6000008F80
F90005F90000000BF1
F9000AF200000005F6
F9000DE000000002F9
FFFFFFD000000000FB
FC777ED000000000FB
F9000CE000000002F9
F90009F200000005F6
F90005F90000000BF1
F90000CF6000008F80
F900001CFC879DFA00
F90000006BEFEB5000
ENDCHAR
STARTCHAR afii10049
ENCODING 1071
SWIDTH 636 0
DWIDTH 13 0
BBX 11 14 0 0
BITMAP
0006BEFFFFC0
00AFD9777EC0
04FB00000DC0
07F500000DC0
06F500000DC0
03FC10000DC0
008FE9766EC0
0004DFFFFFC0
0001ED000DC0
0009F4000DC0
004FA0000DC0
01DE10000DC0
08F600000DC0
3FC000000DC0
ENDCHAR
STARTCHAR afii10065
ENCODING 1072
SWIDTH 556 0
DWIDTH 11 0
BBX 9 11 1 0
BITMAP
039DEEA300
0AD868EE10
0100006F60
0000002F70
0000001F80
049CEEFF80
7FB6434F80
EC00003F80
FB0000AF80
BF967CDF80
19DFD91C80
ENDCHAR
STARTCHAR afii10066
ENCODING 1073
SWIDTH 596 0
DWIDTH 12 0
BBX 10 15 1 0
BITMAP
0000147AD8
003BFFDB84
04FC510000
0DC1000000
4F60000000
8F26CFE910
BFAE86AFC1
CFB10007F6
DE100001FB
CD000000EC
AF000000EC
7F400002F9
1EC00009F4
06FC76AF90
004BEEC600
ENDCHAR
STARTCHAR afii10067
ENCODING 1074
SWIDTH 568 0
DWIDTH 11 0
BBX 10 11 1 0
BITMAP
4FFFFFDA20
4F96668EE1
4F500005F5
4F500004F5
4F50013BD1
4FFFFFFA10
4F96667CD3
4F500001EA
4F500001FA
4F95567DF5
4FFFFFEB40
ENDCHAR
STARTCHAR afii10068
ENCODING 1075
SWIDTH 428 0
DWIDTH 9 0
BBX 8 11 1 0
BITMAP
4FFFFFF3
4F966661
4F500000
4F500000
4F500000
4F500000
4F500000
4F500000
4F500000
4F500000
4F500000
ENDCHAR
STARTCHAR afii10069
ENCODING 1076
SWIDTH 571 0
DWIDTH 11 0
BBX 11 15 0 -4
BITMAP
0000FFFFF700
0001F945F700
0002F501F700
0005F301F700
0008F001F700
000CB001F700
003F6001F700
009F1001F700
02F80001F700
3BF76667FA60
9FFFFFFFFFF0
9F00000008F0
9F00000008F0
9F00000008F0
9F00000008F0
ENDCHAR
STARTCHAR afii10070
ENCODING 1077
SWIDTH 561 0
DWIDTH 11 0
BBX 10 11 1 0
BITMAP
006CFEB300
08FA67DF40
3F70001EC0
9E00000AF1
CFFFFFFFF2
DD55555551
CE00000000
9F40000000
3FC1000000
08FD878BB0
005BEFEB40
ENDCHAR
STARTCHAR afii10072
ENCODING 1078
SWIDTH 735 0
DWIDTH 15 0
BBX 15 11 0 0
BITMAP
3E90006F1001DC10
05F7006F100BE200
007F406F108F3000
000AE26F16F60000
0000CD7F5F800000
00005FCFCE100000
0002EA6F3DC00000
001DC16F13EA0000
00CE206F105F8000
0AE3006F1007F600
8F50006F10009F40
ENDCHAR
STARTCHAR afii10073
ENCODING 1079
SWIDTH 482 0
DWIDTH 10 0
BBX 9 11 0 0
BITMAP
17CEFD9100
0CA768ED10
0000006F50
0000004F50
000014DD00
006FFFC100
002668DD20
0000001F90
1000001FA0
5D9767DF40
29DFFDA300
ENDCHAR
STARTCHAR afii10074
ENCODING 1080
SWIDTH 633 0
DWIDTH 13 0
BBX 10 11 1 0
BITMAP
4F400006FE
4F40001EEE
4F40009E9E
4F4003F58E
4F400CB08E
4F407F208E
4F42E8008E
4F3BD0008E
4F8F40008E
4FEA00008E
4FE100008E
ENDCHAR
STARTCHAR afii10075
ENCODING 1081
SWIDTH 633 0
DWIDTH 13 0
BBX 10 15 1 0
BITMAP
02F5000BD0
00DD437F70
003BEFD800
0000000000
4F400006FE
4F40001EEE
4F40009E9E
4F4003F58E
4F400CB08E
4F407F208E
4F42E8008E
4F3BD0008E
4F8F40008E
4FEA00008E
4FE100008E
ENDCHAR
STARTCHAR afii10076
ENCODING 1082
SWIDTH 519 0
DWIDTH 10 0
BBX 9 11 1 0
BITMAP
4F50007F50
4F5005F600
4F503F8000
4F52EA0000
4F6DC10000
4FCF600000
4F5BE30000
4F51CE2000
4F501DD100
4F5002EC00
4F50004FA0
ENDCHAR
STARTCHAR afii10077
ENCODING 1083
SWIDTH 570 0
DWIDTH 11 0
BBX 10 11 0 0
BITMAP
0009FFFFFB
000AD666EB
000CB000EB
000EA000EB
001F8000EB
003F6000EB
006F3000EB
00AE0000EB
01EA0000EB
4BF30000EB
CD600000EB
ENDCHAR
STARTCHAR afii10078
ENCODING 1084
SWIDTH 734 0
DWIDTH 15 0
BBX 12 11 1 0
BITMAP
4FD0000004FE
4FF500000AFE
4FCB00002FCE
4F7F20007E7E
4F3D8000D97E
4F38E004F37E
4F32F50AC07E
4F30BA1F607E
4F305E7E107E
4F300EE9007E
4F3008F3007E
ENDCHAR
STARTCHAR afii10079
ENCODING 1085
SWIDTH 633 0
DWIDTH 13 0
BBX 10 11 1 0
BITMAP
4F500000AE
4F500000AE
4F500000AE
4F500000AE
4F500000AE
4FFFFFFFFE
4F966666CE
4F500000AE
4F500000AE
4F500000AE
4F500000AE
ENDCHAR
STARTCHAR afii10080
ENCODING 1086
SWIDTH 604 0
DWIDTH 12 0
BBX 10 11 1 0
BITMAP
006CEEC600
09FB66BF90
4F900008F4
9F100001FA
CD000000DD
DC000000BE
CE000000DD
9F200001FA
3F900008F4
07FB66AF90
005BEEC600
ENDCHAR
STARTCHAR afii10081
ENCODING 1087
SWIDTH 621 0
DWIDTH 12 0
BBX 10 11 1 0
BITMAP
4FFFFFFFFB
4F966666EB
4F500000EB
4F500000EB
4F500000EB
4F500000EB
4F500000EB
4F500000EB
4F500000EB
4F500000EB
4F500000EB
ENDCHAR
STARTCHAR afii10082
ENCODING 1088
SWIDTH 612 0
DWIDTH 12 0
BBX 11 16 1 -5
BITMAP
4F26CFEA2000
4FBE869FD100
4FE10005F900
4F800000DE00
4F600000AF10
4F5000008F20
4F600000AF10
4F900000DE00
4FE20005F900
4FCE868FD100
4F47DFE92000
4F5000000000
4F5000000000
4F5000000000
4F5000000000
4F5000000000
ENDCHAR
STARTCHAR afii10083
ENCODING 1089
SWIDTH 476 0
DWIDTH 10 0
BBX 8 11 1 0
BITMAP
006CEED7
09FC77A7
4F900000
9F200000
CD000000
DC000000
CE000000
AF200000
4F900000
09FB77A9
006CEEC6
ENDCHAR
STARTCHAR afii10084
ENCODING 1090
SWIDTH 466 0
DWIDTH 9 0
BBX 9 11 0 0
BITMAP
9FFFFFFFE0
3667FA6650
0002F70000
0002F70000
0002F70000
0002F70000
0002F70000
0002F70000
0002F70000
0002F70000
0002F70000
ENDCHAR
STARTCHAR afii10085
ENCODING 1091
SWIDTH 503 0
DWIDTH 10 0
BBX 10 16 0 -5
BITMAP
CE000000DD
6F500003F8
1EA00008F2
09F1000DC0
04F6004F60
00DC009F10
007F20EA00
001F84F500
000AC9E000
0004FE9000
0000DF3000
0000CD0000
0003F70000
000AF10000
56AF700000
BFD6000000
ENDCHAR
STARTCHAR afii10086
ENCODING 1092
SWIDTH 714 0
DWIDTH 14 0
BBX 13 20 1 -5
BITMAP
000009E0000000
000009E0000000
000009E0000000
000009E0000000
0029DFFEA40000
05FE9CE8CF8000
2FC109E009F600
9F3009E000DD00
CE0009E000AF10
DC0009E0008F20
CE0009E000AF10
8F3009E000DD00
2EB009E008F600
05FD8BE7BF9000
0029DFFEA40000
00000AE0000000
00000AE0000000
00000AE0000000
00000AE0000000
00000AE0000000
ENDCHAR
STARTCHAR afii10087
ENCODING 1093
SWIDTH 523 0
DWIDTH 10 0
BBX 10 11 0 0
BITMAP
2EB00004F8
06F6001DC0
00AE209F30
001EB4F700
0005FFB000
0000DF5000
0007FDD100
003F92EA00
01DD107F50
09F4000BE2
4F800002EB
ENDCHAR
STARTCHAR afii10088
ENCODING 1094
SWIDTH 625 0
DWIDTH 13 0
BBX 12 15 1 -4
BITMAP
4F500000FA00
4F500000FA00
4F500000FA00
4F500000FA00
4F500000FA00
4F500000FA00
4F500000FA00
4F500000FA00
4F500000FA00
4F966666FC61
4FFFFFFFFFF2
0000000007F2
0000000007F2
0000000007F2
0000000007F2
ENDCHAR
STARTCHAR afii10089
ENCODING 1095
SWIDTH 607 0
DWIDTH 12 0
BBX 10 11 1 0
BITMAP
7F200003F7
7F200003F7
7F200003F7
7F200003F7
6F300004F7
3FB2028EF7
07FFFFC7F7
00245303F7
00000003F7
00000003F7
00000003F7
ENDCHAR
STARTCHAR afii10090
ENCODING 1096
SWIDTH 890 0
DWIDTH 18 0
BBX 16 11 1 0
BITMAP
4F50000EB00008F1
4F50000EB00008F1
4F50000EB00008F1
4F50000EB00008F1
4F50000EB00008F1
4F50000EB00008F1
4F50000EB00008F1
4F50000EB00008F1
4F50000EB00008F1
4F96666EC6666BF1
4FFFFFFFFFFFFFF1
ENDCHAR
STARTCHAR afii10091
ENCODING 1097
SWIDTH 896 0
DWIDTH 18 0
BBX 17 15 1 -4
BITMAP
4F50000EB00008F100
4F50000EB00008F100
4F50000EB00008F100
4F50000EB00008F100
4F50000EB00008F100
4F50000EB00008F100
4F50000EB00008F100
4F50000EB00008F100
4F50000EB00008F100
4F96666EC6666BF630
4FFFFFFFFFFFFFFF90
000000000000001F90
000000000000001F90
000000000000001F90
000000000000001F90
ENDCHAR
STARTCHAR afii10092
ENCODING 1098
SWIDTH 694 0
DWIDTH 14 0
BBX 13 11 0 0
BITMAP
9FFFF700000000
3668F700000000
0003F700000000
0003F700000000
0003F700000000
0003FFFFFEC600
0003FA6667CF60
0003F700000EB0
0003F700001EB0
0003FA5567CF50
0003FFFFFEB500
ENDCHAR
STARTCHAR afii10093
ENCODING 1099
SWIDTH 770 0
DWIDTH 15 0
BBX 13 11 1 0
BITMAP
4F500000000EA0
4F500000000EA0
4F500000000EA0
4F500000000EA0
4F500000000EA0
4FFFFFEA200EA0
4F96669ED00EA0
4F500007F30EA0
4F500007F30EA0
4F95569FC00EA0
4FFFFED8100EA0
ENDCHAR
STARTCHAR afii10094
ENCODING 1100
SWIDTH 591 0
DWIDTH 12 0
BBX 10 11 1 0
BITMAP
4F50000000
4F50000000
4F50000000
4F50000000
4F50000000
4FFFFFEC60
4F96667CF6
4F500001EB
4F500001FA
4F95567DF4
4FFFFFEB40
ENDCHAR
STARTCHAR afii10095
ENCODING 1101
SWIDTH 492 0
DWIDTH 10 0
BBX 9 11 0 0
BITMAP
2ADFEB4000
1C979EF700
000001CF20
0000005F70
0000001FA0
06FFFFFFB0
0266666FA0
0000003F70
000001BE10
6B879DF500
3BEFDA3000
ENDCHAR
STARTCHAR afii10096
ENCODING 1102
SWIDTH 831 0
DWIDTH 17 0
BBX 15 11 1 0
BITMAP
4F500006CFEB3000
4F50008FA67CE400
4F5003F80001DD00
4F5009F200007F40
4F500CE000004F60
4FFFFFD000003F70
4F966DE000004F60
4F500AF200007F40
4F5005F80001DD00
4F5000BFA67CF400
4F500007DFEB3000
ENDCHAR
STARTCHAR afii10097
ENCODING 1103
SWIDTH 555 0
DWIDTH 11 0
BBX 10 11 0 0
BITMAP
007DFFFFF6
08FA7668F6
0EB00004F6
1F800004F6
0EB00004F6
07FC7668F6
005DFFFFF6
002EB004F6
00CE1004F6
08F50004F6
4F900004F6
ENDCHAR
STARTCHAR uni0450
ENCODING 1104
SWIDTH 561 0
DWIDTH 11 0
BBX 10 15 1 0
BITMAP
009F600000
000BE10000
0000AB0000
0000000000
006CFEB300
08FA67DF40
3F70001EC0
9E00000AF1
CFFFFFFFF2
DD55555551
CE00000000
9F40000000
3FC1000000
08FD878BB0
005BEFEB40
ENDCHAR
STARTCHAR afii10071
ENCODING 1105
SWIDTH 561 0
DWIDTH 11 0
BBX 10 15 1 0
BITMAP
00BA01D600
00AA01D600
0000000000
0000000000
006CFEB300
08FA67DF40
3F70001EC0
9E00000AF1
CFFFFFFFF2
DD55555551
CE00000000
9F40000000
3FC1000000
08FD878BB0
005BEFEB40
ENDCHAR
STARTCHAR afii10099
ENCODING 1106
SWIDTH 613 0
DWIDTH 12 0
BBX 11 20 0 -5
BITMAP
04F500000000
04F500000000
CFFFFFF40000
37F744410000
04F500000000
04F7ADFDB300
04FFE868EE20
04FE10004F80
04F800000FA0
04F600000EA0
04F500000EA0
04F500000EA0
04F500000EA0
04F500000EA0
04F500000EA0
000000000EA0
000000000EA0
000000001F90
00000037AF50
0000004EE800
ENDCHAR
STARTCHAR afii10100
ENCODING 1107
SWIDTH 428 0
DWIDTH 9 0
BBX 8 15 1 0
BITMAP
0000BF40
0006F600
002E6000
00000000
4FFFFFF3
4F966661
4F500000
4F500000
4F500000
4F500000
4F500000
4F500000
4F500000
4F500000
4F500000
ENDCHAR
STARTCHAR afii10101
ENCODING 1108
SWIDTH 492 0
DWIDTH 10 0
BBX 9 11 1 0
BITMAP
005BEFDA10
08FD879B00
3FA0000000
9F20000000
CE00000000
DFFFFFF300
CE66666100
9F00000000
4F80000000
09FB879D00
006CEFD900
ENDCHAR
STARTCHAR afii10102
ENCODING 1109
SWIDTH 477 0
DWIDTH 10 0
BBX 8 11 1 0
BITMAP
06CEED92
9F9669D1
EA000000
DD100000
5FE93000
029EFB30
00016EF3
000002F8
000001F8
C9757DF3
7CEFDA30
ENDCHAR
STARTCHAR afii10103
ENCODING 1110
SWIDTH 252 0
DWIDTH 5 0
BBX 3 16 1 0
BITMAP
0200
5F60
4E50
0000
0000
4F50
4F50
4F50
4F50
4F50
4F50
4F50
4F50
4F50
4F50
4F50
ENDCHAR
STARTCHAR afii10104
ENCODING 1111
SWIDTH 252 0
DWIDTH 5 0
BBX 7 15 -1 0
BITMAP
1D605E20
1D604D20
00000000
00000000
004F5000
004F5000
004F5000
004F5000
004F5000
004F5000
004F5000
004F5000
004F5000
004F5000
004F5000
ENDCHAR
STARTCHAR afii10105
ENCODING 1112
SWIDTH 252 0
DWIDTH 5 0
BBX 6 21 -2 -5
BITMAP
000020
0005F6
0004E5
000000
000000
0004F5
0004F5
0004F5
0004F5
0004F5
0004F5
0004F5
0004F5
0004F5
0004F5
0004F5
0004F5
0004F5
0006F4
176DE1
1DFC40
ENDCHAR
STARTCHAR afii10106
ENCODING 1113
SWIDTH 836 0
DWIDTH 17 0
BBX 16 11 0 0
BITMAP
0009FFFFF3000000
000AD66CF3000000
000CB00AF3000000
000EA00AF3000000
001F800AFFFFEB40
003F600AF6668EE2
006F300AF00003F7
00AE000AF00000F9
01EA000AF00004F7
4BF3000AF5568EE2
CE60000AFFFFEA20
ENDCHAR
STARTCHAR afii10107
ENCODING 1114
SWIDTH 886 0
DWIDTH 18 0
BBX 16 11 1 0
BITMAP
4F60000AF0000000
4F60000AF0000000
4F60000AF0000000
4F60000AF0000000
4F60000AF1110000
4FFFFFFFFFFFFC50
4FA6666CF5557DF4
4F60000BF00002F8
4F60000BF00002F8
4F60000BF5568DF3
4F60000BFFFFEB30
ENDCHAR
STARTCHAR afii10108
ENCODING 1115
SWIDTH 613 0
DWIDTH 12 0
BBX 11 15 0 0
BITMAP
04F500000000
04F500000000
CFFFFFFB0000
37F744430000
04F500000000
04F7ADFEB300
04FFE868EF20
04FD10004F80
04F800000FA0
04F600000EA0
04F500000EA0
04F500000EA0
04F500000EA0
04F500000EA0
04F500000EA0
ENDCHAR
STARTCHAR afii10109
ENCODING 1116
SWIDTH 519 0
DWIDTH 10 0
BBX 9 15 1 0
BITMAP
00002FD100
0000BD2000
0007D20000
0000000000
4F50007F50
4F5005F600
4F503F8000
4F52EA0000
4F6DC10000
4FCF600000
4F5BE30000
4F51CE2000
4F501DD100
4F5002EC00
4F50004FA0
ENDCHAR
STARTCHAR uni045D
ENCODING 1117
SWIDTH 633 0
DWIDTH 13 0
BBX 10 15 1 0
BITMAP
004FB00000
0006F60000
00006E2000
0000000000
4F400006FE
4F40001EEE
4F40009E9E
4F4003F58E
4F400CB08E
4F407F208E
4F42E8008E
4F3BD0008E
4F8F40008E
4FEA00008E
4FE100008E
ENDCHAR
STARTCHAR afii10110
ENCODING 1118
SWIDTH 503 0
DWIDTH 10 0
BBX 10 20 0 -5
BITMAP
07F1001F80
03FA33AF30
005CEEC500
0000000000
CE000000DD
6F500003F8
1EA00008F2
09F1000DC0
04F6004F60
00DC009F10
007F20EA00
001F84F500
000AC9E000
0004FE9000
0000DF3000
0000CD0000
0003F70000
000AF10000
56AF700000
BFD6000000
ENDCHAR
STARTCHAR afii10193
ENCODING 1119
SWIDTH 621 0
DWIDTH 12 0
BBX 10 15 1 -4
BITMAP
4F500000EA
4F500000EA
4F500000EA
4F500000EA
4F500000EA
4F500000EA
4F500000EA
4F500000EA
4F500000EA
4F966666EA
4FFFFFFFFA
00008F1000
00008F1000
00008F1000
00008F1000
ENDCHAR
STARTCHAR uni0460
ENCODING 1120
SWIDTH 1011 0
DWIDTH 20 0
BBX 18 14 1 0
BITMAP
003BEEB4002AEEC500
04FE99D6003E98DF60
0DF300000001001DE2
4F90000000000006F7
8F40000000000001FB
AF20000000000000ED
AF10000000000000DE
AF10000000000000ED
9F300000BE000000FC
6F600000BE000003F9
2FC00000BE000009F5
0AF70000BE00005FD0
01DFB78BFFD87AFE30
0018DFEB65ADFEA200
ENDCHAR
STARTCHAR uni0461
ENCODING 1121
SWIDTH 818 0
DWIDTH 16 0
BBX 16 11 0 0
BITMAP
CD0004F6000005F4
7F3000EC000006F3
2F80009F200007F2
0CD0003F700009F0
07F3000DC0000CC0
02F9002FF2001F80
00CE009DF7008F30
007F32F6CC01EB00
002F88E16F1AF300
000BCE801FCF7000
0006FF100BFA0000
ENDCHAR
STARTCHAR uni0462
ENCODING 1122
SWIDTH 674 0
DWIDTH 14 0
BBX 13 15 0 0
BITMAP
000AF000000000
000AF000000000
000AF000000000
CFFFFFFFF20000
577CF777710000
000AF000000000
000AF000000000
000AFFFFDB5000
000AF7789DF900
000AF00000BF30
000AF000005F60
000AF000005F60
000AF00000CF30
000AF6678DF900
000AFFFFEB5000
ENDCHAR
STARTCHAR uni0463
ENCODING 1123
SWIDTH 631 0
DWIDTH 13 0
BBX 12 13 0 0
BITMAP
007F20000000
007F20000000
CFFFFFF80000
46AF76630000
007F20000000
007F20000000
007F20000000
007FFFFFEB30
007F76668EF3
007F200003F7
007F200004F7
007F75568EE2
007FFFFFEA30
ENDCHAR
STARTCHAR uni0464
ENCODING 1124
SWIDTH 918 0
DWIDTH 18 0
BBX 16 14 2 0
BITMAP
F90000004ADEEC93
F900000AFEA88BF8
F900009F91000011
F90003FB00000000
F90009F300000000
F9000CE000000000
FFFFFFFFFFFFFB00
FC777EE777777500
F9000DE000000000
F9000AF200000000
F90005F900000000
F90000CF80000000
F900002CFD9789C4
F90000006BEFEDA2
ENDCHAR
STARTCHAR uni0465
ENCODING 1125
SWIDTH 735 0
DWIDTH 15 0
BBX 13 11 1 0
BITMAP
4F500004BEFD90
4F50007FD87A90
4F5002FB000000
4F5008F2000000
4F500BE0000000
4FFFFFFFFFFF10
4F966DE6666600
4F500AF1000000
4F5005F8000000
4F5000BFB879B0
4F500006CEFD80
ENDCHAR
STARTCHAR uni0466
ENCODING 1126
SWIDTH 678 0
DWIDTH 14 0
BBX 14 14 0 0
BITMAP
000003FC000000
000009FF300000
00001F8EA00000
00007F39F10000
0000DC03F70000
0005F600CD0000
000CFFFFFF5000
003FA7FB7EC000
00AF20F809F300
01FA00F802FA00
07F400F800BF10
0EC000F8004F70
5F6000F8000DD0
CE0000F80007F5
ENDCHAR
STARTCHAR uni0467
ENCODING 1127
SWIDTH 563 0
DWIDTH 11 0
BBX 12 11 0 0
BITMAP
00009FD00000
0001EBF40000
0006F3EA0000
000CD09F2000
003F703F8000
00AFFFFFD000
01FC7F99F500
07F41F61EB00
0DD01F609F20
4F601F602F90
BE101F600BE1
ENDCHAR
STARTCHAR uni0468
ENCODING 1128
SWIDTH 920 0
DWIDTH 18 0
BBX 17 14 2 0
BITMAP
F90000005FA0000000
F9000000BFF1000000
F9000003F8F7000000
F9000009F1CE000000
F900001EA06F500000
F900007F401EC00000
FFFFFFFFFFFFF30000
FC777AFA8FA8FA0000
F9000BE11F60CF1000
F9003F901F605F7000
F9009F301F600DE000
F901FB001F6007F500
F907F5001F6001FC00
F90ED0001F60009F30
ENDCHAR
STARTCHAR uni0469
ENCODING 1129
SWIDTH 766 0
DWIDTH 15 0
BBX 15 11 1 0
BITMAP
4F500008FD000000
4F50000DBF500000
4F50004F4DB00000
4F5000AD08F20000
4F5001F803F80000
4FFFFFFFFFFE0000
4F966FC6F99F5000
4F505F51F61EB000
4F50CD01F608F300
4F53F701F602F900
4F5AE101F600AE10
ENDCHAR
STARTCHAR uni046A
ENCODING 1130
SWIDTH 721 0
DWIDTH 14 0
BBX 15 14 0 0
BITMAP
07FFFFFFFFFFE000
04FD888888AFA000
006F500001DC1000
0009F4001CD10000
0000BE20AE200000
00001CD9F4000000
0007DFFFFEA20000
008FA5BF57ED1000
01FC009F005F7000
06F6009F000DD000
0BF1009F0009F200
1FB0009F0004F700
5F70009F0000EB00
AF20009F0000AF10
ENDCHAR
STARTCHAR uni046B
ENCODING 1131
SWIDTH 642 0
DWIDTH 13 0
BBX 13 11 0 0
BITMAP
08FFFFFFFFF500
03ED66666ED100
005F60009E3000
0008F306F50000
0000AD5F700000
002BEFFFEA1000
01DD46F46EB000
07F405F207F400
0DD005F201EA00
4F6005F2009F20
AE1005F2003F70
ENDCHAR
STARTCHAR uni046C
ENCODING 1132
SWIDTH 974 0
DWIDTH 19 0
BBX 18 14 2 0
BITMAP
F9004FFFFFFFFFFF10
F9002EE8888888FD00
F90004F800000BE200
F900006F60009F4000
F9000008F406F50000
F9000000AE6F800000
FFFFFFFFFFFFDA2000
FC777AFC6AF87DE200
F9000CE106F401EA00
F9002F8006F4009F10
F9007F3006F4005F50
F900CE0006F4001EA0
F902F90006F4000AE0
F906F50006F40006F4
ENDCHAR
STARTCHAR uni046D
ENCODING 1133
SWIDTH 846 0
DWIDTH 17 0
BBX 16 11 1 0
BITMAP
4F506FFFFFFFFF70
4F502EE66666EE20
4F5003F80008F400
4F50006F505F6000
4F500008E6E90000
4FFFFFFFFFFEA200
4F966EE55F65ED00
4F505F603F405F60
4F50BE003F400DC0
4F52F8003F4007F3
4F58F2003F4001F9
ENDCHAR
STARTCHAR uni046E
ENCODING 1134
SWIDTH 582 0
DWIDTH 12 0
BBX 11 21 0 -4
BITMAP
00AC102BE300
001DC2DB3100
0002EFD10000
017CFFFC6000
1DE9656CF900
04100000CF10
000000008F30
00000000CE00
0000025CE400
00BFFFE81000
0046679ED400
00000001BE20
000000004F60
000000005F70
00000000CF30
0003569DF800
07EFFEDA4000
3FC310000000
5F6000000000
2FE877778820
04CEFFFFFF40
ENDCHAR
STARTCHAR uni046F
ENCODING 1135
SWIDTH 482 0
DWIDTH 10 0
BBX 9 17 0 -4
BITMAP
06E504CE50
005FAF9310
19DFFFA200
0C9657ED10
0000005F40
0000004F40
000014DC00
006FFFB100
002668DD20
0000001F90
0000001FA0
002457DF40
1BFFFDA300
8E41000000
BC00000000
8F85555520
19EFFFFFA0
ENDCHAR
STARTCHAR uni0470
ENCODING 1136
SWIDTH 795 0
DWIDTH 16 0
BBX 14 14 1 0
BITMAP
EC0000DC0000DD
EC0000DC0000DD
EC0000DC0000DD
EC0000DC0000DD
EC0000DC0000DD
CE0000DC0000FB
8F6000DC0006F7
1DE720DC028FC1
02BFFFFFFFFA10
000256ED652000
000000DC000000
000000DC000000
000000DC000000
000000DC000000
ENDCHAR
STARTCHAR uni0471
ENCODING 1137
SWIDTH 752 0
DWIDTH 15 0
BBX 13 20 1 -5
BITMAP
000003F6000000
000003F6000000
000003F6000000
000003F6000000
6F3003F6005F40
6F3003F6002F70
6F3003F6000F90
6F3003F6000EB0
6F3003F6000DC0
6F4003F6000DC0
5F5003F6000FA0
2F9003F6005F70
0BF403F603DE10
02DFA9FAAEE400
0018DFFFD82000
000003F6000000
000003F6000000
000003F6000000
000003F6000000
000003F6000000
ENDCHAR
STARTCHAR uni0472
ENCODING 1138
SWIDTH 779 0
DWIDTH 16 0
BBX 14 14 1 0
BITMAP
0004ADFEC81000
00AFE988BFE400
08F9000002DE20
2FB00000003FA0
7F400000000BF1
AF1000000008F4
BFFFFFFFFFFFF5
BF777777777BF5
AF2000000008F4
7F500000000CF1
2FC00000003FA0
09F9000003DE20
00AFE978BFE400
0004ADFEC81000
ENDCHAR
STARTCHAR uni0473
ENCODING 1139
SWIDTH 604 0
DWIDTH 12 0
BBX 10 11 1 0
BITMAP
006CEEC600
09FB77BF90
4FA00009F4
9F200001FA
CE000000DD
DFFFFFFFFE
CE666666DD
9F000000EA
3F700006F4
07FA76AF90
005BEEC600
ENDCHAR
STARTCHAR uni0474
ENCODING 1140
SWIDTH 625 0
DWIDTH 13 0
BBX 14 14 0 0
BITMAP
CE000000008EE3
7F50000006FA72
1FA000000DD000
0BF100003F7000
05F600008F2000
00EC0000DD0000
009F2003F80000
003F8007F30000
000DD00CD00000
0007F42F800000
0002F96F300000
0000BDBD000000
00006FF9000000
00001EF4000000
ENDCHAR
STARTCHAR uni0475
ENCODING 1141
SWIDTH 505 0
DWIDTH 10 0
BBX 11 11 0 0
BITMAP
CD0000009E80
7F300006F730
2F90000BC000
0BE0001F7000
06F4006F3000
01EA00AD0000
00AE10E90000
004F54F40000
000EA8E00000
0009ECA00000
0003FF600000
ENDCHAR
STARTCHAR uni0476
ENCODING 1142
SWIDTH 625 0
DWIDTH 13 0
BBX 14 18 0 0
BITMAP
01DD17F6000000
003E809E100000
0003E309A00000
00000000000000
CE000000008EE3
7F50000006FA72
1FA000000DD000
0BF100003F7000
05F600008F2000
00EC0000DD0000
009F2003F80000
003F8007F30000
000DD00CD00000
0007F42F800000
0002F96F300000
0000BDBD000000
00006FF9000000
00001EF4000000
ENDCHAR
STARTCHAR uni0477
ENCODING 1143
SWIDTH 505 0
DWIDTH 10 0
BBX 11 15 0 0
BITMAP
2EC08F400000
04F60BD00000
004E21B80000
000000000000
CD0000009E80
7F300006F730
2F90000BC000
0BE0001F7000
06F4006F3000
01EA00AD0000
00AE10E90000
004F54F40000
000EA8E00000
0009ECA00000
0003FF600000
ENDCHAR
STARTCHAR uni0478
ENCODING 1144
SWIDTH 1208 0
DWIDTH 24 0
BBX 23 19 1 -5
BITMAP
0006BEFD9300000000000000
01CFD98AEF50000000000000
0AF700001CF3000000000000
3FB0000002FA0BE100000CD0
7F50000000BF15F500002F80
AF100000008F30EB00008F20
BF000000007F409F2000DC00
BF000000007F403F8003F700
AF100000008F300CD008F100
7F50000000BF1006F40DB000
3FA0000002FA0001FA4F5000
0AF700001CF30000AE9E1000
01CFC879EF5000004FE90000
0006CEFD920000000DF40000
00000000000000000CD00000
00000000000000002F800000
0000000000000000AF200000
000000000000056AF8000000
0000000000000AFD70000000
ENDCHAR
STARTCHAR uni0479
ENCODING 1145
SWIDTH 1061 0
DWIDTH 21 0
BBX 21 16 1 -5
BITMAP
006CEEC600AF100000BE10
09FB66BF904F700001FA00
4F900008F40DC00006F400
9F100001FA07F3000BE000
CD000000DD02F8002F8000
DC000000BE00BE007F3000
CE000000DD005F50CC0000
9F200001FA000EA2F70000
3F900008F40008E7F20000
07FB66AF900002FEB00000
005BEEC6000000CF600000
00000000000000AE100000
00000000000001FA000000
00000000000008F3000000
0000000000469F90000000
00000000009ED800000000
ENDCHAR
STARTCHAR uni047A
ENCODING 1146
SWIDTH 818 0
DWIDTH 16 0
BBX 15 17 1 -2
BITMAP
000001DF50000000
0003AEFFFC600000
008FEAFFBCFC1000
07FA1034006FC000
1FD000000008F600
7F6000000001EC00
AF2000000000CF10
BF1000000000AF20
BF1000000000AF20
AF2000000000CF10
6F6000000001FC00
1FD000000008F600
07FA1034006FC000
008FE9FFBCFC1000
0004AEFFFC600000
000001DF50000000
0000000100000000
ENDCHAR
STARTCHAR uni047B
ENCODING 1147
SWIDTH 657 0
DWIDTH 13 0
BBX 11 13 1 -1
BITMAP
00006E800000
005CFFFC5000
08FBAFBBF900
3F9001008F50
9F2000001EB0
CD0000000BE0
DC0000000AF0
CD0000000BE0
9F2000001EB0
3F9001007F50
07FBAFBAFA00
004BFFFC6000
00006E800000
ENDCHAR
STARTCHAR uni047C
ENCODING 1148
SWIDTH 999 0
DWIDTH 20 0
BBX 18 20 1 0
BITMAP
0000008EEC85300000
000001F647ADF10000
00000000AD20000000
000000002E20000000
00000000A500000000
000000000000000000
004BEEB3004BEEB300
05FE99E4005D99EF40
1EE200100001003ED0
5F70000000000008F4
9F30000000000004F8
BF10000000000001FA
CF00000000000000FB
BF00000000000001FA
AF20000000000002F9
7F50000000000006F6
3FB000000000000CF2
0BF600005400007FA0
02DFB78CFFB87BFD10
0019DFEB56BEFD8100
ENDCHAR
STARTCHAR uni047D
ENCODING 1149
SWIDTH 808 0
DWIDTH 16 0
BBX 14 17 1 0
BITMAP
0000AEEB853000
0005E447BDC000
000000DC000000
0000005E000000
000003A3000000
00000000000000
02AEEA009EEB30
0DE88900887DE2
6F5000000003F8
AF0000000000DD
CD0000000000AF
DC0000000000AF
CD0000000000BF
AF1000000000EC
5F9000010006F7
0AFB78DE87AFC1
007DFEA9DFD810
ENDCHAR
STARTCHAR uni047E
ENCODING 1150
SWIDTH 983 0
DWIDTH 20 0
BBX 19 17 0 0
BITMAP
000002FEEFFEFB000000
000000A2083075000000
00000000000000000000
0006CFD91004BEEB3000
009FD8AE1005D99EF400
04FC000100001003ED00
0AF30000000000008F40
0DE00000000000004F80
0FC00000000000001FA0
1FB00000000000000FB0
1FB00000000000001FA0
0ED000000FA000002F90
0CF100000FA000006F60
07F700000FA00000CF20
01EE30000FA00007FA00
005FFA79DFFB87BFD100
0003AEFDA46CEFD81000
ENDCHAR
STARTCHAR uni047F
ENCODING 1151
SWIDTH 818 0
DWIDTH 16 0
BBX 16 14 0 0
BITMAP
0003FEEFEEFA0000
0000A10920830000
0000000000000000
CD0004F6000005F4
7F3000EC000006F3
2F80009F200007F2
0CD0003F700009F0
07F3000DC0000CC0
02F9002FF2001F80
00CE009DF7008F30
007F41F6CC01EB00
002F88E16F1AF300
000BCE801FCF7000
0006FF100BFA0000
ENDCHAR
STARTCHAR uni0480
ENCODING 1152
SWIDTH 639 0
DWIDTH 13 0
BBX 12 19 1 -5
BITMAP
00028CEFDB61
006EFB88ADD0
05FC20000010
1EE100000000
6F7000000000
9F2000000000
BF1000000000
BF0000000000
AF2000000000
7F6000000000
2FD000000000
09FB10000000
00AFFB987000
0004ADFFB000
0000000EB000
0000000EB000
0000000EB000
0000000EB000
0000000EB000
ENDCHAR
STARTCHAR uni0481
ENCODING 1153
SWIDTH 487 0
DWIDTH 10 0
BBX 8 16 1 -5
BITMAP
005BEEDA
08FC879A
3FA00000
9F100000
CD000000
DC000000
CD000000
AF100000
5F900000
0AFC7690
006CEFF0
000009F0
000009F0
000009F0
000009F0
000009F0
ENDCHAR
STARTCHAR uni0482
ENCODING 1154
SWIDTH 608 0
DWIDTH 12 0
BBX 10 13 1 0
BITMAP
00000005A0
0004000DA0
002FC37F20
0003BFF800
00000BFE60
00002F78FC
6400AD0037
9FA5F50000
04DFD00000
006FFD4000
01D92AF400
07E2004000
0870000000
ENDCHAR
STARTCHAR uni0483
ENCODING 1155
SWIDTH 557 0
DWIDTH 11 0
BBX 8 3 2 11
BITMAP
000006D1
DFFFFFE1
C8000000
ENDCHAR
STARTCHAR uni0484
ENCODING 1156
SWIDTH 577 0
DWIDTH 12 0
BBX 8 2 2 12
BITMAP
247ADFC2
8DB853C9
ENDCHAR
STARTCHAR uni0485
ENCODING 1157
SWIDTH 577 0
DWIDTH 12 0
BBX 3 3 4 12
BITMAP
2E90
3E20
06A0
ENDCHAR
STARTCHAR uni0486
ENCODING 1158
SWIDTH 577 0
DWIDTH 12 0
BBX 3 3 4 12
BITMAP
0DB0
05D0
3A30
ENDCHAR
STARTCHAR uni0488
ENCODING 1160
SWIDTH 988 0
DWIDTH 20 0
BBX 20 17 0 -3
BITMAP
000000008ED300000000
00000002A14B00000000
00000000000000000000
004DE800000001CEA000
00B31C20000007618600
00000000000000000000
00000000000000000000
00000000000000000000
4DFD300000000006EFC2
00000000000000000000
00000000000000000000
00000000000000000000
004DE800000001CEA000
00B31C20000007618600
00000000000000000000
000000008ED300000000
00000002A14B00000000
ENDCHAR
STARTCHAR uni0489
ENCODING 1161
SWIDTH 956 0
DWIDTH 19 0
BBX 19 19 0 -4
BITMAP
00000000088000000000
000000000D5000000000
000610004F2000000000
000990004800003A7000
0003F40000000AFA1000
0000B700000006500000
00001000000000000000
00000000000000000000
55200000000000064000
4DFC00000000000AFD60
00460000000000002560
00000000000000000000
00000000000000000000
00000200000001700000
0002CD10000006F20000
005E9200075000C80000
001200000F60003B0000
000000003E1000010000
00000000690000000000
ENDCHAR
STARTCHAR uni048A
ENCODING 1162
SWIDTH 770 0
DWIDTH 15 0
BBX 13 22 2 -4
BITMAP
00DA0006F20000
008F635DC00000
0019DFEA200000
00000000000000
F80000000CF400
F80000008FF400
F8000004FBF400
F800001DD4F400
F800009F43F400
F80004F904F400
F8001DD104F400
F800AF3004F400
F805F80004F400
F71EC00004F400
F7AF300004F400
FCF7000004F400
FFC0000004F970
FF20000004FFC0
00000000000D90
00000000004F50
0000000000AF10
0000000001FC00
ENDCHAR
STARTCHAR uni048B
ENCODING 1163
SWIDTH 643 0
DWIDTH 13 0
BBX 12 19 1 -4
BITMAP
00E90007F100
00AE535EB000
0019DFD91000
000000000000
4F400006FE00
4F40001EEE00
4F40009E9E00
4F4003F58E00
4F400CB08E00
4F407F208E00
4F42E8008E00
4F3BD0008E00
4F7F40008E00
4FEA00008F64
4FE100008FF7
0000000003F3
0000000008F0
000000000CB0
000000002F80
ENDCHAR
STARTCHAR uni048C
ENCODING 1164
SWIDTH 612 0
DWIDTH 12 0
BBX 12 14 0 0
BITMAP
00F900000000
00F900000000
8FFFFFF00000
47FC77700000
00F900000000
00F900000000
00FFFFED9300
00FC778AEF50
00F900002EE0
00F9000009F3
00F900000AF2
00F900002EE0
00FC667AFF50
00FFFFFDA300
ENDCHAR
STARTCHAR uni048D
ENCODING 1165
SWIDTH 591 0
DWIDTH 12 0
BBX 11 15 0 0
BITMAP
04F500000000
04F500000000
CFFFFF300000
37F844100000
04F500000000
04F500000000
04F500000000
04F500000000
04F500000000
04FFFFFEC600
04F96667CF60
04F500001EB0
04F500001FA0
04F95567DF40
04FFFFFEB400
ENDCHAR
STARTCHAR uni048E
ENCODING 1166
SWIDTH 610 0
DWIDTH 12 0
BBX 10 14 2 0
BITMAP
FFFFEDA300
FC777AFF50
F900003EE0
F900000AF2
F900510AF1
F901DB3EC0
FC67AFFE20
FFFFEDF400
F90000AD00
F900001500
F900000000
F900000000
F900000000
F900000000
ENDCHAR
STARTCHAR uni048F
ENCODING 1167
SWIDTH 612 0
DWIDTH 12 0
BBX 11 16 1 -5
BITMAP
4F26CFEA2000
4FBE868ED100
4FE10004F900
4F800000CE00
4F6000009F10
4F5000008F20
4F6000009F10
4F900460CE00
4FE206F7F900
4FCE86EFD100
4F57DFDE9000
4F500004F400
4F5000003000
4F5000000000
4F5000000000
4F5000000000
ENDCHAR
STARTCHAR afii10050
ENCODING 1168
SWIDTH 526 0
DWIDTH 11 0
BBX 9 17 2 0
BITMAP
0000008F10
0000008F10
0000008F10
FFFFFFFF10
FC88888810
F900000000
F900000000
F900000000
F900000000
F900000000
F900000000
F900000000
F900000000
F900000000
F900000000
F900000000
F900000000
ENDCHAR
STARTCHAR afii10098
ENCODING 1169
SWIDTH 428 0
DWIDTH 9 0
BBX 8 14 1 0
BITMAP
000007F3
000007F3
000007F3
4FFFFFF3
4F844441
4F500000
4F500000
4F500000
4F500000
4F500000
4F500000
4F500000
4F500000
4F500000
ENDCHAR
STARTCHAR uni0492
ENCODING 1170
SWIDTH 526 0
DWIDTH 11 0
BBX 11 14 0 0
BITMAP
00FFFFFFFF10
00FC88888810
00F900000000
00F900000000
00F900000000
00F900000000
8FFFFFFC0000
47FC77750000
00F900000000
00F900000000
00F900000000
00F900000000
00F900000000
00F900000000
ENDCHAR
STARTCHAR uni0493
ENCODING 1171
SWIDTH 428 0
DWIDTH 9 0
BBX 9 11 0 0
BITMAP
04FFFFFF20
04F9666610
04F5000000
04F5000000
04F5000000
CFFFFFB000
37F7443000
04F5000000
04F5000000
04F5000000
04F5000000
ENDCHAR
STARTCHAR uni0494
ENCODING 1172
SWIDTH 642 0
DWIDTH 13 0
BBX 11 19 2 -5
BITMAP
FFFFFFFF3000
FC8888881000
F90000000000
F90000000000
F90000000000
F90000000000
FFFFEC820000
FD878CFE4000
F900004EE200
F9000005F900
F9000000DE00
F9000000AF10
F9000000AF20
F9000000AF10
00000000DE00
00000002FA00
0000001CF300
00B989EF7000
009DFEB50000
ENDCHAR
STARTCHAR uni0495
ENCODING 1173
SWIDTH 524 0
DWIDTH 11 0
BBX 9 16 1 -5
BITMAP
4FFFFFF300
4F96666100
4F50000000
4F50000000
4F50000000
4FEFEC6000
4FB78CFB00
4F50009F50
4F50001FA0
4F50000CD0
4F50000BE0
0000000CD0
0000000EB0
0000006F60
00A979FC00
006DFE9100
ENDCHAR
STARTCHAR uni0496
ENCODING 1174
SWIDTH 890 0
DWIDTH 18 0
BBX 18 18 0 -4
BITMAP
6F700005F400009F40
08F50005F40007F600
00BE3005F4004F9000
001DD105F402EB0000
0002EB05F41DD10000
00004F95F4BE200000
000007FBFBF5000000
00000BF8F8F9000000
00008F55F47F600000
0005F805F40AF40000
003EB005F401DE2000
01DD1005F4002EC100
0BF30005F40004FB83
9F600005F400007FF6
0000000000000002F6
0000000000000002F6
0000000000000002F6
0000000000000002F6
ENDCHAR
STARTCHAR uni0497
ENCODING 1175
SWIDTH 779 0
DWIDTH 16 0
BBX 16 15 0 -4
BITMAP
3E90006F1001DC10
05F7006F100BE200
007F406F108F3000
000AE26F16F50000
0000CD7F5F800000
00005FCFCE100000
0003EA6F3DC00000
001DC16F13EA0000
00CD206F105F7000
0AE3006F1007F762
8F50006F10009FF4
00000000000004F4
00000000000004F4
00000000000004F4
00000000000004F4
ENDCHAR
STARTCHAR uni0498
ENCODING 1176
SWIDTH 581 0
DWIDTH 12 0
BBX 11 18 0 -4
BITMAP
016BEFDB5000
1DFB868DF900
05200001CF20
000000008F30
00000000CE10
0000025BE400
00BFFFF92000
0046679EE500
00000001BF20
000000005F70
000000005F70
11000001CF30
4FB8679EF700
17CDFFD93000
00005D200000
00000AB00000
00002AD00000
0002EE600000
ENDCHAR
STARTCHAR uni0499
ENCODING 1177
SWIDTH 482 0
DWIDTH 10 0
BBX 9 15 0 -4
BITMAP
17CEFD9100
0CA768ED10
0000006F50
0000004F50
000014DD00
006FFFC100
002668DD20
0000001F90
1000001FA0
5D9767DF40
29DFFDA300
0003D40000
00006E0000
00028F1000
000DE80000
ENDCHAR
STARTCHAR uni049A
ENCODING 1178
SWIDTH 661 0
DWIDTH 13 0
BBX 11 18 2 -4
BITMAP
F9000006F900
F900005FA000
F90004FA0000
F9003EB00000
F903EB100000
F92EC1000000
FBDFA0000000
FFBAF6000000
FB01DF300000
F9002ED10000
F90005FA0000
F900009F7000
F900000CF870
F9000002EFE0
000000000AE0
000000000AE0
000000000AE0
000000000AE0
ENDCHAR
STARTCHAR uni049B
ENCODING 1179
SWIDTH 544 0
DWIDTH 11 0
BBX 10 15 1 -4
BITMAP
4F50007F50
4F5005F600
4F503F8000
4F52EA0000
4F6DC10000
4FCF600000
4F5BE30000
4F51CE2000
4F501DC100
4F5002EB63
4F50004FF9
00000000E9
00000000E9
00000000E9
00000000E9
ENDCHAR
STARTCHAR uni049C
ENCODING 1180
SWIDTH 613 0
DWIDTH 12 0
BBX 11 14 2 0
BITMAP
F9000006F900
F900005FA000
F92A14FA0000
F92F4EB00000
F92FEB100000
F93FC1000000
FBDFA0000000
FFDFF6000000
FB3FCE300000
F92F2ED10000
F92F14FA0000
F902008F6000
F900000BF300
F9000002ED10
ENDCHAR
STARTCHAR uni049D
ENCODING 1181
SWIDTH 533 0
DWIDTH 11 0
BBX 10 11 1 0
BITMAP
4F51202EB0
4F58C1DC10
4F58DCC100
4F58FD1000
4F6CE20000
4FCFC00000
4F5AF60000
4F58FF5000
4F58C9F400
4F58C0AE30
4F50100BE3
ENDCHAR
STARTCHAR uni049E
ENCODING 1182
SWIDTH 613 0
DWIDTH 12 0
BBX 13 14 0 0
BITMAP
00F9000006F900
00F900004FA000
8FFFFC03EB0000
47FC752EC10000
00F901DD100000
00F91CD2000000
00FABF80000000
00FFDCF4000000
00FC11EE200000
00F9004FC00000
00F90007F90000
00F90000AF5000
00F900001DE200
00F9000003ED10
ENDCHAR
STARTCHAR uni049F
ENCODING 1183
SWIDTH 517 0
DWIDTH 10 0
BBX 11 15 0 0
BITMAP
04F500000000
04F500000000
CFFFFFF10000
37F744400000
04F50006F800
04F5005F9000
04F504FA0000
04F53EB00000
04F6ED100000
04FEFF400000
04FB2DD10000
04F504FA0000
04F5008F6000
04F5000BF300
04F50002ED10
ENDCHAR
STARTCHAR uni04A0
ENCODING 1184
SWIDTH 688 0
DWIDTH 14 0
BBX 14 14 0 0
BITMAP
DFFFF200001CE3
688CF20001BE30
0008F2000BE400
0008F200AF4000
0008F209F50000
0008F27F600000
0008F8FF300000
0008FE7FD10000
0008F406FA0000
0008F2009F6000
0008F2001CF300
0008F20002ED10
0008F200005FA0
0008F2000009F6
ENDCHAR
STARTCHAR uni04A1
ENCODING 1185
SWIDTH 615 0
DWIDTH 12 0
BBX 12 11 0 0
BITMAP
9FFFF60006F6
3667F6004F80
0003F603EA00
0003F61DC000
0003F7CD1000
0003FCF70000
0003F6AF4000
0003F60BE300
0003F601CD20
0003F6002DC1
0003F60003EB
ENDCHAR
STARTCHAR uni04A2
ENCODING 1186
SWIDTH 746 0
DWIDTH 15 0
BBX 13 18 2 -4
BITMAP
F90000000DC000
F90000000DC000
F90000000DC000
F90000000DC000
F90000000DC000
F90000000DC000
FFFFFFFFFFC000
FC7777777EC000
F90000000DC000
F90000000DC000
F90000000DC000
F90000000DC000
F90000000DE830
F90000000DFF60
00000000003F60
00000000003F60
00000000003F60
00000000003F60
ENDCHAR
STARTCHAR uni04A3
ENCODING 1187
SWIDTH 647 0
DWIDTH 13 0
BBX 12 15 1 -4
BITMAP
4F500000AE00
4F500000AE00
4F500000AE00
4F500000AE00
4F500000AE00
4FFFFFFFFE00
4F966666CE00
4F500000AE00
4F500000AE00
4F500000AF62
4F500000AFF6
0000000003F6
0000000003F6
0000000003F6
0000000003F6
ENDCHAR
STARTCHAR uni04A4
ENCODING 1188
SWIDTH 812 0
DWIDTH 16 0
BBX 15 14 2 0
BITMAP
F90000000DFFFF10
F90000000DE88810
F90000000DC00000
F90000000DC00000
F90000000DC00000
F90000000DC00000
FFFFFFFFFFC00000
FC7777777EC00000
F90000000DC00000
F90000000DC00000
F90000000DC00000
F90000000DC00000
F90000000DC00000
F90000000DC00000
ENDCHAR
STARTCHAR uni04A5
ENCODING 1189
SWIDTH 735 0
DWIDTH 15 0
BBX 14 11 1 0
BITMAP
4F500000AFFFF6
4F500000AF6662
4F500000AE0000
4F500000AE0000
4F500000AE0000
4FFFFFFFFE0000
4F966666CE0000
4F500000AE0000
4F500000AE0000
4F500000AE0000
4F500000AE0000
ENDCHAR
STARTCHAR uni04A6
ENCODING 1190
SWIDTH 1066 0
DWIDTH 21 0
BBX 19 19 2 -5
BITMAP
FFFFFFFFFF2000000000
FC888888CF2000000000
F90000008F2000000000
F90000008F2000000000
F90000008F2000000000
F90000008F2000000000
F90000008FEFED920000
F90000008F978AEF6000
F90000008F20002CF400
F90000008F200002FB00
F90000008F200000BF10
F90000008F2000008F30
F90000008F2000007F40
F90000008F2000008F30
0000000000000000AF10
0000000000000001EC00
000000000000000AF600
00000000009A88DFA000
00000000007DEEC60000
ENDCHAR
STARTCHAR uni04A7
ENCODING 1191
SWIDTH 865 0
DWIDTH 17 0
BBX 16 16 1 -5
BITMAP
4FFFFFFFF4000000
4F966669F4000000
4F500005F4000000
4F500005F4000000
4F500005F4000000
4F500005FEFEB400
4F500005FB79DF60
4F500005F4001CE1
4F500005F40005F6
4F500005F40002F8
4F500005F40001F9
00000000000002F9
00000000000004F7
0000000000000AF2
0000000007A7AFA0
0000000004CFE800
ENDCHAR
STARTCHAR uni04A8
ENCODING 1192
SWIDTH 778 0
DWIDTH 16 0
BBX 14 15 1 -1
BITMAP
0006BEFE600000
01BFD989300000
09F80000000000
2FB00004CFD700
7F50003FD7BF70
AF2000AF300DE0
BF0000DD0008F3
BF0000FB0007F4
AF1000EC0008F3
7F5000BE100BF1
2FC0007F602FC0
09F9001DE3CF40
00AFE97BFFF800
0004AEFECEF997
00000000019EF9
ENDCHAR
STARTCHAR uni04A9
ENCODING 1193
SWIDTH 640 0
DWIDTH 13 0
BBX 12 11 1 0
BITMAP
007DFE400000
0AFA67100000
4F7002BED600
9F100CE6AF40
CD003F801F90
DC005F500EB0
CE004F600F90
9F102FA05F40
3F900AF6DA00
08FB68FFF760
005BEECADFE1
ENDCHAR
STARTCHAR uni04AA
ENCODING 1194
SWIDTH 630 0
DWIDTH 13 0
BBX 11 18 1 -4
BITMAP
00028CEEDA50
007FFB88AEA0
06FC20000010
1ED100000000
6F7000000000
9F2000000000
BF0000000000
BF0000000000
AF2000000000
7F6000000000
2FD100000000
09FB10000000
00AFEA889C70
0004ADFEDA40
000005D20000
000000AB0000
000002AD0000
00002EE60000
ENDCHAR
STARTCHAR uni04AB
ENCODING 1195
SWIDTH 476 0
DWIDTH 10 0
BBX 8 15 1 -4
BITMAP
006CEED7
09FC77A7
4F900000
9F200000
CD000000
DC000000
CE000000
AF200000
4F900000
09FB77A9
006CEEC6
0001C600
00003F20
00025F40
000AFB00
ENDCHAR
STARTCHAR uni04AC
ENCODING 1196
SWIDTH 553 0
DWIDTH 11 0
BBX 11 18 0 -4
BITMAP
DFFFFFFFFFD0
6888AFA88870
00005F500000
00005F500000
00005F500000
00005F500000
00005F500000
00005F500000
00005F500000
00005F500000
00005F500000
00005F500000
00005FA70000
00005FFE0000
000000AE0000
000000AE0000
000000AE0000
000000AE0000
ENDCHAR
STARTCHAR uni04AD
ENCODING 1197
SWIDTH 466 0
DWIDTH 9 0
BBX 9 15 0 -4
BITMAP
9FFFFFFFE0
3667FA6650
0002F70000
0002F70000
0002F70000
0002F70000
0002F70000
0002F70000
0002F70000
0002FA5000
0002FFE000
00000BE000
00000BE000
00000BE000
00000BE000
ENDCHAR
STARTCHAR uni04AE
ENCODING 1198
SWIDTH 560 0
DWIDTH 11 0
BBX 12 14 0 0
BITMAP
BF2000000DD1
3F9000006F60
09F30001EC00
02FB0008F400
008F401EB000
001EC09F2000
0006F7F90000
0000DFE10000
00005F800000
00004F700000
00004F700000
00004F700000
00004F700000
00004F700000
ENDCHAR
STARTCHAR uni04AF
ENCODING 1199
SWIDTH 500 0
DWIDTH 10 0
BBX 10 16 0 -5
BITMAP
CD000000DC
6F400003F7
1F900009F1
0AE1000EA0
04F6005F50
00DB00BE00
008F21F800
002F76F200
000BCBC000
0006FF6000
0001EE1000
0000CC0000
0000CC0000
0000CC0000
0000CC0000
0000CC0000
ENDCHAR
STARTCHAR uni04B0
ENCODING 1200
SWIDTH 560 0
DWIDTH 11 0
BBX 12 14 0 0
BITMAP
BF2000000DD1
3FA000006F50
09F30001EC00
01EB0008F300
007F402FA000
001DC0AF2000
0006F9F80000
0000CFE10000
00005F700000
03FFFFFFF500
01779FB77300
00004F700000
00004F700000
00004F700000
ENDCHAR
STARTCHAR uni04B1
ENCODING 1201
SWIDTH 500 0
DWIDTH 10 0
BBX 10 16 0 -5
BITMAP
CD000000DC
6F400003F7
1F900009F1
0AE1000EA0
04F5005F50
00DB00AE00
008F21F800
002F76F300
000CBBC000
0006FE6000
0001EF1000
08FFFFFF80
0244DD4420
0000CC0000
0000CC0000
0000CC0000
ENDCHAR
STARTCHAR uni04B2
ENCODING 1202
SWIDTH 619 0
DWIDTH 12 0
BBX 13 18 0 -4
BITMAP
4F8000001EC000
09F300009F2000
01DC0004F70000
004F701DC00000
0009F28F200000
0001DCF7000000
00005FD0000000
0000BFF4000000
0005F5CD100000
001EA03F800000
00AE2009F30000
04F60001EC0000
1DC000005FA810
9F3000000BFF10
00000000008F10
00000000008F10
00000000008F10
00000000008F10
ENDCHAR
STARTCHAR uni04B3
ENCODING 1203
SWIDTH 541 0
DWIDTH 11 0
BBX 11 15 0 -4
BITMAP
2EB00004F800
06F6001DC000
00AE209F3000
001EB4F70000
0005FFB00000
0000DF500000
0007FDD10000
003F92E90000
01DD107F5000
09F4000BE630
4F800002EF80
000000001F80
000000001F80
000000001F80
000000001F80
ENDCHAR
STARTCHAR uni04B4
ENCODING 1204
SWIDTH 854 0
DWIDTH 17 0
BBX 17 18 0 -4
BITMAP
DFFFFFFFFF900AF000
6888DF8888500AF000
0000AF0000000AF000
0000AF0000000AF000
0000AF0000000AF000
0000AF0000000AF000
0000AF0000000AF000
0000AF0000000AF000
0000AF0000000AF000
0000AF0000000AF000
0000AF0000000AF000
0000AF0000000AF000
0000AF8888888DF850
0000AFFFFFFFFFFFA0
000000000000000EA0
000000000000000EA0
000000000000000EA0
000000000000000EA0
ENDCHAR
STARTCHAR uni04B5
ENCODING 1205
SWIDTH 716 0
DWIDTH 14 0
BBX 14 15 0 -4
BITMAP
9FFFFFFFA02F70
366AF766402F70
0007F200002F70
0007F200002F70
0007F200002F70
0007F200002F70
0007F200002F70
0007F200002F70
0007F200002F70
0007F766667FA6
0007FFFFFFFFFF
000000000000AF
000000000000AF
000000000000AF
000000000000AF
ENDCHAR
STARTCHAR uni04B6
ENCODING 1206
SWIDTH 691 0
DWIDTH 14 0
BBX 13 18 1 -4
BITMAP
5F5000000BE000
5F5000000BE000
5F5000000BE000
5F5000000BE000
5F5000000BE000
5F5000000BE000
4F7000000BE000
1EE411259EE000
04EFFFFFDDE000
001576520BE000
000000000BE000
000000000BE000
000000000BF840
000000000BFF80
00000000001F80
00000000001F80
00000000001F80
00000000001F80
ENDCHAR
STARTCHAR uni04B7
ENCODING 1207
SWIDTH 608 0
DWIDTH 12 0
BBX 11 15 1 -4
BITMAP
7F200003F700
7F200003F700
7F200003F700
7F200003F700
6F300004F700
3FB2028EF700
07FFFFC7F700
00245303F700
00000003F700
00000003FA50
00000003FFE0
000000000BE0
000000000BE0
000000000BE0
000000000BE0
ENDCHAR
STARTCHAR uni04B8
ENCODING 1208
SWIDTH 694 0
DWIDTH 14 0
BBX 11 14 1 0
BITMAP
5F5000000BE0
5F5000000BE0
5F5000000BE0
5F5000000BE0
5F500D500BE0
5F500D500BE0
4F700D500BE0
1EE51D748EE0
04EFFFFFDEE0
00157E930BE0
00000D500BE0
00000D500BE0
000000000BE0
000000000BE0
ENDCHAR
STARTCHAR uni04B9
ENCODING 1209
SWIDTH 600 0
DWIDTH 12 0
BBX 10 11 1 0
BITMAP
7F200005F4
7F200005F4
7F200005F4
7F20E405F4
6F30E406F4
3FB2E69FF4
07FFFFB8F4
0025E505F4
0000E405F4
0000E405F4
00000005F4
ENDCHAR
STARTCHAR uni04BA
ENCODING 1210
SWIDTH 694 0
DWIDTH 14 0
BBX 11 14 2 0
BITMAP
F90000000000
F90000000000
F90000000000
F90000000000
F90000000000
FA6ADEEC6000
FFFB988CFA00
FB100000BF10
F90000007F30
F90000006F40
F90000006F40
F90000006F40
F90000006F40
F90000006F40
ENDCHAR
STARTCHAR uni04BB
ENCODING 1211
SWIDTH 584 0
DWIDTH 12 0
BBX 10 11 1 0
BITMAP
4F50000000
4F50000000
4F50000000
4F50000000
4F56CEEC40
4FED967DF3
4F900002F8
4F500000FA
4F500000FA
4F500000FA
4F500000FA
ENDCHAR
STARTCHAR uni04BC
ENCODING 1212
SWIDTH 837 0
DWIDTH 17 0
BBX 16 14 0 0
BITMAP
0000003ADFEC7100
000008FEA88BFC10
00006FB100005FA0
0000DE10000009F2
4F33F800000005F6
5F46F500000003F8
1DFFFFFFFFFFFFF9
015AF97777777774
0006F60000000000
0002FA0000000000
0000CF2000000000
00004FD200000010
000006FFB878ADB0
00000029DEFED940
ENDCHAR
STARTCHAR uni04BD
ENCODING 1213
SWIDTH 659 0
DWIDTH 13 0
BBX 13 11 0 0
BITMAP
000006CEEB3000
0000AF967DF400
5F15F60001EC00
7F2AE00000AF10
2DFFFFFFFFFF20
004ED555555510
000CE000000000
0008F200000000
0002FA00000000
00007FC778BA00
000004BEFEB400
ENDCHAR
STARTCHAR uni04BE
ENCODING 1214
SWIDTH 837 0
DWIDTH 17 0
BBX 16 18 0 -4
BITMAP
0000003ADFEC7100
000008FEA88BFC10
00006FB100005FA0
0000DE10000009F2
4F33F800000005F6
5F46F500000003F8
1DFFFFFFFFFFFFF9
015AF97777777774
0006F60000000000
0002FA0000000000
0000CF2000000000
00004FC200000000
000006FFA7679CA0
00000039DFFEDA50
000000000EA00000
000000000EA00000
000000000EA00000
000000000EA00000
ENDCHAR
STARTCHAR uni04BF
ENCODING 1215
SWIDTH 659 0
DWIDTH 13 0
BBX 13 15 0 -4
BITMAP
000005CFEA2000
00006FB68EE200
5F12E90003F900
7E07F20000CE00
5F3BE00000AF20
0CFFFFFFFFFF20
003DD555555510
000BF000000000
0006F700000000
0000BFA656AA00
000007CFFEB500
0000000EB00000
0000000EB00000
0000000EB00000
0000000EB00000
ENDCHAR
STARTCHAR uni04C0
ENCODING 1216
SWIDTH 278 0
DWIDTH 6 0
BBX 2 14 2 0
BITMAP
F9
F9
F9
F9
F9
F9
F9
F9
F9
F9
F9
F9
F9
F9
ENDCHAR
STARTCHAR uni04C1
ENCODING 1217
SWIDTH 844 0
DWIDTH 17 0
BBX 17 18 0 0
BITMAP
00002F6000AD000000
00000CD536F8000000
000002AEFD80000000
000000000000000000
6F700005F400009F40
08F50005F40007F600
00BE3005F4004F9000
001DD105F402EB0000
0002EB05F41DD10000
00004F95F4BE200000
000007FBFBF5000000
00000BF8F8F9000000
00008F55F47F600000
0005F805F40AF40000
003EB005F401DE2000
01DD1005F4002EC000
0BF30005F40004F900
9F600005F400007F70
ENDCHAR
STARTCHAR uni04C2
ENCODING 1218
SWIDTH 735 0
DWIDTH 15 0
BBX 15 15 0 0
BITMAP
0002F6000AD00000
0000DD437F800000
00002AEFD8000000
0000000000000000
3E90006F1001DC10
05F7006F100BE200
007F406F108F3000
000AE26F16F60000
0000CD7F5F800000
00005FCFCE100000
0002EA6F3DC00000
001DC16F13EA0000
00CE206F105F8000
0AE3006F1007F600
8F50006F10009F40
ENDCHAR
STARTCHAR uni04C3
ENCODING 1219
SWIDTH 688 0
DWIDTH 14 0
BBX 11 19 2 -5
BITMAP
F9000007F800
F900005FA000
F90004FB0000
F9002EC10000
F901DD200000
F91CE3000000
FABF40000000
FFFFFDB60000
FD8779DFC200
F9000007FC00
F90000009F50
F90000003F90
F90000000FB0
F90000001FB0
000000003F90
000000009F50
00000004FD00
006B88AFE300
004CEFD92000
ENDCHAR
STARTCHAR uni04C4
ENCODING 1220
SWIDTH 548 0
DWIDTH 11 0
BBX 10 16 1 -5
BITMAP
4F50006F60
4F5004F700
4F503E9000
4F52EA0000
4F6DC10000
4FEFFD9200
4FA769EE20
4F50003FB0
4F500009F1
4F500006F4
4F500005F5
00000006F4
00000009F1
0000002EB0
004A77DE30
002BEEA300
ENDCHAR
STARTCHAR uni04C5
ENCODING 1221
SWIDTH 706 0
DWIDTH 14 0
BBX 14 18 0 -4
BITMAP
00009FFFFFFF20
0000BD7777BF20
0000EA00008F20
0001F800008F20
0003F600008F20
0005F400008F20
0007F200008F20
000AE000008F20
000CC000008F20
000F9000008F20
004F6000008F20
009F2000008F20
78FB0000008F86
DEB10000008FFA
000000000001F6
000000000007F2
00000000000CD0
00000000003FA0
ENDCHAR
STARTCHAR uni04C6
ENCODING 1222
SWIDTH 571 0
DWIDTH 11 0
BBX 12 15 0 -4
BITMAP
0009FFFFFA00
000BD666EA00
000CB000EA00
000E9000EA00
001F8000EA00
003F6000EA00
006F3000EA00
00AE0000EA00
01EA0000EA00
4BF30000EC62
CD600000EFF3
0000000007E0
000000000CB0
000000001F70
000000006F40
ENDCHAR
STARTCHAR uni04C7
ENCODING 1223
SWIDTH 727 0
DWIDTH 15 0
BBX 11 19 2 -5
BITMAP
F90000000DC0
F90000000DC0
F90000000DC0
F90000000DC0
F90000000DC0
F90000000DC0
FFFFFFFFFFC0
FC7777777EC0
F90000000DC0
F90000000DC0
F90000000DC0
F90000000DC0
F90000000DC0
F90000000EB0
000000001F90
000000005F60
00000002DE10
003B87AEF400
002BEFEA3000
ENDCHAR
STARTCHAR uni04C8
ENCODING 1224
SWIDTH 616 0
DWIDTH 12 0
BBX 10 16 1 -5
BITMAP
4F500000AE
4F500000AE
4F500000AE
4F500000AE
4F500000AE
4FFFFFFFFE
4F966666CE
4F500000AE
4F500000AE
4F500000AE
4F500000AE
00000000BD
00000000DB
00000004F7
0002B78ED1
0001BEEB20
ENDCHAR
STARTCHAR uni04C9
ENCODING 1225
SWIDTH 745 0
DWIDTH 15 0
BBX 13 18 2 -4
BITMAP
F90000000DC000
F90000000DC000
F90000000DC000
F90000000DC000
F90000000DC000
F90000000DC000
FFFFFFFFFFC000
FC7777777EC000
F90000000DC000
F90000000DC000
F90000000DC000
F90000000DC000
F90000000DE840
F90000000DFF50
00000000006F10
0000000000CC00
0000000002F900
0000000008F500
ENDCHAR
STARTCHAR uni04CA
ENCODING 1226
SWIDTH 652 0
DWIDTH 13 0
BBX 12 15 1 -4
BITMAP
4F500000AE00
4F500000AE00
4F500000AE00
4F500000AE00
4F500000AE00
4FFFFFFFFE00
4F966666CE00
4F500000AE00
4F500000AE00
4F500000AF64
4F500000AFF7
0000000003F3
0000000008F0
000000000CB0
000000002F80
ENDCHAR
STARTCHAR uni04CB
ENCODING 1227
SWIDTH 694 0
DWIDTH 14 0
BBX 11 18 1 -4
BITMAP
5F5000000BE0
5F5000000BE0
5F5000000BE0
5F5000000BE0
5F5000000BE0
5F5000000BE0
4F7000000BE0
1EE411259EE0
04EFFFFFDDE0
001576520BE0
000000000BE0
000000000BE0
000000028DE0
00000004FFE0
00000004F400
00000004F400
00000004F400
00000004F400
ENDCHAR
STARTCHAR uni04CC
ENCODING 1228
SWIDTH 607 0
DWIDTH 12 0
BBX 10 15 1 -4
BITMAP
7F200003F7
7F200003F7
7F200003F7
7F200003F7
6F300004F7
3FB2028EF7
07FFFFC7F7
00245303F7
00000003F7
00000048F7
000000AFF7
000000AF00
000000AF00
000000AF00
000000AF00
ENDCHAR
STARTCHAR uni04CD
ENCODING 1229
SWIDTH 903 0
DWIDTH 18 0
BBX 16 18 2 -4
BITMAP
FFA000000009FF20
FEF10000000EEF20
F9F70000005F9F20
F7CD000000BB8F20
F76F400002F58F20
F71FA00008E08F20
F80AE1000E908F20
F804F6005F308F20
F800DC00BC008F20
F8007F32F6008F20
F8002F97E1008F20
F8000AED90008F20
F80005FF30008F86
F80000EC00008FFA
00000000000001F6
00000000000007F2
0000000000000DD0
0000000000004FA0
ENDCHAR
STARTCHAR uni04CE
ENCODING 1230
SWIDTH 735 0
DWIDTH 15 0
BBX 14 15 1 -4
BITMAP
4FD0000005FE00
4FF400000BFE00
4FCA00002FCE00
4F7F20008E7E00
4F3D7000D97E00
4F38D005F37E00
4F32F40AC07E00
4F30BA1F607E00
4F305E7E107E00
4F300EE9007F64
4F3008F3007FF7
000000000003F3
000000000008F0
00000000000CB0
00000000002F80
ENDCHAR
STARTCHAR uni04CF
ENCODING 1231
SWIDTH 278 0
DWIDTH 6 0
BBX 2 14 2 0
BITMAP
F9
F9
F9
F9
F9
F9
F9
F9
F9
F9
F9
F9
F9
F9
ENDCHAR
STARTCHAR uni04D0
ENCODING 1232
SWIDTH 632 0
DWIDTH 13 0
BBX 13 18 0 0
BITMAP
003F5000BC0000
000DC437F70000
0003BEFD700000
00000000000000
000008F4000000
00000EFA000000
00006F8F100000
0000CC2F700000
0003F60BD00000
0009E105F40000
001E9000EA0000
006F30008F1000
00CFFFFFFF7000
03FA88888DD000
09F1000007F400
1EA0000001FA00
6F40000000AF10
CD000000004F70
ENDCHAR
STARTCHAR uni04D1
ENCODING 1233
SWIDTH 556 0
DWIDTH 11 0
BBX 9 15 1 0
BITMAP
0F80008F00
0BE535EA00
019DFD9100
0000000000
039DEEA300
0AD868EE10
0100006F60
0000002F70
0000001F80
049CEEFF80
7FB6434F80
EC00003F80
FB0000AF80
BF967CDF80
19DFD91C80
ENDCHAR
STARTCHAR uni04D2
ENCODING 1234
SWIDTH 632 0
DWIDTH 13 0
BBX 13 18 0 0
BITMAP
0004E407D10000
0003E407D00000
00000000000000
00000000000000
000008F4000000
00000EFA000000
00006F8F100000
0000CC2F700000
0003F60BD00000
0009E105F40000
001E9000EA0000
006F30008F1000
00CFFFFFFF7000
03FA88888DD000
09F1000007F400
1EA0000001FA00
6F40000000AF10
CD000000004F70
ENDCHAR
STARTCHAR uni04D3
ENCODING 1235
SWIDTH 556 0
DWIDTH 11 0
BBX 9 15 1 0
BITMAP
01D704E400
00D703E300
0000000000
0000000000
039DEEA300
0AD868EE10
0100006F60
0000002F70
0000001F80
049CEEFF80
7FB6434F80
EC00003F80
FB0000AF80
BF967CDF80
19DFD91C80
ENDCHAR
STARTCHAR uni04D4
ENCODING 1236
SWIDTH 873 0
DWIDTH 17 0
BBX 17 14 0 0
BITMAP
0000007FFFFFFFFF40
000000EC8FC7777720
000006F41F90000000
00000DC01F90000000
00006F401F90000000
0000DC001F90000000
0006F5001FFFFFFD00
000DC0001FC7777600
005FFFFFFF90000000
00CE88888F90000000
05F600001F90000000
0CE000001F90000000
4F7000001FC7777720
CE1000001FFFFFFF40
ENDCHAR
STARTCHAR uni04D5
ENCODING 1237
SWIDTH 857 0
DWIDTH 17 0
BBX 17 11 0 0
BITMAP
005BEFD813BFFB4000
00EB769FBFC67CF400
00100009FC0001EC00
00000006F60000AF10
0029CEEFFFEEEEFF20
04FD7438F855555510
0DE10007F600000000
1FA00009F900000000
0EC0002FDF30000000
09F968EA2EE878BA00
018DFD70029EFEB400
ENDCHAR
STARTCHAR uni04D6
ENCODING 1238
SWIDTH 556 0
DWIDTH 11 0
BBX 8 18 2 0
BITMAP
9E0002F6
5F834BE2
06DEEB40
00000000
FFFFFFFE
FC777776
F9000000
F9000000
F9000000
F9000000
FFFFFFF8
FC777774
F9000000
F9000000
F9000000
F9000000
FC777777
FFFFFFFE
ENDCHAR
STARTCHAR uni04D7
ENCODING 1239
SWIDTH 561 0
DWIDTH 11 0
BBX 10 15 1 0
BITMAP
0AD0003F60
05F834BE10
007DEEB300
0000000000
006CFEB300
08FA67DF40
3F70001EC0
9E00000AF1
CFFFFFFFF2
DD55555551
CE00000000
9F40000000
3FC1000000
08FD878BB0
005BEFEB40
ENDCHAR
STARTCHAR uni04D8
ENCODING 1240
SWIDTH 729 0
DWIDTH 15 0
BBX 13 14 1 0
BITMAP
06ADEFEC710000
0EDA988CFE3000
010000003DE200
0000000003FA00
0000000000AF00
00000000007F30
DFFFFFFFFFFF50
CE77777777AF50
BF000000008F40
9F20000000CF10
4F70000004FA00
0CE300003EF300
02EFA88BFE5000
0018DEED820000
ENDCHAR
STARTCHAR uni04D9
ENCODING 1241
SWIDTH 559 0
DWIDTH 11 0
BBX 10 11 1 0
BITMAP
39DEEC6000
8D978BFA00
1000007F60
0000000DC0
0000000AF0
FFFFFFFFF1
FD55555CF0
DE00000DC0
8F50006F60
1DF869FB00
019EFD8000
ENDCHAR
STARTCHAR uni04DA
ENCODING 1242
SWIDTH 729 0
DWIDTH 15 0
BBX 13 18 1 0
BITMAP
0006D20AB00000
0005D209B00000
00000000000000
00000000000000
06ADEFEC710000
0EDA988CFE3000
010000003DE200
0000000003FA00
0000000000AF00
00000000007F30
DFFFFFFFFFFF50
CE77777777AF50
BF000000008F40
9F20000000CF10
4F70000004FA00
0CE300003EF300
02EFA88BFE5000
0018DEED820000
ENDCHAR
STARTCHAR uni04DB
ENCODING 1243
SWIDTH 559 0
DWIDTH 11 0
BBX 10 15 1 0
BITMAP
01D605E200
01D604D200
0000000000
0000000000
39DEEC6000
8D978BFA00
1000007F60
0000000DC0
0000000AF0
FFFFFFFFF1
FD55555CF0
DE00000DC0
8F50006F60
1DF869FB00
019EFD8000
ENDCHAR
STARTCHAR uni04DC
ENCODING 1244
SWIDTH 844 0
DWIDTH 17 0
BBX 17 18 0 0
BITMAP
000003E406D1000000
000002E406D1000000
000000000000000000
000000000000000000
6F700005F400009F40
08F50005F40007F600
00BE3005F4004F9000
001DD105F402EB0000
0002EB05F41DD10000
00004F95F4BE200000
000007FBFBF5000000
00000BF8F8F9000000
00008F55F47F600000
0005F805F40AF40000
003EB005F401DE2000
01DD1005F4002EC000
0BF30005F40004F900
9F600005F400007F70
ENDCHAR
STARTCHAR uni04DD
ENCODING 1245
SWIDTH 735 0
DWIDTH 15 0
BBX 15 15 0 0
BITMAP
00004E307D000000
00003E307D000000
0000000000000000
0000000000000000
3E90006F1001DC10
05F7006F100BE200
007F406F108F3000
000AE26F16F60000
0000CD7F5F800000
00005FCFCE100000
0002EA6F3DC00000
001DC16F13EA0000
00CE206F105F8000
0AE3006F1007F600
8F50006F10009F40
ENDCHAR
STARTCHAR uni04DE
ENCODING 1246
SWIDTH 581 0
DWIDTH 12 0
BBX 11 18 0 0
BITMAP
001D704E4000
000D703E3000
000000000000
000000000000
016BEFDB5000
1DFB868DF900
05200001CF20
000000008F30
00000000CE10
0000025BE400
00BFFFF92000
0046679EE500
00000001BF20
000000005F70
000000005F70
11000001CF30
4FB8679EF700
17CDFFD93000
ENDCHAR
STARTCHAR uni04DF
ENCODING 1247
SWIDTH 482 0
DWIDTH 10 0
BBX 9 15 0 0
BITMAP
00D803E400
00C802E400
0000000000
0000000000
17CEFD9100
0CA768ED10
0000006F50
0000004F50
000014DD00
006FFFC100
002668DD20
0000001F90
1000001FA0
5D9767DF40
29DFFDA300
ENDCHAR
STARTCHAR uni04E0
ENCODING 1248
SWIDTH 583 0
DWIDTH 12 0
BBX 11 14 0 0
BITMAP
0DFFFFFFFE00
0788888BFB00
0000004EA000
000005F90000
00005F900000
0006F8000000
000FFED94000
0005679EF800
00000001BF40
000000004F70
000000005F70
11000001CF30
4FA8679EF700
17CDFFD93000
ENDCHAR
STARTCHAR uni04E1
ENCODING 1249
SWIDTH 488 0
DWIDTH 10 0
BBX 10 16 0 -5
BITMAP
7FFFFFFF80
366666BF40
000005F600
00004F7000
0003E80000
002EA00000
00BFEC6000
00357BFC10
0000005F80
0000000BE0
00000008F1
00000009F1
0000000CD0
1000006F70
BB866AFA00
5BDFEC6000
ENDCHAR
STARTCHAR uni04E2
ENCODING 1250
SWIDTH 762 0
DWIDTH 15 0
BBX 12 17 2 0
BITMAP
001555553000
004FFFFF8000
000000000000
F80000000CF4
F80000008FF4
F8000004FBF4
F800001DD3F4
F800009F43F4
F80004F903F4
F8001DD104F4
F800AF4004F4
F805F80004F4
F81ED00004F4
F7BF300004F4
FCF8000004F4
FFC0000004F4
FF20000004F4
ENDCHAR
STARTCHAR uni04E3
ENCODING 1251
SWIDTH 633 0
DWIDTH 13 0
BBX 10 14 1 0
BITMAP
0035555510
009FFFFF40
0000000000
4F400006FE
4F40001EEE
4F40009E9E
4F4003F58E
4F400CB08E
4F407F208E
4F42E8008E
4F3BD0008E
4F8F40008E
4FEA00008E
4FE100008E
ENDCHAR
STARTCHAR uni04E4
ENCODING 1252
SWIDTH 762 0
DWIDTH 15 0
BBX 12 18 2 0
BITMAP
001D704E3000
000D703E3000
000000000000
000000000000
F80000000CF4
F80000008FF4
F8000004FBF4
F800001DD3F4
F800009F43F4
F80004F903F4
F8001DD104F4
F800AF4004F4
F805F80004F4
F81ED00004F4
F7BF300004F4
FCF8000004F4
FFC0000004F4
FF20000004F4
ENDCHAR
STARTCHAR uni04E5
ENCODING 1253
SWIDTH 633 0
DWIDTH 13 0
BBX 10 15 1 0
BITMAP
004E407D10
003E407D00
0000000000
0000000000
4F400006FE
4F40001EEE
4F40009E9E
4F4003F58E
4F400CB08E
4F407F208E
4F42E8008E
4F3BD0008E
4F8F40008E
4FEA00008E
4FE100008E
ENDCHAR
STARTCHAR uni04E6
ENCODING 1254
SWIDTH 778 0
DWIDTH 16 0
BBX 14 18 1 0
BITMAP
0000BA02D60000
0000BA01D60000
00000000000000
00000000000000
0004ADFEC81000
00AFEA88BFE400
08FA100003DE20
2FC00000003FA0
7F500000000CF1
AF2000000008F4
BF0000000007F5
BF0000000007F5
AF2000000008F4
7F500000000CF1
2FC00000003FA0
09F9000003DE20
00AFE978BFE400
0004ADFEC81000
ENDCHAR
STARTCHAR uni04E7
ENCODING 1255
SWIDTH 604 0
DWIDTH 12 0
BBX 10 15 1 0
BITMAP
008D00C900
007D00B900
0000000000
0000000000
006CEEC600
09FB66BF90
4F900008F4
9F100001FA
CD000000DD
DC000000BE
CE000000DD
9F200001FA
3F900008F4
07FB66AF90
005BEEC600
ENDCHAR
STARTCHAR uni04E8
ENCODING 1256
SWIDTH 779 0
DWIDTH 16 0
BBX 14 14 1 0
BITMAP
0004ADFEC81000
00AFE988BFE400
08F9000002DE20
2FB00000003FA0
7F400000000BF1
AF1000000008F4
BFFFFFFFFFFFF5
BF777777777BF5
AF2000000008F4
7F500000000CF1
2FC00000003FA0
09F9000003DE20
00AFE978BFE400
0004ADFEC81000
ENDCHAR
STARTCHAR uni04E9
ENCODING 1257
SWIDTH 604 0
DWIDTH 12 0
BBX 10 11 1 0
BITMAP
006CEEC600
09FB77BF90
4FA00009F4
9F200001FA
CE000000DD
DFFFFFFFFE
CE666666DD
9F000000EA
3F700006F4
07FA76AF90
005BEEC600
ENDCHAR
STARTCHAR uni04EA
ENCODING 1258
SWIDTH 779 0
DWIDTH 16 0
BBX 14 18 1 0
BITMAP
0000BA02D60000
0000BA01D60000
00000000000000
00000000000000
0004ADFEC81000
00AFE988BFE400
08F9000002DE20
2FB00000003FA0
7F400000000BF1
AF1000000008F4
BFFFFFFFFFFFF5
BF777777777BF5
AF2000000008F4
7F500000000CF1
2FC00000003FA0
09F9000003DE20
00AFE978BFE400
0004ADFEC81000
ENDCHAR
STARTCHAR uni04EB
ENCODING 1259
SWIDTH 604 0
DWIDTH 12 0
BBX 10 15 1 0
BITMAP
008D00C900
007D00B900
0000000000
0000000000
006CEEC600
09FB77BF90
4FA00009F4
9F200001FA
CE000000DD
DFFFFFFFFE
CE666666DD
9F000000EA
3F700006F4
07FA76AF90
005BEEC600
ENDCHAR
STARTCHAR uni04EC
ENCODING 1260
SWIDTH 629 0
DWIDTH 13 0
BBX 12 18 0 0
BITMAP
001D604E3000
001D604E3000
000000000000
000000000000
17CDFEC71000
1FC989CFD400
01000005EE20
000000005FA0
000000000CF1
0000000008F3
007FFFFFFFF5
003777777BF4
0000000008F3
000000000CE0
000000004F90
00000004EE20
4C9879CFE300
2ADEFEB71000
ENDCHAR
STARTCHAR uni04ED
ENCODING 1261
SWIDTH 492 0
DWIDTH 10 0
BBX 9 15 0 0
BITMAP
00D803E400
00D703E400
0000000000
0000000000
2ADFEB4000
1C979EF700
000001CF20
0000005F70
0000001FA0
06FFFFFFB0
0266666FA0
0000003F70
000001BE10
6B879DF500
3BEFDA3000
ENDCHAR
STARTCHAR uni04EE
ENCODING 1262
SWIDTH 621 0
DWIDTH 12 0
BBX 13 17 0 0
BITMAP
00035555510000
0009FFFFF40000
00000000000000
7F500000008F30
1DD0000001EB00
06F7000007F400
00CE10000DC000
005F80006F5000
000BE100CD0000
0003F904F60000
0000AF2BE10000
00002FBF700000
000009FE100000
000005F8000000
00001DE1000000
1B89EF50000000
0DFEB400000000
ENDCHAR
STARTCHAR uni04EF
ENCODING 1263
SWIDTH 503 0
DWIDTH 10 0
BBX 10 19 0 -5
BITMAP
0045555500
00DFFFFF00
0000000000
CE000000DD
6F500003F8
1EA00008F2
09F1000DC0
04F6004F60
00DC009F10
007F20EA00
001F84F500
000AC9E000
0004FE9000
0000DF3000
0000CD0000
0003F70000
000AF10000
56AF700000
BFD6000000
ENDCHAR
STARTCHAR uni04F0
ENCODING 1264
SWIDTH 621 0
DWIDTH 12 0
BBX 13 18 0 0
BITMAP
0004E307D00000
0003E307D00000
00000000000000
00000000000000
7F500000008F30
1DD0000001EB00
06F7000007F400
00CE10000DC000
005F80006F5000
000BE100CD0000
0003F904F60000
0000AF2BE10000
00002FBF700000
000009FE100000
000005F8000000
00001DE1000000
1B89EF50000000
0DFEB400000000
ENDCHAR
STARTCHAR uni04F1
ENCODING 1265
SWIDTH 503 0
DWIDTH 10 0
BBX 10 20 0 -5
BITMAP
008D00C900
007D00B900
0000000000
0000000000
CE000000DD
6F500003F8
1EA00008F2
09F1000DC0
04F6004F60
00DC009F10
007F20EA00
001F84F500
000AC9E000
0004FE9000
0000DF3000
0000CD0000
0003F70000
000AF10000
56AF700000
BFD6000000
ENDCHAR
STARTCHAR uni04F2
ENCODING 1266
SWIDTH 621 0
DWIDTH 12 0
BBX 13 18 0 0
BITMAP
00001DD16F6000
00008E31E90000
0003E30A900000
00000000000000
7F500000008F30
1DD0000001EB00
06F7000007F400
00CE10000DC000
005F80006F5000
000BE100CD0000
0003F904F60000
0000AF2BE10000
00002FBF700000
000009FE100000
000005F8000000
00001DE1000000
1B89EF50000000
0DFEB400000000
ENDCHAR
STARTCHAR uni04F3
ENCODING 1267
SWIDTH 503 0
DWIDTH 10 0
BBX 10 20 0 -5
BITMAP
0004F90BE2
000CB05F40
007B11D500
0000000000
CE000000DD
6F500003F8
1EA00008F2
09F1000DC0
04F6004F60
00DC009F10
007F20EA00
001F84F500
000AC9E000
0004FE9000
0000DF3000
0000CD0000
0003F70000
000AF10000
56AF700000
BFD6000000
ENDCHAR
STARTCHAR uni04F4
ENCODING 1268
SWIDTH 694 0
DWIDTH 14 0
BBX 11 18 1 0
BITMAP
000BA02E5000
000B901D5000
000000000000
000000000000
5F5000000BE0
5F5000000BE0
5F5000000BE0
5F5000000BE0
5F5000000BE0
5F6000000BE0
3FA000001CE0
0BFB889CFFE0
017CEEDA5BE0
000000000BE0
000000000BE0
000000000BE0
000000000BE0
000000000BE0
ENDCHAR
STARTCHAR uni04F5
ENCODING 1269
SWIDTH 607 0
DWIDTH 12 0
BBX 10 15 1 0
BITMAP
009C00D800
008C00C800
0000000000
0000000000
7F200003F7
7F200003F7
7F200003F7
7F200003F7
6F300004F7
3FB2028EF7
07FFFFC7F7
00245303F7
00000003F7
00000003F7
00000003F7
ENDCHAR
STARTCHAR uni04F6
ENCODING 1270
SWIDTH 526 0
DWIDTH 11 0
BBX 9 18 2 -4
BITMAP
FFFFFFFF10
FC88888810
F900000000
F900000000
F900000000
F900000000
F900000000
F900000000
F900000000
F900000000
F900000000
F900000000
FC82000000
FFF3000000
06F3000000
06F3000000
06F3000000
06F3000000
ENDCHAR
STARTCHAR uni04F7
ENCODING 1271
SWIDTH 428 0
DWIDTH 9 0
BBX 8 15 1 -4
BITMAP
4FFFFFF2
4F966661
4F500000
4F500000
4F500000
4F500000
4F500000
4F500000
4F500000
4F950000
4FFC0000
00CC0000
00CC0000
00CC0000
00CC0000
ENDCHAR
STARTCHAR uni04F8
ENCODING 1272
SWIDTH 853 0
DWIDTH 17 0
BBX 14 18 2 0
BITMAP
0002D605E20000
0001D604D20000
00000000000000
00000000000000
F90000000008F1
F90000000008F1
F90000000008F1
F90000000008F1
F90000000008F1
F90000000008F1
FFFFFDA30008F1
FC778AEF5008F1
F900002EE008F1
F9000009F208F1
F900000AF208F1
F900002EE008F1
FC6679EF5008F1
FFFFFEA30008F1
ENDCHAR
STARTCHAR uni04F9
ENCODING 1273
SWIDTH 770 0
DWIDTH 15 0
BBX 13 15 1 0
BITMAP
0000D803E40000
0000C802E40000
00000000000000
00000000000000
4F500000000EA0
4F500000000EA0
4F500000000EA0
4F500000000EA0
4F500000000EA0
4FFFFFEA200EA0
4F96669ED00EA0
4F500007F30EA0
4F500007F30EA0
4F95569FC00EA0
4FFFFED8100EA0
ENDCHAR
STARTCHAR uni04FA
ENCODING 1274
SWIDTH 526 0
DWIDTH 11 0
BBX 11 17 0 -3
BITMAP
00FFFFFFFF10
00FC88888810
00F900000000
00F900000000
00F900000000
00F900000000
8FFFFFFC0000
47FC77750000
00F900000000
00F900000000
00F900000000
00F900000000
00FFF1000000
00FFF1000000
0006F1000000
037CE0000000
04ED50000000
ENDCHAR
STARTCHAR uni04FB
ENCODING 1275
SWIDTH 428 0
DWIDTH 9 0
BBX 9 15 0 -4
BITMAP
04FFFFFF20
04F9666610
04F5000000
04F5000000
04F5000000
CFFFFFB000
37F7443000
04F5000000
04F5000000
04F5000000
04FFB00000
000BB00000
000BB00000
057E900000
08EC200000
ENDCHAR
STARTCHAR uni04FC
ENCODING 1276
SWIDTH 621 0
DWIDTH 12 0
BBX 12 17 0 -3
BITMAP
4F8000001EC0
09F300009F20
01DC0004F700
004F701DC000
0009F28F2000
0001DCF70000
00005FD00000
0000BFF40000
0005F5CD1000
001EA03F8000
00AE2009F300
04F60001EC00
1DC000005FFF
9F3000000BFF
00000000008E
0000000037DC
000000005ED4
ENDCHAR
STARTCHAR uni04FD
ENCODING 1277
SWIDTH 540 0
DWIDTH 11 0
BBX 11 15 0 -4
BITMAP
2EB00004F800
06F6001DC000
00AE209F3000
001EB4F70000
0005FFB00000
0000DF500000
0007FDD10000
003F92EA0000
01DD107F5000
09F4000BE200
4F800002EF80
000000000E80
000000000E80
000000079F50
0000000BEA00
ENDCHAR
STARTCHAR uni04FE
ENCODING 1278
SWIDTH 577 0
DWIDTH 12 0
BBX 12 14 0 0
BITMAP
4F8000001EC0
0AF300009F30
01EC0003F700
005F600CC000
000BE17F3000
0002EBE80000
0CFFFFFFFF40
0677DFFA7720
0004F7DC0000
001DB04F7000
009E200AF200
04F70001EC00
1DC000006F70
9F3000000BF2
ENDCHAR
STARTCHAR uni04FF
ENCODING 1279
SWIDTH 523 0
DWIDTH 10 0
BBX 10 11 0 0
BITMAP
2EB00004F8
07F5000DD1
00CE107F40
003F92F900
0008FDD100
0DFFFFFFF5
0348FFD441
002EB4F700
00BE108F30
08F4000CD1
4F900002EB
ENDCHAR
STARTCHAR uni0500
ENCODING 1280
SWIDTH 612 0
DWIDTH 12 0
BBX 10 14 1 0
BITMAP
00000002F8
00000002F8
00000002F8
00000002F8
00000002F8
00000002F8
006BEFFFF8
1CFC9778F8
7F800002F8
AF100002F8
AF100002F8
7F800002F8
1CFC8778F8
017CEFFFF8
ENDCHAR
STARTCHAR uni0501
ENCODING 1281
SWIDTH 612 0
DWIDTH 12 0
BBX 10 15 1 0
BITMAP
00000001F8
00000001F8
00000001F8
00000001F8
008DFD82F8
0AFA67CCF8
5F90000BF8
AF200005F8
CE000002F8
DC000001F8
CD000002F8
AF100004F8
5F80000AF8
0BFA67CCF8
018DFD91D8
ENDCHAR
STARTCHAR uni0502
ENCODING 1282
SWIDTH 898 0
DWIDTH 18 0
BBX 16 14 1 0
BITMAP
00000008F1000000
00000008F1000000
00000008F1000000
00000008F1000000
00000008F1000000
00000008F1000000
005BDFFFF10008F2
0BFD987CF10008F2
6F900008F10008F2
AF200008F10008F2
AF100009F20008F2
8F60000DF6000CF1
2EFA78DECE97BF90
029DFEA21AEFD700
ENDCHAR
STARTCHAR uni0503
ENCODING 1283
SWIDTH 895 0
DWIDTH 18 0
BBX 16 15 1 0
BITMAP
00000006F4000000
00000006F4000000
00000006F4000000
00000006F4000000
018DFD65F4000000
0BF968ECF4000000
5F70002EF4000000
AF100009F4000000
CD000007F40005F5
DC000006F40005F5
CD000006F40005F5
AF100008F50006F4
5F60001EF80009F2
0BF968DC7F969FA0
018DFD8108DFD810
ENDCHAR
STARTCHAR uni0504
ENCODING 1284
SWIDTH 903 0
DWIDTH 18 0
BBX 17 14 0 0
BITMAP
017BEFD92000000000
1EFA769EE300000000
05200004FA00000000
00000000EC00000000
00000003F800000000
0000127EB100000000
00CFFFE60000006F40
004667BFB100006F40
00000005FA00006F40
00000000CF00006F40
000000009F20006F40
000000006F6000AF20
000000001DF98BFA00
0000000002ADED8100
ENDCHAR
STARTCHAR uni0505
ENCODING 1285
SWIDTH 801 0
DWIDTH 16 0
BBX 15 11 0 0
BITMAP
18CEEC7000000000
0CA76AFA00000000
000000AF00000000
0000009F00000000
000015E900003F60
006FFFA100003F60
002669EC10003F60
0000005F50004F60
0000001F90008F40
0000000AF968FD00
000000018DFDA200
ENDCHAR
STARTCHAR uni0506
ENCODING 1286
SWIDTH 625 0
DWIDTH 13 0
BBX 13 18 0 -4
BITMAP
016BEFDA400000
1DFB768DF70000
05200001DE0000
000000009F1000
00000000CC0000
0000025CD30000
00CFFFE7100000
0056679EC30000
00000001CD1000
000000005F4000
000000003F5000
000000003F5000
000000003FA800
000000003FFF10
00000000008F10
00000000008F10
00000000008F10
00000000008F10
ENDCHAR
STARTCHAR uni0507
ENCODING 1287
SWIDTH 522 0
DWIDTH 10 0
BBX 11 15 0 -4
BITMAP
18CEFD810000
0CA768EC0000
0000006F3000
0000004F3000
000014DC0000
006FFFB10000
002668EC1000
0000002F7000
0000000E9000
0000000EC610
0000000EFF20
000000007F20
000000007F20
000000007F20
000000007F20
ENDCHAR
STARTCHAR uni0508
ENCODING 1288
SWIDTH 980 0
DWIDTH 20 0
BBX 18 14 0 0
BITMAP
00009FFFFFFC000000
0000CD7777EC000000
0000EA0000DC000000
0001F80000DC000000
0003F60000DC000000
0005F40000DC000000
0007F20000DC0000CC
000AF00000DC0000CC
000CC00000DC0000CC
001F900000DC0000CC
004F600000CD0000DC
009F200000AF2002FA
78FB0000004FE99EF3
DEB100000004BEEB40
ENDCHAR
STARTCHAR uni0509
ENCODING 1289
SWIDTH 851 0
DWIDTH 17 0
BBX 16 12 0 -1
BITMAP
0009FFFFF8000000
000BD667F8000000
000CB001F8000000
000E9001F8000000
001F8001F80003F6
003F6001F80003F6
006F3001F80003F6
00AE0001F80004F6
01EA0000EC0007F4
4BF300008F957ED0
CD60000007DFEB20
0000000000010000
ENDCHAR
STARTCHAR uni050A
ENCODING 1290
SWIDTH 1012 0
DWIDTH 20 0
BBX 17 14 2 0
BITMAP
F90000004F60000000
F90000004F60000000
F90000004F60000000
F90000004F60000000
F90000004F60000000
F90000004F60000000
FFFFFFFFFF60003F60
FC7777779F60003F60
F90000004F60003F60
F90000004F60003F60
F90000003F70004F60
F90000001FB0007F40
F90000000AFB8AFC00
F9000000018DED9100
ENDCHAR
STARTCHAR uni050B
ENCODING 1291
SWIDTH 913 0
DWIDTH 18 0
BBX 16 11 1 0
BITMAP
4F500000DB000000
4F500000DB000000
4F500000DB000000
4F500000DB000000
4F500000DB0000FA
4FFFFFFFFB0000FA
4F966666EB0000FA
4F500000DC0001F9
4F500000BE1004F7
4F5000004FC67EE2
4F50000005CEEB30
ENDCHAR
STARTCHAR uni050C
ENCODING 1292
SWIDTH 755 0
DWIDTH 15 0
BBX 13 14 1 0
BITMAP
00017CDFEC9400
005EFB889CF900
05FC2000001100
1ED10000000000
6F600000000000
9F200000000000
BF000000000000
BF000008FFFFF0
AF200004777DE0
7F600000000DD0
1FD00000002F90
07FB100001CF30
008FEA779EF600
0003ADFFD93000
ENDCHAR
STARTCHAR uni050D
ENCODING 1293
SWIDTH 640 0
DWIDTH 13 0
BBX 11 11 1 0
BITMAP
0029DEEDA500
05EE8668C800
2FC100000000
8F3000000000
CD0000000000
DC0004FFFFB0
CE0001666FA0
9F3000002F80
3FC100009F30
07FD767BF800
004AEFEB6000
ENDCHAR
STARTCHAR uni050E
ENCODING 1294
SWIDTH 709 0
DWIDTH 14 0
BBX 13 14 0 0
BITMAP
DFFFFFFFFFB000
6888BF98886000
00007F30000000
00007F30000000
00007F30000000
00007F30000000
00007F30004F60
00007F30004F60
00007F30004F60
00007F30004F60
00006F40004F60
00004F80008F40
00000CFA7AFC00
0000019DFD8100
ENDCHAR
STARTCHAR uni050F
ENCODING 1295
SWIDTH 646 0
DWIDTH 13 0
BBX 12 11 0 0
BITMAP
9FFFFFFFC000
3668F9664000
0004F6000000
0004F6000000
0004F60004F5
0004F60004F5
0004F60004F5
0003F60005F4
0001FA0009F2
00008F969FB0
000007DED910
ENDCHAR
STARTCHAR uni0510
ENCODING 1296
SWIDTH 583 0
DWIDTH 12 0
BBX 10 14 1 0
BITMAP
006CEFDA50
0BFB768DF9
5F90000051
6F40000000
3F80000000
08F9310000
003BFFFF50
07FC866620
7F70000000
CE00000000
DE00000000
AF60000002
2DFC8679DC
017CEFEDA5
ENDCHAR
STARTCHAR uni0511
ENCODING 1297
SWIDTH 475 0
DWIDTH 10 0
BBX 9 11 0 0
BITMAP
004BEFDB50
05FC768C70
0BE1000000
0BD0000000
05F9200000
005EFFF000
05EB766000
0EA0000000
1FA0000010
0AFA667BC0
006CEFDB50
ENDCHAR
STARTCHAR uni0512
ENCODING 1298
SWIDTH 700 0
DWIDTH 14 0
BBX 14 17 0 -3
BITMAP
00009FFFFFFF20
0000CD7777BF20
0000EA00008F20
0001F800008F20
0003F600008F20
0005F400008F20
0007F200008F20
000AF000008F20
000CC000008F20
000F9000008F20
004F6000008F20
009F2000008F20
78FB0000008FF8
DEB10000008FF8
000000000000E8
000000000068F6
0000000000AEB1
ENDCHAR
STARTCHAR uni0513
ENCODING 1299
SWIDTH 570 0
DWIDTH 11 0
BBX 12 15 0 -4
BITMAP
0009FFFFFB00
000AD666EB00
000CB000EB00
000EA000EB00
001F8000EB00
003F6000EB00
006F3000EB00
00AE0000EB00
01EA0000EB00
4BF30000EB00
CD600000EFF2
0000000005F2
0000000005F2
000000027CE0
00000003EE60
ENDCHAR
STARTCHAR uni1E00
ENCODING 7680
SWIDTH 632 0
DWIDTH 13 0
BBX 13 19 0 -5
BITMAP
000008F4000000
00000EFA000000
00006F8F100000
0000CC2F700000
0003F60BD00000
0009E105F40000
001E9000EA0000
006F30008F1000
00CFFFFFFF7000
03FA88888DD000
09F1000007F400
1EA0000001FA00
6F40000000AF10
CD000000004F70
00000000000000
00003DEA100000
0000B60B600000
0000B50B600000
00003DEA100000
ENDCHAR
STARTCHAR uni1E01
ENCODING 7681
SWIDTH 556 0
DWIDTH 11 0
BBX 9 16 1 -5
BITMAP
039DEEA300
0AD868EE10
0100006F60
0000002F70
0000001F80
049CEEFF80
7FB6434F80
EC00003F80
FB0000AF80
BF967CDF80
19DFD91C80
0000000000
004DE90000
00C40C5000
00C40C5000
004DEA0000
ENDCHAR
STARTCHAR uni1E3E
ENCODING 7742
SWIDTH 902 0
DWIDTH 18 0
BBX 15 18 2 0
BITMAP
00000009F7000000
0000003F80000000
000001D800000000
0000000000000000
FFA000000009FF20
FEF10000001EEF20
F9F70000005F9F20
F7CD000000BB8F20
F76F300002F58F20
F71F900008E08F20
F80AE1000E908F20
F804F6005F308F20
F800DC00BC008F20
F8007F32F6008F20
F8002F98E1008F20
F8000AEE90008F20
F80005FF30008F20
F80000EC00008F20
ENDCHAR
STARTCHAR uni1E3F
ENCODING 7743
SWIDTH 930 0
DWIDTH 19 0
BBX 16 15 1 0
BITMAP
000000002FD10000
00000000BD200000
00000007D2000000
0000000000000000
4F15CFD7008DEC60
4F8D86BF7AC77CF7
4FD1000CFB0001EC
4F800008F50000AE
4F600007F30000AF
4F500007F20000AF
4F500007F20000AF
4F500007F20000AF
4F500007F20000AF
4F500007F20000AF
4F500007F20000AF
ENDCHAR
STARTCHAR Wgrave
ENCODING 7808
SWIDTH 925 0
DWIDTH 19 0
BBX 19 18 0 0
BITMAP
0000003FC00000000000
00000005F70000000000
000000005E3000000000
00000000000000000000
9F200000DF300000AF20
5F600002FF800000ED00
1FA00007FBD00002F900
0CE0000BC7F20006F400
08F3001F82F7000AF100
04F7005F40CC000EB000
00EB00AE008F103F7000
00BE00EA003F607F3000
006F44F5000DB0BE0000
002F77F10009E1EA0000
000DBBB00004F7F60000
0009DE700000ECF20000
0005FF200000AFD00000
0001FD0000005F900000
ENDCHAR
STARTCHAR wgrave
ENCODING 7809
SWIDTH 777 0
DWIDTH 16 0
BBX 16 15 0 0
BITMAP
00000CF400000000
000001DC00000000
0000001C80000000
0000000000000000
AF10004FD00007F3
6F40008FF2000BE0
2F8000D9F7000EA0
0DC003F5CB003F60
09F107F18F107F20
05F40CB03F50BD00
01F82F600EA0E900
00CC6F2009E4F500
008FAC0005FAF100
004FF70001EFC000
000EF30000BF8000
ENDCHAR
STARTCHAR Wacute
ENCODING 7810
SWIDTH 925 0
DWIDTH 19 0
BBX 19 18 0 0
BITMAP
0000000006F900000000
000000001EB000000000
00000000BA0000000000
00000000000000000000
9F200000DF300000AF20
5F600002FF800000ED00
1FA00007FBD00002F900
0CE0000BC7F20006F400
08F3001F82F7000AF100
04F7005F40CC000EB000
00EB00AE008F103F7000
00BE00EA003F607F3000
006F44F5000DB0BE0000
002F77F10009E1EA0000
000DBBB00004F7F60000
0009DE700000ECF20000
0005FF200000AFD00000
0001FD0000005F900000
ENDCHAR
STARTCHAR wacute
ENCODING 7811
SWIDTH 777 0
DWIDTH 16 0
BBX 16 15 0 0
BITMAP
00000000CF300000
00000007F5000000
0000003E50000000
0000000000000000
AF10004FD00007F3
6F40008FF2000BE0
2F8000D9F7000EA0
0DC003F5CB003F60
09F107F18F107F20
05F40CB03F50BD00
01F82F600EA0E900
00CC6F2009E4F500
008FAC0005FAF100
004FF70001EFC000
000EF30000BF8000
ENDCHAR
STARTCHAR Wdieresis
ENCODING 7812
SWIDTH 925 0
DWIDTH 19 0
BBX 19 18 0 0
BITMAP
0000005E209C00000000
0000004D208C00000000
00000000000000000000
00000000000000000000
9F200000DF300000AF20
5F600002FF800000ED00
1FA00007FBD00002F900
0CE0000BC7F20006F400
08F3001F82F7000AF100
04F7005F40CC000EB000
00EB00AE008F103F7000
00BE00EA003F607F3000
006F44F5000DB0BE0000
002F77F10009E1EA0000
000DBBB00004F7F60000
0009DE700000ECF20000
0005FF200000AFD00000
0001FD0000005F900000
ENDCHAR
STARTCHAR wdieresis
ENCODING 7813
SWIDTH 777 0
DWIDTH 16 0
BBX 16 15 0 0
BITMAP
00000C902E500000
00000B901D500000
0000000000000000
0000000000000000
AF10004FD00007F3
6F40008FF2000BE0
2F8000D9F7000EA0
0DC003F5CB003F60
09F107F18F107F20
05F40CB03F50BD00
01F82F600EA0E900
00CC6F2009E4F500
008FAC0005FAF100
004FF70001EFC000
000EF30000BF8000
ENDCHAR
STARTCHAR uni1EA0
ENCODING 7840
SWIDTH 632 0
DWIDTH 13 0
BBX 13 17 0 -3
BITMAP
000008F4000000
00000EFA000000
00006F8F100000
0000CC2F700000
0003F60BD00000
0009E105F40000
001E9000EA0000
006F30008F1000
00CFFFFFFF7000
03FA88888DD000
09F1000007F400
1EA0000001FA00
6F40000000AF10
CD000000004F70
00000000000000
000007D2000000
000006E2000000
ENDCHAR
STARTCHAR uni1EA1
ENCODING 7841
SWIDTH 556 0
DWIDTH 11 0
BBX 9 14 1 -3
BITMAP
039DEEA300
0AD868EE10
0100006F60
0000002F70
0000001F80
049CEEFF80
7FB6434F80
EC00003F80
FB0000AF80
BF967CDF80
19DFD91C80
0000000000
0008D10000
0008D10000
ENDCHAR
STARTCHAR uni1EA2
ENCODING 7842
SWIDTH 632 0
DWIDTH 13 0
BBX 13 20 0 0
BITMAP
00000EEB100000
0000001C800000
0000002D700000
000003F9100000
000003E0000000
00000000000000
000008F4000000
00000EFA000000
00006F8F100000
0000CC2F700000
0003F60BD00000
0009E105F40000
001E9000EA0000
006F30008F1000
00CFFFFFFF7000
03FA88888DD000
09F1000007F400
1EA0000001FA00
6F40000000AF10
CD000000004F70
ENDCHAR
STARTCHAR uni1EA3
ENCODING 7843
SWIDTH 556 0
DWIDTH 11 0
BBX 9 17 1 0
BITMAP
000BFC2000
00001BA000
00001CA000
0001FA2000
0000F10000
0000000000
039DEEA300
0AD868EE10
0100006F60
0000002F70
0000001F80
049CEEFF80
7FB6434F80
EC00003F80
FB0000AF80
BF967CDF80
19DFD91C80
ENDCHAR
STARTCHAR uni1EA4
ENCODING 7844
SWIDTH 632 0
DWIDTH 13 0
BBX 13 19 0 0
BITMAP
0000000009E300
00001DF84D3000
0000AD7F500000
0007C204D20000
00000000000000
000008F4000000
00000EFA000000
00006F8F100000
0000CC2F700000
0003F60BD00000
0009E105F40000
001E9000EA0000
006F30008F1000
00CFFFFFFF7000
03FA88888DD000
09F1000007F400
1EA0000001FA00
6F40000000AF10
CD000000004F70
ENDCHAR
STARTCHAR uni1EA5
ENCODING 7845
SWIDTH 556 0
DWIDTH 11 0
BBX 10 16 1 0
BITMAP
00000006F5
000AFB2E50
007E7E7000
04D302D400
0000000000
039DEEA300
0AD868EE10
0100006F60
0000002F70
0000001F80
049CEEFF80
7FB6434F80
EC00003F80
FB0000AF80
BF967CDF80
19DFD91C80
ENDCHAR
STARTCHAR uni1EA6
ENCODING 7846
SWIDTH 632 0
DWIDTH 13 0
BBX 13 19 0 0
BITMAP
08F30000000000
007C1DF7000000
0000AD8F400000
0007B105D10000
00000000000000
000008F4000000
00000EFA000000
00006F8F100000
0000CC2F700000
0003F60BD00000
0009E105F40000
001E9000EA0000
006F30008F1000
00CFFFFFFF7000
03FA88888DD000
09F1000007F400
1EA0000001FA00
6F40000000AF10
CD000000004F70
ENDCHAR
STARTCHAR uni1EA7
ENCODING 7847
SWIDTH 556 0
DWIDTH 11 0
BBX 10 16 0 0
BITMAP
4F70000000
04D2AFB000
0006E7E800
003D302D50
0000000000
0039DEEA30
00AD868EE1
00100006F6
00000002F7
00000001F8
0049CEEFF8
07FB6434F8
0EC00003F8
0FB0000AF8
0BF967CDF8
019DFD91C8
ENDCHAR
STARTCHAR uni1EA8
ENCODING 7848
SWIDTH 632 0
DWIDTH 13 0
BBX 13 20 0 0
BITMAP
00000000AD7000
0000000006B000
00001EF65A1000
0000BC8F300000
0008B105D10000
00000000000000
000008F4000000
00000EFA000000
00006F8F100000
0000CC2F700000
0003F60BD00000
0009E105F40000
001E9000EA0000
006F30008F1000
00CFFFFFFF7000
03FA88888DD000
09F1000007F400
1EA0000001FA00
6F40000000AF10
CD000000004F70
ENDCHAR
STARTCHAR uni1EA9
ENCODING 7849
SWIDTH 556 0
DWIDTH 11 0
BBX 10 17 1 0
BITMAP
0000005CC1
00000002D2
0009FC0D20
005F7D9000
03D402C600
0000000000
039DEEA300
0AD868EE10
0100006F60
0000002F70
0000001F80
049CEEFF80
7FB6434F80
EC00003F80
FB0000AF80
BF967CDF80
19DFD91C80
ENDCHAR
STARTCHAR uni1EAA
ENCODING 7850
SWIDTH 632 0
DWIDTH 13 0
BBX 13 21 0 0
BITMAP
0002DE94B50000
000984AEB00000
00000000000000
00000CF8000000
00009D7F500000
0006C204D20000
00000000000000
000008F4000000
00000EFA000000
00006F8F100000
0000CC2F700000
0003F60BD00000
0009E105F40000
001E9000EA0000
006F30008F1000
00CFFFFFFF7000
03FA88888DD000
09F1000007F400
1EA0000001FA00
6F40000000AF10
CD000000004F70
ENDCHAR
STARTCHAR uni1EAB
ENCODING 7851
SWIDTH 556 0
DWIDTH 11 0
BBX 9 18 1 0
BITMAP
01BEA49800
06A49EC200
0000000000
000AFB0000
006E7E8000
03D303D400
0000000000
039DEEA300
0AD868EE10
0100006F60
0000002F70
0000001F80
049CEEFF80
7FB6434F80
EC00003F80
FB0000AF80
BF967CDF80
19DFD91C80
ENDCHAR
STARTCHAR uni1EAC
ENCODING 7852
SWIDTH 632 0
DWIDTH 13 0
BBX 13 21 0 -3
BITMAP
00001CF7000000
0000AE9F500000
000AC205E50000
00000000000000
000008F4000000
00000EFA000000
00006F8F100000
0000CC2F700000
0003F60BD00000
0009E105F40000
001E9000EA0000
006F30008F1000
00CFFFFFFF7000
03FA88888DD000
09F1000007F400
1EA0000001FA00
6F40000000AF10
CD000000004F70
00000000000000
000007D2000000
000006E2000000
ENDCHAR
STARTCHAR uni1EAD
ENCODING 7853
SWIDTH 556 0
DWIDTH 11 0
BBX 9 18 1 -3
BITMAP
000BF90000
009F9F7000
08D304D700
0000000000
039DEEA300
0AD868EE10
0100006F60
0000002F70
0000001F80
049CEEFF80
7FB6434F80
EC00003F80
FB0000AF80
BF967CDF80
19DFD91C80
0000000000
0008D10000
0008D10000
ENDCHAR
STARTCHAR uni1EAE
ENCODING 7854
SWIDTH 632 0
DWIDTH 13 0
BBX 13 20 0 0
BITMAP
0000005F500000
000001D5000000
00069000D20000
0002E659C00000
00005DEB200000
00000000000000
000008F4000000
00000EFA000000
00006F8F100000
0000CC2F700000
0003F60BD00000
0009E105F40000
001E9000EA0000
006F30008F1000
00CFFFFFFF7000
03FA88888DD000
09F1000007F400
1EA0000001FA00
6F40000000AF10
CD000000004F70
ENDCHAR
STARTCHAR uni1EAF
ENCODING 7855
SWIDTH 556 0
DWIDTH 11 0
BBX 9 17 1 0
BITMAP
00002F8000
0000C70000
03C000A500
01E857E100
004CEC4000
0000000000
039DEEA300
0AD868EE10
0100006F60
0000002F70
0000001F80
049CEEFF80
7FB6434F80
EC00003F80
FB0000AF80
BF967CDF80
19DFD91C80
ENDCHAR
STARTCHAR uni1EB0
ENCODING 7856
SWIDTH 632 0
DWIDTH 13 0
BBX 13 20 0 0
BITMAP
0000BD10000000
00001A90000000
00079000E20000
0003E659C00000
00006DEB200000
00000000000000
000008F4000000
00000EFA000000
00006F8F100000
0000CC2F700000
0003F60BD00000
0009E105F40000
001E9000EA0000
006F30008F1000
00CFFFFFFF7000
03FA88888DD000
09F1000007F400
1EA0000001FA00
6F40000000AF10
CD000000004F70
ENDCHAR
STARTCHAR uni1EB1
ENCODING 7857
SWIDTH 556 0
DWIDTH 11 0
BBX 9 17 1 0
BITMAP
009F300000
0008C00000
04C000B500
01E758E100
004CEC4000
0000000000
039DEEA300
0AD868EE10
0100006F60
0000002F70
0000001F80
049CEEFF80
7FB6434F80
EC00003F80
FB0000AF80
BF967CDF80
19DFD91C80
ENDCHAR
STARTCHAR uni1EB2
ENCODING 7858
SWIDTH 632 0
DWIDTH 13 0
BBX 13 21 0 0
BITMAP
00000BD6000000
0000005B000000
000005B2000000
00079000E20000
0003E659C00000
00006DEB200000
00000000000000
000008F4000000
00000EFA000000
00006F8F100000
0000CC2F700000
0003F60BD00000
0009E105F40000
001E9000EA0000
006F30008F1000
00CFFFFFFF7000
03FA88888DD000
09F1000007F400
1EA0000001FA00
6F40000000AF10
CD000000004F70
ENDCHAR
STARTCHAR uni1EB3
ENCODING 7859
SWIDTH 556 0
DWIDTH 11 0
BBX 9 18 1 0
BITMAP
0008D90000
00001F0000
0001D40000
02D000A600
00D857E200
003CED4000
0000000000
039DEEA300
0AD868EE10
0100006F60
0000002F70
0000001F80
049CEEFF80
7FB6434F80
EC00003F80
FB0000AF80
BF967CDF80
19DFD91C80
ENDCHAR
STARTCHAR uni1EB4
ENCODING 7860
SWIDTH 632 0
DWIDTH 13 0
BBX 13 21 0 0
BITMAP
0002DE83B50000
000A84AEB00000
00000000000000
00088000E10000
0004E65AB00000
00007DEB200000
00000000000000
000008F4000000
00000EFA000000
00006F8F100000
0000CC2F700000
0003F60BD00000
0009E105F40000
001E9000EA0000
006F30008F1000
00CFFFFFFF7000
03FA88888DD000
09F1000007F400
1EA0000001FA00
6F40000000AF10
CD000000004F70
ENDCHAR
STARTCHAR uni1EB5
ENCODING 7861
SWIDTH 556 0
DWIDTH 11 0
BBX 9 18 1 0
BITMAP
00BEA48900
06B38ED200
0000000000
04C000B500
01E758E100
004CEC4000
0000000000
039DEEA300
0AD868EE10
0100006F60
0000002F70
0000001F80
049CEEFF80
7FB6434F80
EC00003F80
FB0000AF80
BF967CDF80
19DFD91C80
ENDCHAR
STARTCHAR uni1EB6
ENCODING 7862
SWIDTH 632 0
DWIDTH 13 0
BBX 13 21 0 -3
BITMAP
00096000C40000
0004E659D00000
00007DEB200000
00000000000000
000008F4000000
00000EFA000000
00006F8F100000
0000CC2F700000
0003F60BD00000
0009E105F40000
001E9000EA0000
006F30008F1000
00CFFFFFFF7000
03FA88888DD000
09F1000007F400
1EA0000001FA00
6F40000000AF10
CD000000004F70
00000000000000
000007D2000000
000006E2000000
ENDCHAR
STARTCHAR uni1EB7
ENCODING 7863
SWIDTH 556 0
DWIDTH 11 0
BBX 9 18 1 -3
BITMAP
0690009600
02E758E200
005DEC4000
0000000000
039DEEA300
0AD868EE10
0100006F60
0000002F70
0000001F80
049CEEFF80
7FB6434F80
EC00003F80
FB0000AF80
BF967CDF80
19DFD91C80
0000000000
0008D10000
0008D10000
ENDCHAR
STARTCHAR uni1EB8
ENCODING 7864
SWIDTH 556 0
DWIDTH 11 0
BBX 8 17 2 -3
BITMAP
FFFFFFFE
FC777776
F9000000
F9000000
F9000000
F9000000
FFFFFFF8
FC777774
F9000000
F9000000
F9000000
F9000000
FC777777
FFFFFFFE
00000000
000CA000
000CA000
ENDCHAR
STARTCHAR uni1EB9
ENCODING 7865
SWIDTH 561 0
DWIDTH 11 0
BBX 10 14 1 -3
BITMAP
006CFEB300
08FA67DF40
3F70001EC0
9E00000AF1
CFFFFFFFF2
DD55555551
CE00000000
9F40000000
3FC1000000
08FD878BB0
005BEFEB40
0000000000
0001D90000
0001D90000
ENDCHAR
STARTCHAR uni1EBA
ENCODING 7866
SWIDTH 556 0
DWIDTH 11 0
BBX 8 20 2 0
BITMAP
005FD700
00005F10
00006F10
000AD500
00097000
00000000
FFFFFFFE
FC777776
F9000000
F9000000
F9000000
F9000000
FFFFFFF8
FC777774
F9000000
F9000000
F9000000
F9000000
FC777777
FFFFFFFE
ENDCHAR
STARTCHAR uni1EBB
ENCODING 7867
SWIDTH 561 0
DWIDTH 11 0
BBX 10 17 1 0
BITMAP
0006FD6000
000006F000
000007E000
0000BD4000
0000A60000
0000000000
006CFEB300
08FA67DF40
3F70001EC0
9E00000AF1
CFFFFFFFF2
DD55555551
CE00000000
9F40000000
3FC1000000
08FD878BB0
005BEFEB40
ENDCHAR
STARTCHAR uni1EBC
ENCODING 7868
SWIDTH 556 0
DWIDTH 11 0
BBX 8 18 2 0
BITMAP
0AE91087
5D6DC6E3
9601AE80
00000000
FFFFFFFE
FC777776
F9000000
F9000000
F9000000
F9000000
FFFFFFF8
FC777774
F9000000
F9000000
F9000000
F9000000
FC777777
FFFFFFFE
ENDCHAR
STARTCHAR uni1EBD
ENCODING 7869
SWIDTH 561 0
DWIDTH 11 0
BBX 10 15 1 0
BITMAP
01BE700B40
08B7EB7E10
0C302BE600
0000000000
006CFEB300
08FA67DF40
3F70001EC0
9E00000AF1
CFFFFFFFF2
DD55555551
CE00000000
9F40000000
3FC1000000
08FD878BB0
005BEFEB40
ENDCHAR
STARTCHAR uni1EBE
ENCODING 7870
SWIDTH 556 0
DWIDTH 11 0
BBX 9 19 2 0
BITMAP
0000001DB0
004FF39A10
01DAAD1000
0C8008B000
0000000000
FFFFFFFE00
FC77777600
F900000000
F900000000
F900000000
F900000000
FFFFFFF800
FC77777400
F900000000
F900000000
F900000000
F900000000
FC77777700
FFFFFFFE00
ENDCHAR
STARTCHAR uni1EBF
ENCODING 7871
SWIDTH 561 0
DWIDTH 11 0
BBX 10 16 1 0
BITMAP
00000002F9
0006FE1C80
003F8CB000
01D601A800
0000000000
006CFEB300
08FA67DF40
3F70001EC0
9E00000AF1
CFFFFFFFF2
DD55555551
CE00000000
9F40000000
3FC1000000
08FD878BB0
005BEFEB40
ENDCHAR
STARTCHAR uni1EC0
ENCODING 7872
SWIDTH 556 0
DWIDTH 11 0
BBX 9 19 1 0
BITMAP
BD10000000
1A93FF4000
001DAAD100
00B9008C00
0000000000
0FFFFFFFE0
0FC7777760
0F90000000
0F90000000
0F90000000
0F90000000
0FFFFFFF80
0FC7777740
0F90000000
0F90000000
0F90000000
0F90000000
0FC7777770
0FFFFFFFE0
ENDCHAR
ENDFONT
